; Drill file
; Format: 2.4 (00.0000)
M48
INCH
T01C0.0315
%
G05
G90
T01
X009860Y026030
X011680Y027210
X012300Y032210
X018270Y034340
X019270Y034340
X020270Y034340
X021270Y034340
X022270Y034340
X024270Y032440
X024270Y031440
X024270Y030440
X024270Y029440
X024270Y028440
X024270Y027440
X023930Y024990
X024930Y024990
X025930Y024990
X022930Y024990
X021930Y024990
X020930Y024990
X019930Y024990
X018930Y024990
X017930Y024990
X016930Y024990
X028470Y028420
X029470Y028420
M30
