%FSLAX34Y34*%
%MOMM*%
%LNSILK_BOTTOM_*%
G71*
G01*
%ADD10C, 0.16*%
%ADD11C, 0.15*%
%ADD12C, 0.16*%
%ADD13C, 0.10*%
%ADD14C, 0.08*%
%ADD15C, 0.10*%
%ADD16C, 0.30*%
%ADD17C, 0.00*%
%ADD18C, 0.20*%
%LPD*%
G54D10*
X171368Y716702D02*
X166368Y716702D01*
G54D10*
X167479Y716702D02*
X166702Y717146D01*
X166368Y718035D01*
X166702Y718924D01*
X167479Y719368D01*
X171368Y719368D01*
G54D10*
X171368Y722502D02*
X162479Y722502D01*
X162480Y725613D01*
G54D10*
X166924Y722502D02*
X166924Y725613D01*
G54D10*
X166924Y730479D02*
X168035Y731813D01*
X169146Y732257D01*
X171368Y732257D01*
G54D10*
X171368Y728702D02*
X162479Y728702D01*
X162479Y730924D01*
X163035Y731813D01*
X164146Y732257D01*
X165257Y732257D01*
X166368Y731813D01*
X166924Y730924D01*
X166924Y728702D01*
G54D10*
X166924Y737624D02*
X166924Y736735D01*
X166368Y735846D01*
X165257Y735402D01*
X164146Y735402D01*
X163035Y735846D01*
X162480Y736735D01*
X162479Y737624D01*
X163035Y738513D01*
X164146Y738957D01*
X165257Y738957D01*
X166368Y738513D01*
X166924Y737624D01*
X167480Y738513D01*
X168591Y738957D01*
X169702Y738957D01*
X170813Y738513D01*
X171368Y737624D01*
X171368Y736735D01*
X170813Y735846D01*
X169702Y735402D01*
X168590Y735402D01*
X167479Y735846D01*
X166924Y736735D01*
G54D10*
X164146Y745657D02*
X169702Y745657D01*
X170813Y745213D01*
X171368Y744324D01*
X171368Y743435D01*
X170813Y742546D01*
X169702Y742102D01*
X164146Y742102D01*
X163035Y742546D01*
X162479Y743435D01*
X162479Y744324D01*
X163035Y745213D01*
X164146Y745657D01*
G54D10*
X164146Y752357D02*
X169702Y752357D01*
X170813Y751913D01*
X171368Y751024D01*
X171368Y750135D01*
X170813Y749246D01*
X169702Y748802D01*
X164146Y748802D01*
X163035Y749246D01*
X162479Y750135D01*
X162479Y751024D01*
X163035Y751913D01*
X164146Y752357D01*
G54D10*
X165813Y755502D02*
X162480Y757724D01*
X171368Y757724D01*
G54D11*
X146036Y668316D02*
X120036Y668316D01*
X120036Y618316D01*
X146036Y618316D01*
X146036Y668316D01*
G54D12*
X137388Y637230D02*
X128499Y637230D01*
X134054Y634563D01*
X135165Y634563D01*
X135165Y638118D01*
G54D12*
X137388Y641230D02*
X137388Y641230D01*
G54D12*
X128499Y644341D02*
X128499Y647896D01*
X129610Y647452D01*
X131276Y646563D01*
X133499Y645674D01*
X135165Y645230D01*
X137388Y645230D01*
G54D12*
X132388Y653675D02*
X137388Y653675D01*
G54D12*
X136276Y653675D02*
X137165Y653230D01*
X137388Y652341D01*
X137165Y651452D01*
X136276Y651008D01*
X132388Y651008D01*
G54D12*
X137388Y656786D02*
X128499Y656786D01*
X128499Y659897D01*
G54D12*
X132943Y656786D02*
X132943Y659897D01*
G54D11*
X175404Y668316D02*
X149404Y668316D01*
X149404Y618316D01*
X175405Y618316D01*
X175404Y668316D01*
G54D12*
X160406Y632010D02*
X157073Y634232D01*
X165962Y634232D01*
G54D12*
X158739Y640899D02*
X164295Y640899D01*
X165406Y640454D01*
X165962Y639566D01*
X165962Y638676D01*
X165406Y637788D01*
X164295Y637343D01*
X158739Y637343D01*
X157628Y637788D01*
X157073Y638676D01*
X157073Y639566D01*
X157628Y640454D01*
X158739Y640899D01*
G54D12*
X158739Y647566D02*
X164295Y647566D01*
X165406Y647121D01*
X165962Y646232D01*
X165962Y645344D01*
X165406Y644455D01*
X164295Y644010D01*
X158739Y644010D01*
X157628Y644455D01*
X157073Y645344D01*
X157073Y646232D01*
X157628Y647121D01*
X158739Y647566D01*
G54D12*
X165962Y650677D02*
X160962Y650677D01*
G54D12*
X162073Y650677D02*
X161295Y651122D01*
X160962Y652010D01*
X161295Y652900D01*
X162073Y653344D01*
X165962Y653344D01*
G54D12*
X165962Y656455D02*
X157073Y656455D01*
X157073Y659566D01*
G54D12*
X161517Y656455D02*
X161517Y659566D01*
G54D11*
X206361Y668316D02*
X180361Y668316D01*
X180361Y618316D01*
X206361Y618316D01*
X206361Y668316D01*
G54D12*
X191282Y633649D02*
X190171Y634093D01*
X189615Y634982D01*
X189615Y635871D01*
X190171Y636760D01*
X191282Y637204D01*
X192393Y637204D01*
X193504Y636760D01*
X194060Y635871D01*
X194615Y636760D01*
X195726Y637204D01*
X196837Y637204D01*
X197948Y636760D01*
X198504Y635871D01*
X198504Y634982D01*
X197948Y634093D01*
X196837Y633649D01*
G54D12*
X191282Y640316D02*
X190171Y640760D01*
X189615Y641649D01*
X189615Y642538D01*
X190171Y643427D01*
X191282Y643871D01*
X192393Y643871D01*
X193504Y643427D01*
X194060Y642538D01*
X194615Y643427D01*
X195726Y643871D01*
X196837Y643871D01*
X197948Y643427D01*
X198504Y642538D01*
X198504Y641649D01*
X197948Y640760D01*
X196837Y640316D01*
G54D12*
X198504Y646983D02*
X193504Y646983D01*
G54D12*
X194615Y646983D02*
X193837Y647427D01*
X193504Y648316D01*
X193837Y649205D01*
X194615Y649650D01*
X198504Y649650D01*
G54D12*
X198504Y652761D02*
X189615Y652761D01*
X189615Y655872D01*
G54D12*
X194060Y652761D02*
X194060Y655872D01*
G54D13*
X126146Y592933D02*
X126413Y593600D01*
X126946Y593933D01*
X127480Y593933D01*
X128013Y593600D01*
X128280Y592933D01*
X128280Y592266D01*
X128013Y591600D01*
X127480Y591266D01*
X128013Y590933D01*
X128280Y590266D01*
X128280Y589600D01*
X128013Y588933D01*
X127480Y588600D01*
X126946Y588600D01*
X126413Y588933D01*
X126146Y589600D01*
G54D13*
X130146Y588600D02*
X130146Y588600D01*
G54D13*
X132013Y592933D02*
X132280Y593600D01*
X132813Y593933D01*
X133347Y593933D01*
X133880Y593600D01*
X134146Y592933D01*
X134147Y592266D01*
X133880Y591600D01*
X133347Y591266D01*
X133880Y590933D01*
X134147Y590266D01*
X134146Y589600D01*
X133880Y588933D01*
X133347Y588600D01*
X132813Y588600D01*
X132280Y588933D01*
X132013Y589600D01*
G54D13*
X136013Y591600D02*
X137080Y588600D01*
X138147Y591600D01*
G54D11*
X209636Y716641D02*
X209636Y690641D01*
X259636Y690641D01*
X259636Y716641D01*
X209636Y716641D01*
G54D12*
X218411Y703863D02*
X220633Y707196D01*
X220633Y698307D01*
G54D12*
X227300Y705530D02*
X227300Y699974D01*
X226855Y698863D01*
X225966Y698307D01*
X225077Y698307D01*
X224188Y698863D01*
X223744Y699974D01*
X223744Y705530D01*
X224188Y706641D01*
X225077Y707196D01*
X225966Y707196D01*
X226855Y706641D01*
X227300Y705530D01*
G54D12*
X233966Y705530D02*
X233966Y699974D01*
X233522Y698863D01*
X232633Y698307D01*
X231744Y698307D01*
X230855Y698863D01*
X230411Y699974D01*
X230411Y705530D01*
X230855Y706641D01*
X231744Y707196D01*
X232633Y707196D01*
X233522Y706641D01*
X233966Y705530D01*
G54D12*
X237078Y698307D02*
X237078Y703307D01*
G54D12*
X237078Y702196D02*
X237522Y702974D01*
X238411Y703307D01*
X239300Y702974D01*
X239745Y702196D01*
X239745Y698307D01*
G54D12*
X242856Y698307D02*
X242856Y707196D01*
X245967Y707196D01*
G54D12*
X242856Y702752D02*
X245967Y702752D01*
G54D14*
X215187Y660249D02*
X216298Y664693D01*
X217410Y660249D01*
G54D14*
X215632Y661915D02*
X216965Y661915D01*
G54D14*
X220743Y661082D02*
X220521Y660526D01*
X220076Y660248D01*
X219632Y660249D01*
X219188Y660526D01*
X218965Y661082D01*
X218965Y663860D01*
X219188Y664415D01*
X219632Y664693D01*
X220076Y664693D01*
X220521Y664415D01*
X220743Y663860D01*
G54D14*
X223188Y660249D02*
X223188Y664693D01*
G54D14*
X222299Y664693D02*
X224077Y664693D01*
G54D14*
X225633Y660249D02*
X225634Y664693D01*
G54D14*
X227189Y664693D02*
X228300Y660249D01*
X229412Y664693D01*
G54D14*
X232523Y660249D02*
X230967Y660249D01*
X230967Y664693D01*
X232523Y664693D01*
G54D14*
X230967Y662471D02*
X232523Y662471D01*
G54D14*
X252892Y658998D02*
X248448Y658999D01*
G54D14*
X248448Y658110D02*
X248448Y659888D01*
G54D14*
X248448Y661444D02*
X252892Y663666D01*
G54D14*
X252892Y661444D02*
X248448Y663666D01*
G54D11*
X88684Y649780D02*
X110684Y649780D01*
X110684Y687780D01*
X88684Y687780D01*
X88684Y649780D01*
G54D12*
X97544Y655380D02*
X94210Y657603D01*
X103099Y657603D01*
G54D12*
X95877Y664269D02*
X101432Y664269D01*
X102544Y663825D01*
X103099Y662936D01*
X103099Y662047D01*
X102544Y661158D01*
X101432Y660714D01*
X95877Y660714D01*
X94766Y661158D01*
X94210Y662047D01*
X94210Y662936D01*
X94766Y663825D01*
X95877Y664269D01*
G54D12*
X98099Y670047D02*
X103099Y670047D01*
G54D12*
X101988Y670047D02*
X102877Y669603D01*
X103099Y668714D01*
X102877Y667825D01*
X101988Y667380D01*
X98099Y667380D01*
G54D12*
X103099Y673158D02*
X94210Y673158D01*
G54D12*
X103099Y676714D02*
X94210Y676714D01*
G54D12*
X98655Y673158D02*
X98655Y676714D01*
G54D11*
X78578Y605915D02*
X100578Y605915D01*
X100578Y643915D01*
X78578Y643915D01*
X78578Y605915D01*
G54D12*
X87912Y618776D02*
X84578Y620998D01*
X93467Y620998D01*
G54D12*
X84578Y627664D02*
X84578Y624109D01*
X88467Y624109D01*
X88467Y624553D01*
X87912Y625442D01*
X87912Y626331D01*
X88467Y627220D01*
X89578Y627664D01*
X91801Y627664D01*
X92912Y627220D01*
X93467Y626331D01*
X93467Y625442D01*
X92912Y624553D01*
X91801Y624109D01*
G54D12*
X93467Y630776D02*
X88467Y630776D01*
G54D12*
X89578Y630776D02*
X88801Y631220D01*
X88467Y632109D01*
X88801Y632998D01*
X89578Y633442D01*
X93467Y633442D01*
G54D12*
X93467Y636554D02*
X84578Y636554D01*
G54D12*
X93467Y640109D02*
X84578Y640109D01*
G54D12*
X89023Y636554D02*
X89023Y640109D01*
G54D11*
X57634Y649882D02*
X83634Y649882D01*
X83634Y699882D01*
X57634Y699882D01*
X57634Y649882D01*
G54D12*
X69675Y664325D02*
X66342Y666547D01*
X75231Y666547D01*
G54D12*
X70231Y672325D02*
X75231Y672325D01*
G54D12*
X74120Y672325D02*
X75008Y671880D01*
X75231Y670992D01*
X75008Y670103D01*
X74120Y669658D01*
X70231Y669658D01*
G54D12*
X75231Y675436D02*
X66342Y675436D01*
X66342Y678547D01*
G54D12*
X70786Y675436D02*
X70786Y678547D01*
G54D11*
X138098Y809822D02*
X112098Y809822D01*
X112098Y759822D01*
X138098Y759822D01*
X138098Y809822D01*
G54D12*
X129146Y775423D02*
X129146Y771867D01*
X128591Y771867D01*
X127480Y772312D01*
X124146Y774978D01*
X123035Y775423D01*
X121924Y775423D01*
X120813Y774978D01*
X120257Y774089D01*
X120257Y773200D01*
X120813Y772312D01*
X121924Y771867D01*
G54D12*
X129146Y782090D02*
X129146Y778534D01*
X128591Y778534D01*
X127480Y778978D01*
X124146Y781645D01*
X123035Y782090D01*
X121924Y782090D01*
X120813Y781645D01*
X120257Y780756D01*
X120257Y779867D01*
X120813Y778978D01*
X121924Y778534D01*
G54D12*
X129146Y785201D02*
X120257Y785201D01*
G54D12*
X126368Y785201D02*
X120257Y788757D01*
G54D12*
X124702Y786534D02*
X129146Y788757D01*
G54D11*
X84768Y754380D02*
X103153Y772765D01*
X67797Y808121D01*
X49412Y789736D01*
X84768Y754380D01*
G54D12*
X81432Y779043D02*
X85361Y779829D01*
X79076Y773544D01*
G54D12*
X81275Y771344D02*
X84811Y774879D01*
G54D12*
X84025Y774094D02*
X84889Y774329D01*
X85754Y773937D01*
X86146Y773072D01*
X85910Y772208D01*
X83161Y769458D01*
G54D12*
X85361Y767258D02*
X91646Y773544D01*
X93846Y771344D01*
G54D12*
X88503Y770401D02*
X90703Y768201D01*
G54D11*
X183766Y820432D02*
X183766Y842432D01*
X145766Y842432D01*
X145766Y820432D01*
X183766Y820432D01*
G54D12*
X153816Y834372D02*
X152928Y834372D01*
X152039Y834927D01*
X151594Y836038D01*
X151594Y837150D01*
X152039Y838261D01*
X152928Y838816D01*
X153816Y838816D01*
X154706Y838261D01*
X155150Y837150D01*
X155150Y836038D01*
X154706Y834927D01*
X153816Y834372D01*
X154706Y833816D01*
X155150Y832705D01*
X155150Y831594D01*
X154706Y830483D01*
X153816Y829927D01*
X152928Y829927D01*
X152039Y830483D01*
X151594Y831594D01*
X151594Y832705D01*
X152039Y833816D01*
X152928Y834372D01*
G54D12*
X158261Y829927D02*
X158261Y829927D01*
G54D12*
X164928Y829927D02*
X161372Y829927D01*
X161372Y830483D01*
X161817Y831594D01*
X164484Y834927D01*
X164928Y836038D01*
X164928Y837150D01*
X164484Y838261D01*
X163594Y838816D01*
X162706Y838816D01*
X161817Y838261D01*
X161372Y837150D01*
G54D12*
X168039Y829927D02*
X168039Y834927D01*
G54D12*
X168039Y833816D02*
X168484Y834594D01*
X169373Y834927D01*
X170262Y834594D01*
X170706Y833816D01*
X170706Y829927D01*
G54D12*
X173817Y829927D02*
X173817Y838816D01*
G54D12*
X177373Y829927D02*
X177373Y838816D01*
G54D12*
X173817Y834372D02*
X177373Y834372D01*
G54D11*
X139742Y820402D02*
X139742Y842402D01*
X101742Y842402D01*
X101742Y820402D01*
X139742Y820402D01*
G54D12*
X109100Y836325D02*
X109544Y837436D01*
X110433Y837992D01*
X111322Y837992D01*
X112211Y837436D01*
X112656Y836325D01*
X112656Y835214D01*
X112211Y834103D01*
X111322Y833547D01*
X112211Y832992D01*
X112656Y831880D01*
X112656Y830769D01*
X112211Y829658D01*
X111322Y829103D01*
X110433Y829103D01*
X109544Y829658D01*
X109100Y830769D01*
G54D12*
X115767Y829103D02*
X115767Y829103D01*
G54D12*
X118878Y830769D02*
X119322Y829658D01*
X120211Y829103D01*
X121100Y829103D01*
X121989Y829658D01*
X122434Y830769D01*
X122434Y833547D01*
X122434Y834103D01*
X121100Y832992D01*
X120211Y832992D01*
X119322Y833547D01*
X118878Y834658D01*
X118878Y836325D01*
X119322Y837436D01*
X120211Y837992D01*
X121100Y837992D01*
X121989Y837436D01*
X122434Y836325D01*
X122434Y833547D01*
G54D12*
X125545Y829103D02*
X125545Y834103D01*
G54D12*
X125545Y832992D02*
X125989Y833769D01*
X126878Y834103D01*
X127767Y833769D01*
X128212Y832992D01*
X128212Y829103D01*
G54D12*
X131323Y829103D02*
X131323Y837992D01*
G54D12*
X134878Y829103D02*
X134878Y837992D01*
G54D12*
X131323Y833547D02*
X134878Y833547D01*
G54D11*
X45568Y844391D02*
X45568Y818391D01*
X95568Y818391D01*
X95568Y844391D01*
X45568Y844391D01*
G54D12*
X57888Y833174D02*
X60111Y836507D01*
X60111Y827618D01*
G54D12*
X63221Y827618D02*
X63221Y827618D01*
G54D12*
X68555Y832063D02*
X67666Y832063D01*
X66777Y832618D01*
X66332Y833729D01*
X66332Y834841D01*
X66777Y835952D01*
X67666Y836507D01*
X68555Y836507D01*
X69443Y835952D01*
X69888Y834841D01*
X69888Y833729D01*
X69443Y832618D01*
X68555Y832063D01*
X69443Y831507D01*
X69888Y830396D01*
X69888Y829285D01*
X69443Y828174D01*
X68555Y827618D01*
X67666Y827618D01*
X66777Y828174D01*
X66332Y829285D01*
X66332Y830396D01*
X66777Y831507D01*
X67666Y832063D01*
G54D12*
X72999Y832618D02*
X72999Y825396D01*
G54D12*
X72999Y829285D02*
X73444Y827841D01*
X74333Y827618D01*
X75222Y827841D01*
X75666Y828952D01*
X75666Y831174D01*
X75222Y832285D01*
X74333Y832618D01*
X73444Y832285D01*
X72999Y830952D01*
G54D12*
X78777Y827618D02*
X78777Y836507D01*
X81888Y836507D01*
G54D12*
X78777Y832063D02*
X81888Y832063D01*
G54D11*
X202714Y852727D02*
X202714Y874727D01*
X164714Y874727D01*
X164714Y852727D01*
X202714Y852727D01*
G54D12*
X176477Y870316D02*
X172922Y870316D01*
X172922Y866427D01*
X173366Y866427D01*
X174255Y866983D01*
X175144Y866983D01*
X176033Y866427D01*
X176477Y865316D01*
X176477Y863094D01*
X176033Y861983D01*
X175144Y861427D01*
X174255Y861427D01*
X173366Y861983D01*
X172922Y863094D01*
G54D12*
X179589Y861427D02*
X179589Y861427D01*
G54D12*
X186255Y868650D02*
X185811Y869761D01*
X184922Y870316D01*
X184033Y870316D01*
X183144Y869761D01*
X182700Y868650D01*
X182700Y865872D01*
X182700Y865316D01*
X184033Y866427D01*
X184922Y866427D01*
X185811Y865872D01*
X186255Y864761D01*
X186255Y863094D01*
X185811Y861983D01*
X184922Y861427D01*
X184033Y861427D01*
X183144Y861983D01*
X182700Y863094D01*
X182700Y865872D01*
G54D12*
X189367Y861427D02*
X189367Y866427D01*
G54D12*
X189367Y865316D02*
X189811Y866094D01*
X190700Y866427D01*
X191589Y866094D01*
X192033Y865316D01*
X192033Y861427D01*
G54D12*
X195145Y861427D02*
X195145Y870316D01*
G54D12*
X198700Y861427D02*
X198700Y870316D01*
G54D12*
X195145Y865872D02*
X198700Y865872D01*
G54D11*
X259666Y834239D02*
X259666Y860239D01*
X209666Y860239D01*
X209666Y834239D01*
X259666Y834239D01*
G54D12*
X225250Y843765D02*
X221695Y843765D01*
X221695Y844320D01*
X222139Y845432D01*
X224806Y848765D01*
X225250Y849876D01*
X225250Y850987D01*
X224806Y852098D01*
X223917Y852654D01*
X223028Y852654D01*
X222139Y852098D01*
X221695Y850987D01*
G54D12*
X228362Y843765D02*
X228362Y843765D01*
G54D12*
X235028Y843765D02*
X231473Y843765D01*
X231473Y844320D01*
X231917Y845432D01*
X234584Y848765D01*
X235028Y849876D01*
X235028Y850987D01*
X234584Y852098D01*
X233695Y852654D01*
X232806Y852654D01*
X231917Y852098D01*
X231473Y850987D01*
G54D12*
X238140Y843765D02*
X238140Y848765D01*
G54D12*
X238140Y847654D02*
X238584Y848432D01*
X239473Y848765D01*
X240362Y848432D01*
X240806Y847654D01*
X240806Y843765D01*
G54D12*
X243918Y843765D02*
X243918Y852654D01*
X247029Y852654D01*
G54D12*
X243918Y848209D02*
X247029Y848209D01*
G54D11*
X259666Y866783D02*
X259666Y892782D01*
X209666Y892783D01*
X209666Y866783D01*
X259666Y866783D01*
G54D12*
X237959Y876178D02*
X229070Y876178D01*
X237959Y879733D01*
X229070Y879733D01*
G54D12*
X236292Y886400D02*
X237403Y885956D01*
X237959Y885067D01*
X237959Y884178D01*
X237403Y883289D01*
X236292Y882845D01*
X230736Y882845D01*
X229625Y883289D01*
X229070Y884178D01*
X229070Y885067D01*
X229625Y885956D01*
X230736Y886400D01*
G54D11*
X235242Y820532D02*
X209241Y820532D01*
X209241Y770532D01*
X235242Y770532D01*
X235242Y820532D01*
G54D11*
X237318Y668316D02*
X211318Y668316D01*
X211318Y618316D01*
X237318Y618316D01*
X237318Y668316D01*
G54D12*
X229537Y633729D02*
X229537Y630173D01*
X228982Y630173D01*
X227871Y630618D01*
X224537Y633284D01*
X223426Y633729D01*
X222315Y633729D01*
X221204Y633284D01*
X220648Y632395D01*
X220648Y631506D01*
X221204Y630618D01*
X222315Y630173D01*
G54D12*
X229537Y640396D02*
X229537Y636840D01*
X228982Y636840D01*
X227871Y637285D01*
X224537Y639951D01*
X223426Y640396D01*
X222315Y640396D01*
X221204Y639951D01*
X220648Y639062D01*
X220648Y638174D01*
X221204Y637285D01*
X222315Y636840D01*
G54D12*
X222315Y647063D02*
X227871Y647063D01*
X228982Y646618D01*
X229537Y645729D01*
X229537Y644840D01*
X228982Y643952D01*
X227871Y643507D01*
X222315Y643507D01*
X221204Y643952D01*
X220648Y644840D01*
X220648Y645729D01*
X221204Y646618D01*
X222315Y647063D01*
G54D12*
X225093Y651952D02*
X226204Y653285D01*
X227315Y653730D01*
X229537Y653730D01*
G54D12*
X229537Y650174D02*
X220648Y650174D01*
X220648Y652396D01*
X221204Y653285D01*
X222315Y653730D01*
X223426Y653730D01*
X224537Y653285D01*
X225093Y652396D01*
X225093Y650174D01*
G54D14*
X300544Y687239D02*
X300622Y686375D01*
X300387Y685825D01*
X299601Y685039D01*
G54D14*
X298344Y686296D02*
X301487Y689439D01*
X302272Y688653D01*
X302390Y688143D01*
X302155Y687593D01*
X301762Y687200D01*
X301212Y686964D01*
X300701Y687082D01*
X299915Y687868D01*
G54D14*
X303844Y687082D02*
X302273Y682368D01*
G54D14*
X300701Y683939D02*
X305415Y685510D01*
G54D14*
X299388Y727474D02*
X299611Y726918D01*
X300055Y726640D01*
X300500Y726641D01*
X300944Y726918D01*
X301166Y727474D01*
X301166Y728029D01*
X300944Y728585D01*
X300500Y728863D01*
X300055Y728863D01*
X299611Y729140D01*
X299388Y729696D01*
X299389Y730252D01*
X299611Y730807D01*
X300055Y731085D01*
X300500Y731085D01*
X300944Y730807D01*
X301166Y730252D01*
G54D14*
X304500Y727474D02*
X304278Y726918D01*
X303834Y726641D01*
X303389Y726641D01*
X302945Y726918D01*
X302722Y727474D01*
X302722Y730252D01*
X302944Y730807D01*
X303389Y731085D01*
X303834Y731085D01*
X304278Y730807D01*
X304500Y730252D01*
G54D14*
X306056Y726641D02*
X306056Y731085D01*
G54D14*
X306056Y728029D02*
X307834Y731085D01*
G54D14*
X306723Y728863D02*
X307834Y726641D01*
G54D14*
X299550Y735105D02*
X300216Y734549D01*
X300438Y733994D01*
X300438Y732883D01*
G54D14*
X298661Y732883D02*
X298660Y737327D01*
X299772Y737327D01*
X300216Y737049D01*
X300438Y736494D01*
X300438Y735938D01*
X300216Y735383D01*
X299772Y735105D01*
X298660Y735105D01*
G54D14*
X303550Y732883D02*
X301995Y732883D01*
X301994Y737327D01*
X303550Y737327D01*
G54D14*
X301995Y735105D02*
X303550Y735105D01*
G54D14*
X305996Y733716D02*
X307107Y732883D01*
G54D14*
X306884Y736494D02*
X306884Y733716D01*
X306662Y733161D01*
X306218Y732883D01*
X305773Y732883D01*
X305329Y733161D01*
X305107Y733716D01*
X305107Y736494D01*
X305329Y737049D01*
X305773Y737327D01*
X306218Y737327D01*
X306662Y737050D01*
X306884Y736494D01*
G54D14*
X308663Y732883D02*
X308663Y737327D01*
X310440Y732883D01*
X310440Y737327D01*
G54D14*
X315199Y780864D02*
X315199Y785308D01*
X316310Y782530D01*
X317422Y785308D01*
X317422Y780864D01*
G54D14*
X320755Y784475D02*
X320755Y781697D01*
X320533Y781142D01*
X320088Y780864D01*
X319644Y780864D01*
X319200Y781142D01*
X318977Y781697D01*
X318977Y784475D01*
X319199Y785030D01*
X319644Y785308D01*
X320088Y785308D01*
X320533Y785031D01*
X320755Y784475D01*
G54D14*
X322311Y781697D02*
X322533Y781142D01*
X322978Y780864D01*
X323422Y780864D01*
X323867Y781141D01*
X324089Y781697D01*
X324089Y782253D01*
X323867Y782808D01*
X323422Y783086D01*
X322978Y783086D01*
X322534Y783364D01*
X322311Y783920D01*
X322311Y784475D01*
X322534Y785030D01*
X322978Y785308D01*
X323422Y785308D01*
X323867Y785030D01*
X324089Y784475D01*
G54D14*
X325645Y780864D02*
X325645Y785308D01*
G54D14*
X304215Y789918D02*
X304215Y794363D01*
X305326Y791585D01*
X306437Y794363D01*
X306437Y789918D01*
G54D14*
X307993Y789918D02*
X307993Y794363D01*
G54D14*
X309549Y790752D02*
X309771Y790196D01*
X310216Y789918D01*
X310660Y789918D01*
X311105Y790196D01*
X311327Y790752D01*
X311327Y791307D01*
X311105Y791863D01*
X310660Y792140D01*
X310216Y792140D01*
X309771Y792418D01*
X309549Y792974D01*
X309549Y793529D01*
X309771Y794085D01*
X310216Y794363D01*
X310660Y794363D01*
X311104Y794085D01*
X311327Y793529D01*
G54D14*
X314661Y793529D02*
X314661Y790752D01*
X314439Y790196D01*
X313994Y789918D01*
X313550Y789918D01*
X313105Y790196D01*
X312883Y790752D01*
X312883Y793529D01*
X313105Y794085D01*
X313550Y794363D01*
X313994Y794363D01*
X314439Y794085D01*
X314661Y793529D01*
G54D14*
X213380Y754154D02*
X214047Y753598D01*
X214269Y753043D01*
X214269Y751931D01*
G54D14*
X212491Y751931D02*
X212491Y756376D01*
X213602Y756376D01*
X214047Y756098D01*
X214269Y755542D01*
X214269Y754987D01*
X214047Y754431D01*
X213602Y754154D01*
X212491Y754154D01*
G54D14*
X215825Y751932D02*
X215825Y756376D01*
X216936Y756376D01*
X217381Y756098D01*
X217603Y755542D01*
X217603Y752765D01*
X217381Y752209D01*
X216936Y751931D01*
X215825Y751932D01*
G54D14*
X219159Y756376D02*
X220270Y754154D01*
X220270Y751931D01*
G54D14*
X220270Y754154D02*
X221382Y756376D01*
G54D14*
X222937Y751931D02*
X222937Y756376D01*
X224715Y751931D01*
X224715Y756376D01*
G54D14*
X317455Y848301D02*
X318122Y847746D01*
X318344Y847190D01*
X318344Y846079D01*
G54D14*
X316567Y846079D02*
X316567Y850524D01*
X317678Y850524D01*
X318122Y850246D01*
X318344Y849690D01*
X318344Y849135D01*
X318122Y848579D01*
X317678Y848301D01*
X316567Y848301D01*
G54D14*
X321456Y846079D02*
X319901Y846079D01*
X319901Y850524D01*
X321456Y850524D01*
G54D14*
X319901Y848301D02*
X321456Y848301D01*
G54D14*
X323013Y846912D02*
X323235Y846357D01*
X323679Y846079D01*
X324124Y846079D01*
X324568Y846357D01*
X324790Y846913D01*
X324790Y847468D01*
X324568Y848024D01*
X324124Y848301D01*
X323679Y848301D01*
X323235Y848579D01*
X323013Y849135D01*
X323013Y849690D01*
X323235Y850246D01*
X323679Y850524D01*
X324124Y850524D01*
X324568Y850246D01*
X324790Y849690D01*
G54D14*
X327902Y846079D02*
X326347Y846079D01*
X326347Y850524D01*
X327902Y850524D01*
G54D14*
X326347Y848301D02*
X327902Y848301D01*
G54D14*
X330347Y846079D02*
X330348Y850524D01*
G54D14*
X329459Y850524D02*
X331236Y850524D01*
G54D10*
X421770Y760534D02*
X421770Y769423D01*
X423992Y769423D01*
X424881Y768867D01*
X425325Y767756D01*
X425325Y766645D01*
X424881Y765534D01*
X423992Y764978D01*
X421770Y764978D01*
G54D10*
X428470Y766090D02*
X430692Y769423D01*
X430692Y760534D01*
G54D10*
X435992Y764978D02*
X435103Y764978D01*
X434214Y765534D01*
X433770Y766645D01*
X433770Y767756D01*
X434214Y768867D01*
X435103Y769423D01*
X435992Y769423D01*
X436881Y768867D01*
X437325Y767756D01*
X437325Y766645D01*
X436881Y765534D01*
X435992Y764978D01*
X436881Y764423D01*
X437325Y763312D01*
X437325Y762201D01*
X436881Y761090D01*
X435992Y760534D01*
X435103Y760534D01*
X434214Y761090D01*
X433770Y762201D01*
X433770Y763312D01*
X434214Y764423D01*
X435103Y764978D01*
G54D10*
X440470Y760534D02*
X440470Y769423D01*
X443581Y769423D01*
G54D10*
X440470Y764978D02*
X443581Y764978D01*
G54D10*
X450225Y760534D02*
X446670Y760534D01*
X446670Y761090D01*
X447114Y762201D01*
X449781Y765534D01*
X450225Y766645D01*
X450225Y767756D01*
X449781Y768867D01*
X448892Y769423D01*
X448003Y769423D01*
X447114Y768867D01*
X446670Y767756D01*
G54D10*
X456036Y760534D02*
X456036Y769423D01*
X453370Y763867D01*
X453370Y762756D01*
X456925Y762756D01*
G54D10*
X460070Y760534D02*
X460070Y769423D01*
G54D10*
X460070Y763312D02*
X463625Y769423D01*
G54D10*
X461403Y764978D02*
X463625Y760534D01*
G54D10*
X470325Y760534D02*
X466770Y760534D01*
X466770Y761090D01*
X467214Y762201D01*
X469881Y765534D01*
X470325Y766645D01*
X470325Y767756D01*
X469881Y768867D01*
X468992Y769423D01*
X468103Y769423D01*
X467214Y768867D01*
X466770Y767756D01*
G54D10*
X477025Y767756D02*
X477025Y762201D01*
X476581Y761090D01*
X475692Y760534D01*
X474803Y760534D01*
X473914Y761090D01*
X473470Y762201D01*
X473470Y767756D01*
X473914Y768867D01*
X474803Y769423D01*
X475692Y769423D01*
X476581Y768867D01*
X477025Y767756D01*
G54D15*
X500620Y736220D02*
X398227Y736220D01*
X398227Y791783D01*
X496255Y791783D01*
X500620Y791783D01*
X500620Y736220D01*
G54D16*
X496652Y787814D02*
X496652Y787814D01*
G54D10*
X525615Y830119D02*
X534504Y830119D01*
X528948Y827897D01*
X534504Y825675D01*
X525615Y825675D01*
G54D10*
X527282Y819064D02*
X526171Y819508D01*
X525615Y820397D01*
X525615Y821286D01*
X526171Y822175D01*
X527282Y822619D01*
X532838Y822619D01*
X533948Y822175D01*
X534504Y821286D01*
X534504Y820397D01*
X533948Y819508D01*
X532838Y819064D01*
G54D10*
X534504Y815919D02*
X525615Y815919D01*
X525615Y812808D01*
G54D10*
X530060Y807942D02*
X528948Y806608D01*
X527837Y806164D01*
X525615Y806164D01*
G54D10*
X525615Y809719D02*
X534504Y809719D01*
X534504Y807497D01*
X533948Y806608D01*
X532837Y806164D01*
X531726Y806164D01*
X530615Y806608D01*
X530060Y807497D01*
X530060Y809719D01*
G54D10*
X517891Y827719D02*
X516780Y826386D01*
X515669Y825941D01*
X513447Y825941D01*
G54D10*
X513447Y829497D02*
X522336Y829497D01*
X522336Y827275D01*
X521780Y826386D01*
X520669Y825942D01*
X519558Y825942D01*
X518447Y826386D01*
X517891Y827275D01*
X517891Y829497D01*
G54D10*
X513447Y822797D02*
X522336Y820575D01*
X513447Y818353D01*
G54D10*
X516780Y821908D02*
X516780Y819242D01*
G54D10*
X520669Y811742D02*
X515113Y811741D01*
X514002Y812186D01*
X513447Y813075D01*
X513447Y813964D01*
X514002Y814853D01*
X515113Y815297D01*
X520669Y815297D01*
X521780Y814853D01*
X522336Y813964D01*
X522336Y813075D01*
X521780Y812186D01*
X520669Y811742D01*
G54D10*
X505541Y826291D02*
X504430Y824958D01*
X503319Y824513D01*
X501097Y824513D01*
G54D10*
X501097Y828069D02*
X509986Y828069D01*
X509986Y825847D01*
X509430Y824958D01*
X508319Y824513D01*
X507208Y824513D01*
X506097Y824958D01*
X505541Y825847D01*
X505541Y828069D01*
G54D10*
X501097Y821369D02*
X509986Y819147D01*
X501097Y816925D01*
G54D10*
X504430Y820480D02*
X504430Y817813D01*
G54D10*
X506652Y813869D02*
X509986Y811647D01*
X501097Y811647D01*
G54D10*
X493679Y827766D02*
X492568Y826433D01*
X491456Y825988D01*
X489234Y825988D01*
G54D10*
X489234Y829544D02*
X498123Y829544D01*
X498123Y827322D01*
X497568Y826433D01*
X496456Y825988D01*
X495345Y825988D01*
X494234Y826433D01*
X493679Y827322D01*
X493679Y829544D01*
G54D10*
X489234Y822844D02*
X498123Y820622D01*
X489234Y818400D01*
G54D10*
X492568Y821955D02*
X492568Y819288D01*
G54D10*
X489234Y811788D02*
X489234Y815344D01*
X489790Y815344D01*
X490901Y814900D01*
X494234Y812233D01*
X495345Y811788D01*
X496456Y811788D01*
X497568Y812233D01*
X498123Y813122D01*
X498123Y814011D01*
X497568Y814900D01*
X496456Y815344D01*
G54D10*
X481772Y827766D02*
X480661Y826433D01*
X479550Y825988D01*
X477328Y825988D01*
G54D10*
X477328Y829544D02*
X486217Y829544D01*
X486217Y827322D01*
X485661Y826433D01*
X484550Y825988D01*
X483439Y825988D01*
X482328Y826433D01*
X481772Y827322D01*
X481772Y829544D01*
G54D10*
X477328Y822844D02*
X486217Y820622D01*
X477328Y818400D01*
G54D10*
X480661Y821955D02*
X480661Y819288D01*
G54D10*
X484550Y815344D02*
X485661Y814900D01*
X486217Y814011D01*
X486217Y813122D01*
X485661Y812233D01*
X484550Y811788D01*
X483439Y811788D01*
X482328Y812233D01*
X481772Y813122D01*
X481217Y812233D01*
X480106Y811788D01*
X478995Y811788D01*
X477884Y812233D01*
X477328Y813122D01*
X477328Y814011D01*
X477884Y814900D01*
X478995Y815344D01*
G54D10*
X469866Y827766D02*
X468755Y826433D01*
X467644Y825988D01*
X465422Y825988D01*
G54D10*
X465422Y829544D02*
X474311Y829544D01*
X474311Y827322D01*
X473755Y826433D01*
X472644Y825988D01*
X471533Y825988D01*
X470422Y826433D01*
X469866Y827322D01*
X469866Y829544D01*
G54D10*
X465422Y822844D02*
X474311Y820622D01*
X465422Y818400D01*
G54D10*
X468755Y821955D02*
X468755Y819288D01*
G54D10*
X465422Y812677D02*
X474311Y812677D01*
X468755Y815344D01*
X467644Y815344D01*
X467644Y811788D01*
G54D10*
X457960Y827766D02*
X456849Y826433D01*
X455738Y825988D01*
X453516Y825988D01*
G54D10*
X453516Y829544D02*
X462404Y829544D01*
X462404Y827322D01*
X461849Y826433D01*
X460738Y825988D01*
X459627Y825988D01*
X458516Y826433D01*
X457960Y827322D01*
X457960Y829544D01*
G54D10*
X453516Y822844D02*
X462404Y820622D01*
X453516Y818400D01*
G54D10*
X456849Y821955D02*
X456849Y819288D01*
G54D10*
X462404Y811788D02*
X462404Y815344D01*
X458516Y815344D01*
X458516Y814900D01*
X459071Y814011D01*
X459071Y813122D01*
X458516Y812233D01*
X457404Y811788D01*
X455182Y811788D01*
X454071Y812233D01*
X453516Y813122D01*
X453516Y814011D01*
X454071Y814900D01*
X455182Y815344D01*
G54D10*
X446054Y827366D02*
X446054Y825588D01*
X443276Y825588D01*
X442165Y826033D01*
X441609Y826922D01*
X441609Y827811D01*
X442165Y828700D01*
X443276Y829144D01*
X448832Y829144D01*
X449943Y828700D01*
X450498Y827811D01*
X450498Y826922D01*
X449943Y826033D01*
X448832Y825588D01*
G54D10*
X441609Y822444D02*
X450498Y822444D01*
X441609Y818888D01*
X450498Y818888D01*
G54D10*
X441609Y815744D02*
X450498Y815744D01*
X450498Y813522D01*
X449943Y812633D01*
X448832Y812188D01*
X443276Y812188D01*
X442165Y812633D01*
X441609Y813522D01*
X441609Y815744D01*
G54D10*
X436925Y830620D02*
X431370Y830620D01*
X430259Y831064D01*
X429703Y831953D01*
X429703Y832842D01*
X430259Y833731D01*
X431370Y834175D01*
X436925Y834175D01*
X438036Y833731D01*
X438592Y832842D01*
X438592Y831953D01*
X438036Y831064D01*
X436925Y830620D01*
G54D10*
X431370Y827475D02*
X430258Y827031D01*
X429703Y826142D01*
X429703Y825253D01*
X430258Y824364D01*
X431370Y823920D01*
X432481Y823920D01*
X433592Y824364D01*
X434147Y825253D01*
X434147Y826142D01*
X434703Y827031D01*
X435814Y827475D01*
X436925Y827475D01*
X438036Y827031D01*
X438592Y826142D01*
X438592Y825253D01*
X438036Y824364D01*
X436925Y823920D01*
G54D10*
X431370Y817220D02*
X430258Y817664D01*
X429703Y818553D01*
X429703Y819442D01*
X430258Y820331D01*
X431370Y820775D01*
X436925Y820775D01*
X438036Y820331D01*
X438592Y819442D01*
X438592Y818553D01*
X438036Y817664D01*
X436925Y817220D01*
G54D10*
X435258Y814075D02*
X438592Y811853D01*
X429703Y811853D01*
G54D10*
X425019Y831320D02*
X419463Y831320D01*
X418352Y831764D01*
X417797Y832653D01*
X417797Y833542D01*
X418352Y834431D01*
X419463Y834875D01*
X425019Y834875D01*
X426130Y834431D01*
X426686Y833542D01*
X426686Y832653D01*
X426130Y831764D01*
X425019Y831320D01*
G54D10*
X419463Y828175D02*
X418352Y827731D01*
X417797Y826842D01*
X417797Y825953D01*
X418352Y825064D01*
X419463Y824620D01*
X420574Y824620D01*
X421686Y825064D01*
X422241Y825953D01*
X422241Y826842D01*
X422797Y827731D01*
X423908Y828175D01*
X425019Y828175D01*
X426130Y827731D01*
X426686Y826842D01*
X426686Y825953D01*
X426130Y825064D01*
X425019Y824620D01*
G54D10*
X419463Y817920D02*
X418352Y818364D01*
X417797Y819253D01*
X417797Y820142D01*
X418352Y821031D01*
X419463Y821475D01*
X425019Y821475D01*
X426130Y821031D01*
X426686Y820142D01*
X426686Y819253D01*
X426130Y818364D01*
X425019Y817920D01*
G54D10*
X417797Y811220D02*
X417797Y814775D01*
X418352Y814775D01*
X419463Y814331D01*
X422797Y811664D01*
X423908Y811220D01*
X425019Y811220D01*
X426130Y811664D01*
X426686Y812553D01*
X426686Y813442D01*
X426130Y814331D01*
X425019Y814775D01*
G54D10*
X410335Y826572D02*
X409224Y825239D01*
X408113Y824795D01*
X405890Y824795D01*
G54D10*
X405890Y828350D02*
X414779Y828350D01*
X414779Y826128D01*
X414224Y825239D01*
X413113Y824795D01*
X412002Y824795D01*
X410890Y825239D01*
X410335Y826128D01*
X410335Y828350D01*
G54D10*
X407557Y818095D02*
X406446Y818539D01*
X405890Y819428D01*
X405890Y820317D01*
X406446Y821206D01*
X407557Y821650D01*
X413113Y821650D01*
X414224Y821206D01*
X414779Y820317D01*
X414779Y819428D01*
X414224Y818539D01*
X413113Y818095D01*
G54D10*
X413113Y811395D02*
X407557Y811395D01*
X406446Y811839D01*
X405890Y812728D01*
X405890Y813617D01*
X406446Y814506D01*
X407557Y814950D01*
X413113Y814950D01*
X414224Y814506D01*
X414779Y813617D01*
X414779Y812728D01*
X414224Y811839D01*
X413113Y811395D01*
G54D10*
X398368Y825427D02*
X397257Y824093D01*
X396146Y823649D01*
X393924Y823649D01*
G54D10*
X393924Y827205D02*
X402813Y827205D01*
X402813Y824982D01*
X402257Y824093D01*
X401146Y823649D01*
X400035Y823649D01*
X398924Y824093D01*
X398368Y824982D01*
X398368Y827205D01*
G54D10*
X395590Y816949D02*
X394479Y817393D01*
X393924Y818282D01*
X393924Y819171D01*
X394479Y820060D01*
X395590Y820505D01*
X401146Y820505D01*
X402257Y820060D01*
X402813Y819171D01*
X402813Y818282D01*
X402257Y817393D01*
X401146Y816949D01*
G54D10*
X399479Y813805D02*
X402813Y811582D01*
X393924Y811582D01*
G54D10*
X386497Y867681D02*
X385386Y866348D01*
X384274Y865903D01*
X382052Y865903D01*
G54D10*
X382052Y869459D02*
X390941Y869459D01*
X390941Y867237D01*
X390386Y866348D01*
X389274Y865903D01*
X388163Y865903D01*
X387052Y866348D01*
X386497Y867237D01*
X386497Y869459D01*
G54D10*
X383719Y859203D02*
X382608Y859648D01*
X382052Y860537D01*
X382052Y861426D01*
X382608Y862314D01*
X383719Y862759D01*
X389274Y862759D01*
X390386Y862314D01*
X390941Y861426D01*
X390941Y860537D01*
X390386Y859648D01*
X389274Y859203D01*
G54D10*
X382052Y852503D02*
X382052Y856059D01*
X382608Y856059D01*
X383719Y855614D01*
X387052Y852948D01*
X388163Y852503D01*
X389274Y852503D01*
X390386Y852948D01*
X390941Y853837D01*
X390941Y854725D01*
X390386Y855614D01*
X389274Y856059D01*
G54D10*
X382052Y846159D02*
X390941Y842603D01*
G54D10*
X382052Y836259D02*
X390941Y836259D01*
X390941Y834037D01*
X390386Y833148D01*
X389274Y832703D01*
X388163Y832703D01*
X387052Y833148D01*
X386497Y834037D01*
X386497Y836259D01*
G54D10*
X390941Y829559D02*
X382052Y829559D01*
X387608Y827337D01*
X382052Y825114D01*
X390941Y825114D01*
G54D10*
X382052Y822059D02*
X390941Y822059D01*
X385386Y819837D01*
X390941Y817614D01*
X382052Y817614D01*
G54D10*
X387608Y814559D02*
X390941Y812337D01*
X382052Y812337D01*
G54D10*
X374649Y860939D02*
X373538Y859606D01*
X372427Y859161D01*
X370205Y859161D01*
G54D10*
X370205Y862717D02*
X379094Y862717D01*
X379094Y860495D01*
X378538Y859606D01*
X377427Y859161D01*
X376316Y859161D01*
X375205Y859606D01*
X374649Y860495D01*
X374649Y862717D01*
G54D10*
X371872Y852461D02*
X370760Y852906D01*
X370205Y853795D01*
X370205Y854684D01*
X370760Y855573D01*
X371872Y856017D01*
X377427Y856017D01*
X378538Y855573D01*
X379094Y854684D01*
X379094Y853795D01*
X378538Y852906D01*
X377427Y852461D01*
G54D10*
X377427Y849317D02*
X378538Y848873D01*
X379094Y847984D01*
X379094Y847095D01*
X378538Y846206D01*
X377427Y845761D01*
X376316Y845761D01*
X375205Y846206D01*
X374649Y847095D01*
X374094Y846206D01*
X372983Y845761D01*
X371872Y845761D01*
X370760Y846206D01*
X370205Y847095D01*
X370205Y847984D01*
X370760Y848873D01*
X371872Y849317D01*
G54D10*
X370205Y839417D02*
X379094Y835861D01*
G54D10*
X371872Y829517D02*
X370760Y829073D01*
X370205Y828184D01*
X370205Y827295D01*
X370760Y826406D01*
X371872Y825961D01*
X372983Y825961D01*
X374094Y826406D01*
X374649Y827295D01*
X374650Y828184D01*
X375205Y829073D01*
X376316Y829517D01*
X377427Y829517D01*
X378538Y829073D01*
X379094Y828184D01*
X379094Y827295D01*
X378538Y826406D01*
X377427Y825961D01*
G54D10*
X371872Y819261D02*
X370760Y819706D01*
X370205Y820595D01*
X370205Y821484D01*
X370760Y822373D01*
X371872Y822817D01*
X377427Y822817D01*
X378538Y822373D01*
X379094Y821484D01*
X379094Y820595D01*
X378538Y819706D01*
X377427Y819261D01*
G54D10*
X370205Y816117D02*
X379094Y816117D01*
G54D10*
X372983Y816117D02*
X379094Y812561D01*
G54D10*
X374649Y814784D02*
X370205Y812561D01*
G54D10*
X386466Y713972D02*
X385355Y712639D01*
X384244Y712195D01*
X382022Y712195D01*
G54D10*
X382022Y715750D02*
X390911Y715750D01*
X390911Y713528D01*
X390355Y712639D01*
X389244Y712195D01*
X388133Y712195D01*
X387022Y712639D01*
X386466Y713528D01*
X386466Y715750D01*
G54D10*
X383688Y705495D02*
X382577Y705939D01*
X382022Y706828D01*
X382022Y707717D01*
X382577Y708606D01*
X383688Y709050D01*
X389244Y709050D01*
X390355Y708606D01*
X390911Y707717D01*
X390911Y706828D01*
X390355Y705939D01*
X389244Y705495D01*
G54D10*
X382022Y699684D02*
X390911Y699684D01*
X385355Y702350D01*
X384244Y702350D01*
X384244Y698795D01*
G54D10*
X382022Y692450D02*
X390911Y688895D01*
G54D10*
X383688Y682550D02*
X382577Y682106D01*
X382022Y681217D01*
X382022Y680328D01*
X382577Y679439D01*
X383688Y678995D01*
X384800Y678995D01*
X385911Y679439D01*
X386466Y680328D01*
X386466Y681217D01*
X387022Y682106D01*
X388133Y682550D01*
X389244Y682550D01*
X390355Y682106D01*
X390911Y681217D01*
X390911Y680328D01*
X390355Y679439D01*
X389244Y678995D01*
G54D10*
X382022Y675850D02*
X390911Y675850D01*
X390911Y673628D01*
X390355Y672739D01*
X389244Y672295D01*
X383688Y672295D01*
X382577Y672739D01*
X382022Y673628D01*
X382022Y675850D01*
G54D10*
X382022Y669150D02*
X390911Y669150D01*
G54D10*
X398082Y714105D02*
X396971Y712772D01*
X395860Y712327D01*
X393638Y712327D01*
G54D10*
X393638Y715883D02*
X402527Y715883D01*
X402527Y713660D01*
X401971Y712772D01*
X400860Y712327D01*
X399749Y712327D01*
X398638Y712772D01*
X398082Y713660D01*
X398082Y715883D01*
G54D10*
X395304Y705627D02*
X394193Y706071D01*
X393638Y706960D01*
X393638Y707849D01*
X394193Y708738D01*
X395304Y709183D01*
X400860Y709183D01*
X401971Y708738D01*
X402527Y707849D01*
X402527Y706960D01*
X401971Y706071D01*
X400860Y705627D01*
G54D10*
X402527Y698927D02*
X402527Y702483D01*
X398638Y702483D01*
X398638Y702038D01*
X399193Y701149D01*
X399193Y700260D01*
X398638Y699372D01*
X397527Y698927D01*
X395304Y698927D01*
X394193Y699372D01*
X393638Y700260D01*
X393638Y701149D01*
X394193Y702038D01*
X395304Y702483D01*
G54D10*
X393638Y692583D02*
X402527Y689027D01*
G54D10*
X395304Y682683D02*
X394193Y682238D01*
X393638Y681349D01*
X393638Y680460D01*
X394193Y679572D01*
X395304Y679127D01*
X396416Y679127D01*
X397527Y679572D01*
X398082Y680460D01*
X398082Y681349D01*
X398638Y682238D01*
X399749Y682683D01*
X400860Y682683D01*
X401971Y682238D01*
X402527Y681349D01*
X402527Y680460D01*
X401971Y679572D01*
X400860Y679127D01*
G54D10*
X393638Y675983D02*
X402527Y675983D01*
X402527Y673760D01*
X401971Y672872D01*
X400860Y672427D01*
X395304Y672427D01*
X394193Y672872D01*
X393638Y673760D01*
X393638Y675983D01*
G54D10*
X400860Y665727D02*
X395304Y665727D01*
X394193Y666172D01*
X393638Y667060D01*
X393638Y667949D01*
X394193Y668838D01*
X395304Y669283D01*
X400860Y669283D01*
X401971Y668838D01*
X402527Y667949D01*
X402527Y667060D01*
X401971Y666171D01*
X400860Y665727D01*
G54D10*
X410216Y714331D02*
X409104Y712998D01*
X407993Y712553D01*
X405771Y712553D01*
G54D10*
X405771Y716109D02*
X414660Y716109D01*
X414660Y713887D01*
X414104Y712998D01*
X412993Y712553D01*
X411882Y712553D01*
X410771Y712998D01*
X410216Y713887D01*
X410216Y716109D01*
G54D10*
X407438Y705853D02*
X406327Y706298D01*
X405771Y707187D01*
X405771Y708076D01*
X406327Y708964D01*
X407438Y709409D01*
X412993Y709409D01*
X414104Y708964D01*
X414660Y708076D01*
X414660Y707187D01*
X414104Y706298D01*
X412993Y705853D01*
G54D10*
X412993Y699153D02*
X414104Y699598D01*
X414660Y700487D01*
X414660Y701376D01*
X414104Y702264D01*
X412993Y702709D01*
X410215Y702709D01*
X409660Y702709D01*
X410771Y701376D01*
X410771Y700487D01*
X410215Y699598D01*
X409104Y699153D01*
X407438Y699153D01*
X406327Y699598D01*
X405771Y700487D01*
X405771Y701376D01*
X406327Y702264D01*
X407438Y702709D01*
X410215Y702709D01*
G54D10*
X405771Y692809D02*
X414660Y689253D01*
G54D10*
X405771Y681131D02*
X414660Y681131D01*
G54D10*
X414660Y682909D02*
X414660Y679353D01*
G54D10*
X414660Y676209D02*
X405771Y671764D01*
G54D10*
X405771Y676209D02*
X414660Y671764D01*
G54D10*
X422118Y714314D02*
X421007Y712981D01*
X419896Y712536D01*
X417674Y712536D01*
G54D10*
X417674Y716092D02*
X426563Y716092D01*
X426563Y713870D01*
X426007Y712981D01*
X424896Y712536D01*
X423785Y712536D01*
X422674Y712981D01*
X422118Y713870D01*
X422118Y716092D01*
G54D10*
X419340Y705836D02*
X418229Y706281D01*
X417674Y707170D01*
X417674Y708059D01*
X418229Y708948D01*
X419340Y709392D01*
X424896Y709392D01*
X426007Y708948D01*
X426563Y708059D01*
X426563Y707170D01*
X426007Y706281D01*
X424896Y705836D01*
G54D10*
X426563Y702692D02*
X426563Y699136D01*
X425452Y699581D01*
X423785Y700470D01*
X421563Y701359D01*
X419896Y701803D01*
X417674Y701803D01*
G54D10*
X417674Y692792D02*
X426563Y689236D01*
G54D10*
X422118Y681114D02*
X421007Y679781D01*
X419896Y679336D01*
X417674Y679336D01*
G54D10*
X417674Y682892D02*
X426563Y682892D01*
X426563Y680670D01*
X426007Y679781D01*
X424896Y679336D01*
X423785Y679336D01*
X422674Y679781D01*
X422118Y680670D01*
X422118Y682892D01*
G54D10*
X426563Y676192D02*
X417674Y671748D01*
G54D10*
X417674Y676192D02*
X426563Y671748D01*
G54D10*
X434084Y714900D02*
X434084Y713122D01*
X431306Y713122D01*
X430195Y713566D01*
X429640Y714455D01*
X429640Y715344D01*
X430195Y716233D01*
X431306Y716678D01*
X436862Y716678D01*
X437973Y716233D01*
X438529Y715344D01*
X438529Y714455D01*
X437973Y713566D01*
X436862Y713122D01*
G54D10*
X429640Y709978D02*
X438529Y709978D01*
X429640Y706422D01*
X438529Y706422D01*
G54D10*
X429640Y703278D02*
X438529Y703278D01*
X438529Y701055D01*
X437973Y700166D01*
X436862Y699722D01*
X431306Y699722D01*
X430195Y700166D01*
X429640Y701055D01*
X429640Y703278D01*
G54D10*
X450425Y717067D02*
X441536Y714845D01*
X450425Y712623D01*
G54D10*
X441536Y709567D02*
X450425Y709567D01*
X450425Y707345D01*
X449870Y706456D01*
X448758Y706012D01*
X443203Y706012D01*
X442092Y706456D01*
X441536Y707345D01*
X441536Y709567D01*
G54D10*
X441536Y702867D02*
X450425Y702867D01*
X450425Y700645D01*
X449870Y699756D01*
X448758Y699312D01*
X443203Y699312D01*
X442092Y699756D01*
X441536Y700645D01*
X441536Y702867D01*
G54D10*
X457947Y714900D02*
X456836Y713566D01*
X455724Y713122D01*
X453502Y713122D01*
G54D10*
X453502Y716678D02*
X462391Y716678D01*
X462391Y714455D01*
X461836Y713566D01*
X460724Y713122D01*
X459613Y713122D01*
X458502Y713566D01*
X457947Y714455D01*
X457947Y716678D01*
G54D10*
X453502Y709978D02*
X462391Y709978D01*
X462391Y707755D01*
X461836Y706866D01*
X460724Y706422D01*
X459613Y706422D01*
X458502Y706866D01*
X457947Y707755D01*
X457391Y706866D01*
X456280Y706422D01*
X455169Y706422D01*
X454058Y706866D01*
X453502Y707755D01*
X453502Y709978D01*
G54D10*
X457947Y709978D02*
X457947Y707755D01*
G54D10*
X460724Y699722D02*
X455169Y699722D01*
X454058Y700166D01*
X453502Y701055D01*
X453502Y701944D01*
X454058Y702833D01*
X455169Y703278D01*
X460724Y703278D01*
X461836Y702833D01*
X462391Y701944D01*
X462391Y701055D01*
X461836Y700166D01*
X460724Y699722D01*
G54D10*
X469753Y714994D02*
X468642Y713660D01*
X467531Y713216D01*
X465308Y713216D01*
G54D10*
X465308Y716771D02*
X474197Y716771D01*
X474197Y714549D01*
X473642Y713660D01*
X472531Y713216D01*
X471420Y713216D01*
X470308Y713660D01*
X469753Y714549D01*
X469753Y716771D01*
G54D10*
X465308Y710071D02*
X474197Y710071D01*
X474197Y707849D01*
X473642Y706960D01*
X472531Y706516D01*
X471420Y706516D01*
X470308Y706960D01*
X469753Y707849D01*
X469197Y706960D01*
X468086Y706516D01*
X466975Y706516D01*
X465864Y706960D01*
X465308Y707849D01*
X465308Y710071D01*
G54D10*
X469753Y710071D02*
X469753Y707849D01*
G54D10*
X470864Y703371D02*
X474197Y701149D01*
X465308Y701149D01*
G54D10*
X481659Y714900D02*
X480548Y713566D01*
X479437Y713122D01*
X477215Y713122D01*
G54D10*
X477215Y716678D02*
X486104Y716678D01*
X486104Y714455D01*
X485548Y713566D01*
X484437Y713122D01*
X483326Y713122D01*
X482215Y713566D01*
X481659Y714455D01*
X481659Y716678D01*
G54D10*
X477215Y709978D02*
X486104Y709978D01*
X486104Y707755D01*
X485548Y706866D01*
X484437Y706422D01*
X483326Y706422D01*
X482215Y706866D01*
X481659Y707755D01*
X481104Y706866D01*
X479992Y706422D01*
X478881Y706422D01*
X477770Y706866D01*
X477215Y707755D01*
X477215Y709978D01*
G54D10*
X481659Y709978D02*
X481659Y707755D01*
G54D10*
X477215Y699722D02*
X477215Y703278D01*
X477770Y703278D01*
X478881Y702833D01*
X482215Y700166D01*
X483326Y699722D01*
X484437Y699722D01*
X485548Y700166D01*
X486104Y701055D01*
X486104Y701944D01*
X485548Y702833D01*
X484437Y703278D01*
G54D10*
X493616Y715012D02*
X492504Y713679D01*
X491393Y713234D01*
X489171Y713234D01*
G54D10*
X489171Y716790D02*
X498060Y716790D01*
X498060Y714568D01*
X497504Y713679D01*
X496393Y713235D01*
X495282Y713234D01*
X494171Y713679D01*
X493616Y714568D01*
X493616Y716790D01*
G54D10*
X489171Y710090D02*
X498060Y710090D01*
X498060Y707868D01*
X497504Y706979D01*
X496393Y706535D01*
X495282Y706535D01*
X494171Y706979D01*
X493616Y707868D01*
X493060Y706979D01*
X491949Y706534D01*
X490838Y706535D01*
X489726Y706979D01*
X489171Y707868D01*
X489171Y710090D01*
G54D10*
X493615Y710090D02*
X493616Y707868D01*
G54D10*
X496393Y703390D02*
X497504Y702946D01*
X498060Y702057D01*
X498060Y701168D01*
X497504Y700279D01*
X496393Y699835D01*
X495282Y699834D01*
X494171Y700279D01*
X493616Y701168D01*
X493060Y700279D01*
X491949Y699834D01*
X490838Y699835D01*
X489726Y700279D01*
X489171Y701168D01*
X489171Y702057D01*
X489726Y702946D01*
X490838Y703390D01*
G54D10*
X489171Y693490D02*
X498060Y689934D01*
G54D10*
X489171Y683590D02*
X498060Y683590D01*
X498060Y681368D01*
X497504Y680479D01*
X496393Y680035D01*
X495282Y680035D01*
X494171Y680479D01*
X493616Y681368D01*
X493615Y683590D01*
G54D10*
X498060Y676890D02*
X489171Y676890D01*
X494726Y674668D01*
X489171Y672446D01*
X498060Y672446D01*
G54D10*
X489171Y669390D02*
X498060Y669390D01*
X492504Y667168D01*
X498060Y664946D01*
X489171Y664946D01*
G54D10*
X489171Y658335D02*
X489171Y661890D01*
X489726Y661890D01*
X490838Y661446D01*
X494171Y658779D01*
X495282Y658334D01*
X496393Y658335D01*
X497504Y658779D01*
X498060Y659668D01*
X498060Y660557D01*
X497504Y661446D01*
X496393Y661890D01*
G54D10*
X505572Y714900D02*
X504461Y713566D01*
X503350Y713122D01*
X501127Y713122D01*
G54D10*
X501127Y716678D02*
X510016Y716678D01*
X510016Y714455D01*
X509461Y713566D01*
X508350Y713122D01*
X507238Y713122D01*
X506127Y713566D01*
X505572Y714455D01*
X505572Y716678D01*
G54D10*
X501127Y709978D02*
X510016Y709978D01*
X510016Y707755D01*
X509461Y706866D01*
X508350Y706422D01*
X507238Y706422D01*
X506127Y706866D01*
X505572Y707755D01*
X505016Y706866D01*
X503905Y706422D01*
X502794Y706422D01*
X501683Y706866D01*
X501127Y707755D01*
X501127Y709978D01*
G54D10*
X505572Y709978D02*
X505572Y707755D01*
G54D10*
X501127Y700611D02*
X510016Y700611D01*
X504461Y703278D01*
X503350Y703278D01*
X503350Y699722D01*
G54D10*
X517824Y714922D02*
X516713Y713589D01*
X515602Y713144D01*
X513380Y713144D01*
G54D10*
X513380Y716700D02*
X522269Y716700D01*
X522269Y714478D01*
X521713Y713589D01*
X520602Y713144D01*
X519491Y713144D01*
X518380Y713589D01*
X517824Y714478D01*
X517824Y716700D01*
G54D10*
X513380Y710000D02*
X522269Y710000D01*
X522269Y707778D01*
X521713Y706889D01*
X520602Y706444D01*
X519491Y706444D01*
X518380Y706889D01*
X517824Y707778D01*
X517269Y706889D01*
X516158Y706444D01*
X515047Y706444D01*
X513936Y706889D01*
X513380Y707778D01*
X513380Y710000D01*
G54D10*
X517824Y710000D02*
X517824Y707778D01*
G54D10*
X522269Y699744D02*
X522269Y703300D01*
X518380Y703300D01*
X518380Y702856D01*
X518936Y701967D01*
X518936Y701078D01*
X518380Y700189D01*
X517269Y699744D01*
X515047Y699744D01*
X513936Y700189D01*
X513380Y701078D01*
X513380Y701967D01*
X513936Y702856D01*
X515047Y703300D01*
G54D10*
X513380Y693400D02*
X522269Y689844D01*
G54D10*
X513380Y683500D02*
X522269Y683500D01*
X522269Y681278D01*
X521713Y680389D01*
X520602Y679944D01*
X519491Y679944D01*
X518380Y680389D01*
X517824Y681278D01*
X517824Y683500D01*
G54D10*
X517824Y675022D02*
X517824Y673245D01*
X515047Y673244D01*
X513936Y673689D01*
X513380Y674578D01*
X513380Y675467D01*
X513936Y676356D01*
X515047Y676800D01*
X520602Y676800D01*
X521713Y676356D01*
X522269Y675467D01*
X522269Y674578D01*
X521713Y673689D01*
X520602Y673244D01*
G54D10*
X513380Y670100D02*
X522269Y670100D01*
X516713Y667878D01*
X522269Y665656D01*
X513380Y665656D01*
G54D10*
X542091Y714459D02*
X540980Y713125D01*
X539869Y712681D01*
X537647Y712681D01*
G54D10*
X537647Y716236D02*
X546536Y716236D01*
X546536Y714014D01*
X545980Y713125D01*
X544869Y712681D01*
X543758Y712681D01*
X542647Y713125D01*
X542091Y714014D01*
X542091Y716236D01*
G54D10*
X537647Y709536D02*
X546536Y709536D01*
X546536Y707314D01*
X545980Y706425D01*
X544869Y705981D01*
X543758Y705981D01*
X542647Y706425D01*
X542091Y707314D01*
X541536Y706425D01*
X540425Y705981D01*
X539313Y705981D01*
X538202Y706425D01*
X537647Y707314D01*
X537647Y709536D01*
G54D10*
X542091Y709536D02*
X542091Y707314D01*
G54D10*
X546536Y702836D02*
X546536Y699281D01*
X545425Y699725D01*
X543758Y700614D01*
X541536Y701503D01*
X539869Y701948D01*
X537647Y701948D01*
G54D10*
X537647Y692936D02*
X546536Y689381D01*
G54D10*
X537647Y683036D02*
X546536Y683036D01*
X546536Y680814D01*
X545980Y679925D01*
X544869Y679481D01*
X543758Y679481D01*
X542647Y679925D01*
X542091Y680814D01*
X542091Y683036D01*
G54D10*
X542091Y674559D02*
X542091Y672781D01*
X539314Y672781D01*
X538202Y673225D01*
X537647Y674114D01*
X537647Y675003D01*
X538202Y675892D01*
X539314Y676336D01*
X544869Y676336D01*
X545980Y675892D01*
X546536Y675003D01*
X546536Y674114D01*
X545980Y673225D01*
X544869Y672781D01*
G54D10*
X537647Y669636D02*
X546536Y669636D01*
X546536Y667414D01*
X545980Y666525D01*
X544869Y666081D01*
X539313Y666081D01*
X538202Y666525D01*
X537647Y667414D01*
X537647Y669636D01*
G54D10*
X530210Y714484D02*
X529099Y713150D01*
X527988Y712706D01*
X525766Y712706D01*
G54D10*
X525766Y716261D02*
X534654Y716261D01*
X534654Y714039D01*
X534099Y713150D01*
X532988Y712706D01*
X531877Y712706D01*
X530766Y713150D01*
X530210Y714039D01*
X530210Y716261D01*
G54D10*
X525766Y709561D02*
X534654Y709561D01*
X534654Y707339D01*
X534099Y706450D01*
X532988Y706006D01*
X531877Y706006D01*
X530766Y706450D01*
X530210Y707339D01*
X529654Y706450D01*
X528543Y706006D01*
X527432Y706006D01*
X526321Y706450D01*
X525766Y707339D01*
X525766Y709561D01*
G54D10*
X530210Y709561D02*
X530210Y707339D01*
G54D10*
X532988Y699306D02*
X534099Y699750D01*
X534654Y700639D01*
X534654Y701528D01*
X534099Y702417D01*
X532988Y702861D01*
X530210Y702861D01*
X529654Y702861D01*
X530766Y701528D01*
X530766Y700639D01*
X530210Y699750D01*
X529099Y699306D01*
X527432Y699306D01*
X526321Y699750D01*
X525766Y700639D01*
X525766Y701528D01*
X526321Y702417D01*
X527432Y702861D01*
X530210Y702861D01*
G54D10*
X525766Y692961D02*
X534654Y689406D01*
G54D10*
X525766Y683061D02*
X534654Y683061D01*
X534654Y680839D01*
X534099Y679950D01*
X532988Y679506D01*
X531877Y679506D01*
X530766Y679950D01*
X530210Y680839D01*
X530210Y683061D01*
G54D10*
X530210Y674584D02*
X530210Y672806D01*
X527432Y672806D01*
X526321Y673250D01*
X525766Y674139D01*
X525766Y675028D01*
X526321Y675917D01*
X527432Y676361D01*
X532988Y676361D01*
X534099Y675917D01*
X534654Y675028D01*
X534654Y674139D01*
X534099Y673250D01*
X532988Y672806D01*
G54D10*
X527432Y666106D02*
X526321Y666550D01*
X525766Y667439D01*
X525766Y668328D01*
X526321Y669217D01*
X527432Y669661D01*
X532988Y669661D01*
X534099Y669217D01*
X534654Y668328D01*
X534654Y667439D01*
X534099Y666550D01*
X532988Y666106D01*
G54D17*
X576340Y800405D02*
X576340Y803605D01*
X577940Y803605D01*
X577940Y811505D01*
X574740Y811505D01*
X574740Y803605D01*
X576340Y803605D01*
G54D17*
X576340Y811505D02*
X576340Y814705D01*
G54D15*
X584288Y791627D02*
X584288Y822827D01*
X568688Y822827D01*
X568688Y791627D01*
X584288Y791627D01*
G54D15*
X593966Y842276D02*
X625166Y842276D01*
X625166Y857876D01*
X593967Y857876D01*
X593966Y842276D01*
G54D17*
X603862Y850118D02*
X614975Y850118D01*
G54D17*
X607037Y846943D02*
X607037Y853293D01*
G54D17*
X607037Y850118D02*
X611800Y853293D01*
X611800Y846943D01*
X607037Y850118D01*
G54D15*
X534146Y786067D02*
X534146Y754867D01*
X549746Y754867D01*
X549746Y786067D01*
X534146Y786067D01*
G54D17*
G75*
G01X541960Y774173D02*
G03X541960Y774173I0J-4000D01*
G01*
G54D15*
X577008Y752729D02*
X577008Y721529D01*
X592608Y721529D01*
X592609Y752729D01*
X577008Y752729D01*
G54D17*
G75*
G01X584821Y740836D02*
G03X584821Y740836I0J-4000D01*
G01*
G54D17*
X516237Y770372D02*
X516237Y763997D01*
G54D17*
X516237Y778310D02*
X516237Y772728D01*
G54D17*
X512314Y772387D02*
X519458Y772387D01*
G54D17*
X512314Y770800D02*
X519458Y770800D01*
G54D15*
X524012Y755463D02*
X524012Y786663D01*
X508412Y786663D01*
X508412Y755463D01*
X524012Y755463D01*
G54D11*
X313619Y928572D02*
X313619Y902572D01*
X363619Y902572D01*
X363619Y928572D01*
X313619Y928572D01*
G54D11*
X371561Y928572D02*
X371561Y902572D01*
X421561Y902572D01*
X421561Y928572D01*
X371561Y928572D01*
G54D11*
X585080Y889678D02*
X585080Y863678D01*
X635080Y863678D01*
X635080Y889678D01*
X585080Y889678D01*
G54D12*
X605857Y872234D02*
X602301Y872234D01*
X602301Y872789D01*
X602746Y873900D01*
X605412Y877234D01*
X605857Y878345D01*
X605857Y879456D01*
X605412Y880567D01*
X604523Y881123D01*
X603635Y881123D01*
X602746Y880567D01*
X602301Y879456D01*
G54D12*
X612524Y872234D02*
X608968Y872234D01*
X608968Y872789D01*
X609413Y873900D01*
X612079Y877234D01*
X612524Y878345D01*
X612524Y879456D01*
X612079Y880567D01*
X611190Y881123D01*
X610302Y881123D01*
X609413Y880567D01*
X608968Y879456D01*
G54D12*
X619191Y879456D02*
X619191Y873900D01*
X618746Y872789D01*
X617857Y872234D01*
X616969Y872234D01*
X616080Y872789D01*
X615635Y873900D01*
X615635Y879456D01*
X616080Y880567D01*
X616969Y881123D01*
X617857Y881123D01*
X618746Y880567D01*
X619191Y879456D01*
G54D12*
X624080Y876678D02*
X625413Y875567D01*
X625858Y874456D01*
X625858Y872234D01*
G54D12*
X622302Y872234D02*
X622302Y881123D01*
X624524Y881123D01*
X625413Y880567D01*
X625858Y879456D01*
X625858Y878345D01*
X625413Y877234D01*
X624524Y876678D01*
X622302Y876678D01*
G54D11*
X722420Y667930D02*
X722420Y693930D01*
X672420Y693930D01*
X672420Y667930D01*
X722420Y667930D01*
G54D14*
X281862Y609449D02*
X282974Y613893D01*
X284085Y609449D01*
G54D14*
X282307Y611115D02*
X283640Y611115D01*
G54D14*
X287418Y610282D02*
X287196Y609726D01*
X286752Y609448D01*
X286307Y609449D01*
X285863Y609726D01*
X285640Y610282D01*
X285640Y613060D01*
X285862Y613615D01*
X286307Y613893D01*
X286752Y613893D01*
X287196Y613615D01*
X287418Y613060D01*
G54D14*
X289863Y609449D02*
X289863Y613893D01*
G54D14*
X288974Y613893D02*
X290752Y613893D01*
G54D14*
X292308Y609449D02*
X292308Y613893D01*
G54D14*
X293864Y613893D02*
X294976Y609449D01*
X296087Y613893D01*
G54D14*
X299198Y609449D02*
X297642Y609449D01*
X297642Y613893D01*
X299198Y613893D01*
G54D14*
X297642Y611671D02*
X299198Y611671D01*
G54D15*
X298041Y766514D02*
X275979Y788576D01*
X264948Y777545D01*
X287010Y755484D01*
X298041Y766514D01*
G54D17*
G75*
G01X284105Y769400D02*
G03X284105Y769400I-2828J2829D01*
G01*
G54D15*
X337386Y801696D02*
X337386Y770496D01*
X352986Y770496D01*
X352986Y801696D01*
X337386Y801696D01*
G54D17*
G75*
G01X345197Y789803D02*
G03X345197Y789803I0J-4000D01*
G01*
G54D15*
X364373Y801696D02*
X364373Y770496D01*
X379973Y770496D01*
X379973Y801696D01*
X364373Y801696D01*
G54D17*
G75*
G01X372186Y789803D02*
G03X372186Y789803I0J-4000D01*
G01*
G54D15*
X333759Y730795D02*
X311697Y752857D01*
X300666Y741826D01*
X322728Y719764D01*
X333759Y730795D01*
G54D17*
G75*
G01X319825Y733681D02*
G03X319825Y733681I-2829J2829D01*
G01*
G54D11*
X319168Y618029D02*
X319168Y640029D01*
X269168Y640029D01*
X269168Y618029D01*
X319168Y618029D01*
G54D17*
X300388Y629071D02*
X289275Y629071D01*
G54D17*
X297213Y632245D02*
X297213Y625896D01*
G54D17*
X297213Y629070D02*
X292450Y625896D01*
X292450Y632246D01*
X297213Y629070D01*
G54D14*
X475361Y642217D02*
X476028Y641661D01*
X476250Y641106D01*
X476250Y639995D01*
G54D14*
X474472Y639995D02*
X474472Y644439D01*
X475584Y644439D01*
X476028Y644161D01*
X476250Y643606D01*
X476250Y643050D01*
X476028Y642495D01*
X475584Y642217D01*
X474472Y642217D01*
G54D14*
X477806Y639995D02*
X477806Y644439D01*
X478918Y644439D01*
X479362Y644161D01*
X479584Y643606D01*
X479584Y640828D01*
X479362Y640272D01*
X478918Y639995D01*
X477806Y639995D01*
G54D14*
X481140Y644439D02*
X482252Y642217D01*
X482252Y639995D01*
G54D14*
X482252Y642217D02*
X483363Y644439D01*
G54D14*
X484918Y639995D02*
X484918Y644439D01*
X486696Y639995D01*
X486696Y644439D01*
G54D14*
X306248Y823060D02*
X306248Y827505D01*
X307359Y827505D01*
X307804Y827227D01*
X308026Y826671D01*
X308026Y826116D01*
X307804Y825560D01*
X307359Y825283D01*
X306248Y825283D01*
G54D14*
X309582Y827505D02*
X309582Y823060D01*
X310693Y825838D01*
X311804Y823060D01*
X311804Y827505D01*
G54D14*
X313360Y823060D02*
X313360Y827505D01*
X314471Y824727D01*
X315582Y827505D01*
X315582Y823060D01*
G54D14*
X318916Y823060D02*
X317138Y823060D01*
X317138Y823338D01*
X317360Y823894D01*
X318694Y825560D01*
X318916Y826116D01*
X318916Y826671D01*
X318694Y827227D01*
X318249Y827505D01*
X317805Y827505D01*
X317360Y827227D01*
X317138Y826671D01*
G54D11*
X351717Y669810D02*
X351717Y643810D01*
X401717Y643810D01*
X401717Y669809D01*
X351717Y669810D01*
G54D12*
X353384Y657921D02*
X355606Y661254D01*
X355606Y652365D01*
G54D12*
X362273Y659587D02*
X362273Y654032D01*
X361828Y652921D01*
X360939Y652365D01*
X360050Y652365D01*
X359162Y652921D01*
X358717Y654032D01*
X358717Y659587D01*
X359162Y660698D01*
X360050Y661254D01*
X360939Y661254D01*
X361828Y660698D01*
X362273Y659587D01*
G54D12*
X365384Y652365D02*
X365384Y661254D01*
G54D12*
X365384Y655143D02*
X368940Y661254D01*
G54D12*
X366718Y656810D02*
X368940Y652365D01*
G54D11*
X39800Y820607D02*
X39800Y842607D01*
X1800Y842607D01*
X1800Y820607D01*
X39800Y820607D01*
G54D12*
X8655Y831446D02*
X10877Y834780D01*
X10877Y825891D01*
G54D12*
X13988Y825891D02*
X13988Y825891D01*
G54D12*
X20655Y825891D02*
X17099Y825891D01*
X17099Y826446D01*
X17544Y827558D01*
X20210Y830891D01*
X20655Y832002D01*
X20655Y833113D01*
X20210Y834224D01*
X19321Y834780D01*
X18432Y834780D01*
X17544Y834224D01*
X17099Y833113D01*
G54D12*
X23766Y830891D02*
X23766Y823669D01*
G54D12*
X23766Y827558D02*
X24211Y826113D01*
X25100Y825891D01*
X25988Y826113D01*
X26433Y827224D01*
X26433Y829446D01*
X25988Y830558D01*
X25100Y830891D01*
X24211Y830558D01*
X23766Y829224D01*
G54D12*
X29544Y825891D02*
X29544Y834780D01*
X32655Y834780D01*
G54D12*
X29544Y830335D02*
X32655Y830335D01*
G54D11*
X57534Y639741D02*
X31534Y639741D01*
X31534Y589740D01*
X57534Y589740D01*
X57534Y639741D01*
G54D11*
X25387Y639741D02*
X-613Y639741D01*
X-613Y589740D01*
X25387Y589740D01*
X25387Y639741D01*
G54D11*
X695055Y786452D02*
X695055Y821452D01*
X760055Y821452D01*
X760055Y786452D01*
X695055Y786452D01*
G54D12*
X711685Y811615D02*
X711685Y802726D01*
X714796Y802726D01*
G54D12*
X717907Y802726D02*
X717907Y811615D01*
X720129Y806060D01*
X722351Y811615D01*
X722351Y802726D01*
G54D12*
X725462Y809949D02*
X725906Y811060D01*
X726795Y811615D01*
X727684Y811615D01*
X728573Y811060D01*
X729017Y809949D01*
X729017Y808838D01*
X728573Y807726D01*
X727684Y807171D01*
X728573Y806615D01*
X729017Y805504D01*
X729017Y804393D01*
X728573Y803282D01*
X727684Y802726D01*
X726795Y802726D01*
X725906Y803282D01*
X725462Y804393D01*
G54D12*
X732129Y804393D02*
X732573Y803282D01*
X733462Y802726D01*
X734351Y802726D01*
X735240Y803282D01*
X735684Y804393D01*
X735684Y807171D01*
X735684Y807726D01*
X734351Y806615D01*
X733462Y806615D01*
X732573Y807171D01*
X732129Y808282D01*
X732129Y809949D01*
X732573Y811060D01*
X733462Y811615D01*
X734351Y811615D01*
X735240Y811060D01*
X735684Y809949D01*
X735684Y807171D01*
G54D12*
X741462Y802726D02*
X741462Y811615D01*
X738796Y806060D01*
X738796Y804949D01*
X742351Y804949D01*
G54D12*
X749018Y809949D02*
X749018Y804393D01*
X748574Y803282D01*
X747685Y802726D01*
X746796Y802726D01*
X745907Y803282D01*
X745463Y804393D01*
X745463Y809949D01*
X745907Y811060D01*
X746796Y811615D01*
X747685Y811615D01*
X748574Y811060D01*
X749018Y809949D01*
G54D11*
X744730Y851823D02*
X744730Y865823D01*
X709730Y865823D01*
X709730Y851823D01*
X744730Y851823D01*
G36*
X744730Y851823D02*
X744730Y865823D01*
X734730Y865823D01*
X734730Y851823D01*
X744730Y851823D01*
G37*
G54D15*
X744730Y851823D02*
X744730Y865823D01*
X734730Y865823D01*
X734730Y851823D01*
X744730Y851823D01*
G54D12*
X718525Y840390D02*
X720748Y843723D01*
X720748Y834834D01*
G54D12*
X723858Y834834D02*
X723858Y843723D01*
X727414Y834834D01*
X727414Y843723D01*
G54D12*
X733192Y834834D02*
X733192Y843723D01*
X730525Y838168D01*
X730525Y837057D01*
X734081Y837057D01*
G54D12*
X737192Y840390D02*
X739415Y843723D01*
X739415Y834834D01*
G54D12*
X745192Y834834D02*
X745192Y843723D01*
X742525Y838168D01*
X742525Y837057D01*
X746081Y837057D01*
G54D12*
X751415Y839279D02*
X750526Y839279D01*
X749637Y839834D01*
X749192Y840946D01*
X749192Y842057D01*
X749637Y843168D01*
X750526Y843723D01*
X751415Y843723D01*
X752304Y843168D01*
X752748Y842057D01*
X752748Y840946D01*
X752304Y839834D01*
X751415Y839279D01*
X752304Y838723D01*
X752748Y837612D01*
X752748Y836501D01*
X752304Y835390D01*
X751415Y834834D01*
X750526Y834834D01*
X749637Y835390D01*
X749192Y836501D01*
X749192Y837612D01*
X749637Y838723D01*
X750526Y839279D01*
G54D11*
X793266Y861132D02*
X767266Y861132D01*
X767266Y811132D01*
X793266Y811132D01*
X793266Y861132D01*
G54D12*
X767572Y834315D02*
X767572Y843204D01*
X764905Y837648D01*
X764905Y836537D01*
X768461Y836537D01*
G54D12*
X771572Y843204D02*
X775128Y843204D01*
X774683Y842093D01*
X773794Y840426D01*
X772906Y838204D01*
X772461Y836537D01*
X772461Y834315D01*
G54D12*
X781795Y841537D02*
X781795Y835981D01*
X781350Y834870D01*
X780461Y834315D01*
X779573Y834315D01*
X778684Y834870D01*
X778239Y835981D01*
X778239Y841537D01*
X778684Y842648D01*
X779573Y843204D01*
X780461Y843204D01*
X781350Y842648D01*
X781795Y841537D01*
G54D12*
X784906Y834315D02*
X784906Y839315D01*
G54D12*
X784906Y838204D02*
X785351Y838981D01*
X786240Y839315D01*
X787128Y838981D01*
X787573Y838204D01*
X787573Y834315D01*
G54D12*
X790684Y834315D02*
X790684Y843204D01*
X793795Y843204D01*
G54D12*
X790684Y838759D02*
X793795Y838759D01*
G54D11*
X674979Y863636D02*
X688979Y863636D01*
X688979Y898636D01*
X674979Y898636D01*
X674979Y863636D01*
G36*
X674979Y863636D02*
X688979Y863636D01*
X688979Y873636D01*
X674979Y873636D01*
X674979Y863636D01*
G37*
G54D15*
X674979Y863636D02*
X688979Y863636D01*
X688979Y873636D01*
X674979Y873636D01*
X674979Y863636D01*
G54D12*
X661323Y855535D02*
X657990Y857757D01*
X666879Y857757D01*
G54D12*
X666879Y860868D02*
X657990Y860868D01*
X666879Y864423D01*
X657990Y864423D01*
G54D12*
X666879Y870201D02*
X657990Y870201D01*
X663545Y867535D01*
X664656Y867535D01*
X664656Y871090D01*
G54D12*
X661323Y874202D02*
X657990Y876424D01*
X666879Y876424D01*
G54D12*
X666879Y882201D02*
X657990Y882201D01*
X663545Y879535D01*
X664656Y879535D01*
X664656Y883090D01*
G54D12*
X662434Y888424D02*
X662434Y887535D01*
X661879Y886646D01*
X660767Y886202D01*
X659656Y886202D01*
X658545Y886646D01*
X657990Y887535D01*
X657990Y888424D01*
X658545Y889313D01*
X659656Y889757D01*
X660767Y889757D01*
X661879Y889313D01*
X662434Y888424D01*
X662990Y889313D01*
X664101Y889757D01*
X665212Y889757D01*
X666323Y889313D01*
X666879Y888424D01*
X666879Y887535D01*
X666323Y886646D01*
X665212Y886202D01*
X664101Y886202D01*
X662990Y886646D01*
X662434Y887535D01*
G54D11*
X648128Y763190D02*
X691178Y763190D01*
X691178Y804171D01*
X648128Y804172D01*
X648128Y763190D01*
G54D18*
G75*
G01X669628Y763790D02*
G03X669628Y763790I0J19800D01*
G01*
M02*
