%FSLAX34Y34*%
%MOMM*%
%LNCOPPER_BOTTOM*%
G71*
G01*
%ADD10C, 0.10*%
%ADD11C, 0.20*%
%LPD*%
G54D10*
X148112Y711108D02*
X144937Y713886D01*
X144937Y761114D01*
X194943Y761114D01*
X194943Y711108D01*
X148112Y711108D01*
G54D10*
X610060Y836688D02*
X603760Y830388D01*
X603760Y817588D01*
X610060Y811288D01*
X622860Y811288D01*
X629160Y817588D01*
X629160Y830388D01*
X622860Y836688D01*
X610060Y836688D01*
G54D10*
X610060Y811288D02*
X603760Y804988D01*
X603760Y792188D01*
X610060Y785888D01*
X622860Y785888D01*
X629160Y792188D01*
X629160Y804988D01*
X622860Y811288D01*
X610060Y811288D01*
G54D10*
X610060Y785888D02*
X603760Y779588D01*
X603760Y766788D01*
X610060Y760488D01*
X622860Y760488D01*
X629160Y766788D01*
X629160Y779588D01*
X622860Y785888D01*
X610060Y785888D01*
G54D10*
X610060Y760488D02*
X603760Y754188D01*
X603760Y741388D01*
X610060Y735088D01*
X622860Y735088D01*
X629160Y741388D01*
X629160Y754188D01*
X622860Y760488D01*
X610060Y760488D01*
G54D10*
X610060Y735088D02*
X603760Y728788D01*
X603760Y715988D01*
X610060Y709688D01*
X622860Y709688D01*
X629160Y715988D01*
X629160Y728788D01*
X622860Y735088D01*
X610060Y735088D01*
G54D10*
X610060Y709688D02*
X603760Y703388D01*
X603760Y690588D01*
X610060Y684288D01*
X622860Y684288D01*
X629160Y690588D01*
X629160Y703388D01*
X622860Y709688D01*
X610060Y709688D01*
G54D10*
X397719Y899511D02*
X337418Y899511D01*
G54D10*
G75*
G01X397619Y855111D02*
G03X397619Y899511I0J22200D01*
G01*
G54D10*
G75*
G01X337519Y899511D02*
G03X337519Y855111I0J-22200D01*
G01*
G54D10*
X398280Y855171D02*
X337980Y855171D01*
G54D11*
X480724Y647552D02*
X474324Y647552D01*
X468024Y641252D01*
X468024Y628452D01*
X474324Y622152D01*
X487124Y622152D01*
X493424Y628452D01*
X493424Y641252D01*
X487124Y647552D01*
X480724Y647552D01*
G54D11*
X506124Y647552D02*
X499724Y647552D01*
X493424Y641252D01*
X493424Y628452D01*
X499724Y622152D01*
X512524Y622152D01*
X518824Y628452D01*
X518824Y641252D01*
X512524Y647552D01*
X506124Y647552D01*
G54D11*
X531524Y647552D02*
X525124Y647552D01*
X518824Y641252D01*
X518824Y628452D01*
X525124Y622152D01*
X537924Y622152D01*
X544224Y628452D01*
X544224Y641252D01*
X537924Y647552D01*
X531524Y647552D01*
G54D11*
X556924Y647552D02*
X550524Y647552D01*
X544224Y641252D01*
X544224Y628452D01*
X550524Y622152D01*
X563324Y622152D01*
X569624Y628452D01*
X569624Y641252D01*
X563324Y647552D01*
X556924Y647552D01*
G54D11*
X582324Y647552D02*
X575924Y647552D01*
X569624Y641252D01*
X569624Y628452D01*
X575924Y622152D01*
X588725Y622152D01*
X595025Y628452D01*
X595025Y641252D01*
X588725Y647552D01*
X582324Y647552D01*
G54D11*
X607725Y647552D02*
X601325Y647552D01*
X595025Y641252D01*
X595025Y628452D01*
X601325Y622152D01*
X614125Y622152D01*
X620425Y628452D01*
X620425Y641252D01*
X614125Y647552D01*
X607725Y647552D01*
G54D11*
X633125Y647552D02*
X626725Y647552D01*
X620425Y641252D01*
X620425Y628452D01*
X626725Y622152D01*
X639525Y622152D01*
X645825Y628452D01*
X645825Y641252D01*
X639525Y647552D01*
X633125Y647552D01*
G54D11*
X658525Y647552D02*
X652125Y647552D01*
X645825Y641252D01*
X645825Y628452D01*
X652125Y622152D01*
X664925Y622152D01*
X671225Y628452D01*
X671225Y641252D01*
X664925Y647552D01*
X658525Y647552D01*
G54D11*
X429924Y647552D02*
X423524Y647552D01*
X417224Y641252D01*
X417224Y628452D01*
X423524Y622152D01*
X436324Y622152D01*
X442624Y628452D01*
X442624Y641252D01*
X436324Y647552D01*
X429924Y647552D01*
G54D11*
X455324Y647552D02*
X448924Y647552D01*
X442624Y641252D01*
X442624Y628452D01*
X448924Y622152D01*
X461724Y622152D01*
X468024Y628452D01*
X468024Y641252D01*
X461724Y647552D01*
X455324Y647552D01*
G54D11*
X480724Y647552D02*
X474324Y647552D01*
X468024Y641252D01*
X468024Y628452D01*
X474324Y622152D01*
X487124Y622152D01*
X493424Y628452D01*
X493424Y641252D01*
X487124Y647552D01*
X480724Y647552D01*
G54D11*
X464056Y884883D02*
X457656Y884883D01*
X451356Y878583D01*
X451356Y865783D01*
X457656Y859483D01*
X470456Y859483D01*
X476756Y865783D01*
X476756Y878583D01*
X470456Y884883D01*
X464056Y884883D01*
G54D11*
X489456Y884883D02*
X483056Y884883D01*
X476756Y878583D01*
X476756Y865783D01*
X483056Y859483D01*
X495856Y859483D01*
X502156Y865783D01*
X502156Y878583D01*
X495856Y884883D01*
X489456Y884883D01*
G54D11*
X514856Y884883D02*
X508456Y884883D01*
X502156Y878583D01*
X502156Y865783D01*
X508456Y859483D01*
X521256Y859483D01*
X527556Y865783D01*
X527556Y878583D01*
X521256Y884883D01*
X514856Y884883D01*
G54D11*
X540256Y884883D02*
X533856Y884883D01*
X527556Y878583D01*
X527556Y865783D01*
X533856Y859483D01*
X546656Y859483D01*
X552956Y865783D01*
X552956Y878583D01*
X546656Y884883D01*
X540256Y884883D01*
G54D11*
X565656Y884883D02*
X559256Y884883D01*
X552956Y878583D01*
X552956Y865783D01*
X559256Y859483D01*
X572056Y859483D01*
X578356Y865783D01*
X578356Y878583D01*
X572056Y884883D01*
X565656Y884883D01*
G54D11*
X305555Y700188D02*
X301030Y704714D01*
X292120Y704714D01*
X283069Y695663D01*
X283069Y686753D01*
X292120Y677702D01*
X301030Y677702D01*
X310081Y686753D01*
X310081Y695663D01*
X305555Y700188D01*
G54D11*
X250511Y673985D02*
X244111Y673985D01*
X237811Y667685D01*
X237811Y654885D01*
X244111Y648585D01*
X256911Y648585D01*
X263211Y654885D01*
X263211Y667685D01*
X256911Y673985D01*
X250511Y673985D01*
G54D11*
X321430Y809228D02*
X325955Y813753D01*
X325955Y822663D01*
X316904Y831714D01*
X307994Y831714D01*
X298944Y822663D01*
X298944Y813753D01*
X307994Y804702D01*
X316904Y804702D01*
X321430Y809228D01*
G54D10*
X7244Y753916D02*
X7243Y693615D01*
G54D10*
G75*
G01X51643Y753816D02*
G03X7243Y753816I-22200J0D01*
G01*
G54D10*
G75*
G01X7243Y693716D02*
G03X51643Y693716I22200J0D01*
G01*
G54D10*
X51584Y754477D02*
X51583Y694177D01*
G54D11*
X723185Y734671D02*
X716785Y734671D01*
X710485Y728371D01*
X710485Y715571D01*
X716785Y709271D01*
X729585Y709271D01*
X735885Y715571D01*
X735885Y728371D01*
X729585Y734671D01*
X723185Y734671D01*
G54D11*
X748585Y734671D02*
X742185Y734671D01*
X735885Y728371D01*
X735885Y715571D01*
X742185Y709271D01*
X754985Y709271D01*
X761285Y715571D01*
X761285Y728371D01*
X754985Y734671D01*
X748585Y734671D01*
M02*
