%FSLAX34Y34*%
%MOMM*%
%LNSILK_TOP*%
G71*
G01*
%ADD10R, 4.20X4.20*%
%ADD11R, 2.40X1.52*%
%ADD12R, 1.52X2.40*%
%ADD13C, 1.50*%
%ADD14R, 3.20X2.80*%
%ADD15R, 2.80X3.20*%
%ADD16R, 2.80X2.50*%
%ADD17C, 1.80*%
%ADD18R, 2.50X2.80*%
%ADD19C, 2.60*%
%ADD20C, 1.60*%
%ADD21C, 0.10*%
%ADD22R, 1.42X3.20*%
%ADD23R, 4.20X2.70*%
%ADD24C, 2.20*%
%ADD25R, 3.00X2.50*%
%ADD26R, 2.70X4.20*%
%ADD27C, 0.30*%
%ADD28C, 0.91*%
%ADD29C, 0.59*%
%ADD30C, 3.10*%
%ADD31C, 2.20*%
%ADD32C, 1.20*%
%ADD33R, 2.80X2.80*%
%ADD34C, 1.70*%
%ADD35C, 2.10*%
%ADD36R, 2.20X5.20*%
%ADD37C, 1.30*%
%ADD38R, 4.70X2.60*%
%ADD39R, 2.50X3.20*%
%ADD40R, 3.20X2.50*%
%ADD41R, 2.60X4.20*%
%ADD42R, 3.20X5.20*%
%ADD43C, 0.79*%
%ADD44C, 0.76*%
%ADD45C, 1.35*%
%ADD46C, 1.00*%
%ADD47C, 1.01*%
%ADD48C, 1.39*%
%ADD49C, 1.40*%
%ADD50C, 0.82*%
%ADD51C, 2.00*%
%ADD52R, 3.00X3.00*%
%ADD53R, 1.20X0.32*%
%ADD54R, 0.32X1.20*%
%ADD55R, 2.00X1.60*%
%ADD56R, 1.60X2.00*%
%ADD57R, 1.60X1.30*%
%ADD58C, 0.60*%
%ADD59R, 1.30X1.60*%
%ADD60C, 0.40*%
%ADD61R, 0.22X2.00*%
%ADD62R, 3.00X1.50*%
%ADD63C, 1.00*%
%ADD64R, 1.80X1.30*%
%ADD65R, 1.50X3.00*%
%ADD66C, 0.31*%
%ADD67C, 0.19*%
%ADD68C, 1.90*%
%ADD69R, 1.60X1.60*%
%ADD70C, 0.50*%
%ADD71C, 0.90*%
%ADD72R, 1.00X4.00*%
%ADD73R, 3.50X1.40*%
%ADD74R, 1.30X2.00*%
%ADD75R, 2.00X1.30*%
%ADD76R, 1.40X3.00*%
%ADD77R, 2.00X4.00*%
%LPD*%
G36*
X0Y1000000D02*
X900000Y1000000D01*
X900000Y546000D01*
X0Y546000D01*
X0Y1000000D01*
G37*
%LPC*%
X170612Y735714D02*
G54D10*
D03*
X141449Y718775D02*
G54D11*
D03*
X141449Y723775D02*
G54D11*
D03*
X141449Y728775D02*
G54D11*
D03*
X141449Y733775D02*
G54D11*
D03*
X141449Y738775D02*
G54D11*
D03*
X141449Y743775D02*
G54D11*
D03*
X141449Y748775D02*
G54D11*
D03*
X141449Y753775D02*
G54D11*
D03*
X152768Y764400D02*
G54D12*
D03*
X157768Y764400D02*
G54D12*
D03*
X162768Y764400D02*
G54D12*
D03*
X167768Y764400D02*
G54D12*
D03*
X172768Y764400D02*
G54D12*
D03*
X177768Y764400D02*
G54D12*
D03*
X182768Y764400D02*
G54D12*
D03*
X187768Y764399D02*
G54D12*
D03*
X198393Y753775D02*
G54D11*
D03*
X198393Y748775D02*
G54D11*
D03*
X198393Y743775D02*
G54D11*
D03*
X198393Y738775D02*
G54D11*
D03*
X198393Y733775D02*
G54D11*
D03*
X198393Y728775D02*
G54D11*
D03*
X198393Y723774D02*
G54D11*
D03*
X198393Y718774D02*
G54D11*
D03*
X187768Y708150D02*
G54D12*
D03*
X182768Y708150D02*
G54D12*
D03*
X177768Y708150D02*
G54D12*
D03*
X172768Y708150D02*
G54D12*
D03*
X167768Y708150D02*
G54D12*
D03*
X162768Y708150D02*
G54D12*
D03*
X157768Y708150D02*
G54D12*
D03*
X152768Y708150D02*
G54D12*
D03*
G54D13*
X187893Y709376D02*
X187893Y718108D01*
X183131Y722870D01*
G54D13*
X187893Y760177D02*
X187893Y754620D01*
X182337Y749064D01*
G54D13*
X183131Y760177D02*
X183131Y750652D01*
G54D13*
X145031Y723664D02*
X156937Y723664D01*
G54D13*
X145031Y728427D02*
X157731Y728426D01*
G54D13*
X157731Y761764D02*
X157731Y743508D01*
X133036Y657316D02*
G54D14*
D03*
X133036Y629316D02*
G54D14*
D03*
X133040Y629318D02*
G54D14*
D03*
X162405Y657316D02*
G54D14*
D03*
X162405Y629316D02*
G54D14*
D03*
X162404Y629316D02*
G54D14*
D03*
X193361Y657316D02*
G54D14*
D03*
X193361Y629316D02*
G54D14*
D03*
X193358Y629315D02*
G54D14*
D03*
G36*
X237011Y677285D02*
X264011Y677285D01*
X264011Y645285D01*
X237011Y645285D01*
X237011Y677285D01*
G37*
G54D13*
X152768Y708150D02*
X152768Y703242D01*
X133036Y683510D01*
X133036Y657316D01*
G54D13*
X157642Y705735D02*
X157642Y662078D01*
X162405Y657316D01*
G54D13*
X162768Y708150D02*
X162768Y687909D01*
X193361Y657316D01*
G36*
X206636Y719641D02*
X234636Y719641D01*
X234636Y687641D01*
X206636Y687641D01*
X206636Y719641D01*
G37*
X248636Y703641D02*
G54D15*
D03*
X99684Y659280D02*
G54D16*
D03*
X99684Y678280D02*
G54D16*
D03*
X89578Y615415D02*
G54D16*
D03*
X89578Y634415D02*
G54D16*
D03*
G54D13*
X141449Y718775D02*
X136551Y718775D01*
X99684Y678280D01*
X70634Y660882D02*
G54D14*
D03*
X70634Y688882D02*
G54D14*
D03*
G54D17*
X156054Y726372D02*
X138592Y726372D01*
G36*
X156054Y717372D02*
X156055Y735372D01*
X165055Y735372D01*
X165054Y717372D01*
X156054Y717372D01*
G37*
G36*
X138592Y735372D02*
X138592Y717372D01*
X129592Y717372D01*
X129592Y735372D01*
X138592Y735372D01*
G37*
G54D13*
X138592Y726372D02*
X134623Y726372D01*
X104461Y696210D01*
X78070Y696210D01*
X70634Y688882D01*
X125098Y798822D02*
G54D14*
D03*
X125098Y770822D02*
G54D14*
D03*
G54D13*
X141449Y753774D02*
X141449Y754472D01*
X125098Y770822D01*
G54D13*
X157768Y764400D02*
X157768Y790540D01*
X149486Y798822D01*
X125098Y798822D01*
G36*
X84767Y750138D02*
X64969Y769937D01*
X87597Y792564D01*
X107395Y772765D01*
X84767Y750138D01*
G37*
G36*
X64969Y769937D02*
X45170Y789736D01*
X67797Y812363D01*
X87596Y792564D01*
X64969Y769937D01*
G37*
G36*
X67806Y812361D02*
X87605Y792562D01*
X64978Y769935D01*
X45179Y789734D01*
X67806Y812361D01*
G37*
X174266Y831432D02*
G54D18*
D03*
X155266Y831432D02*
G54D18*
D03*
X130242Y831402D02*
G54D18*
D03*
X111242Y831402D02*
G54D18*
D03*
G54D17*
X155266Y831432D02*
X130669Y831432D01*
X130639Y831402D01*
G54D13*
X162768Y764400D02*
X162768Y803003D01*
X155261Y810510D01*
X155266Y831432D01*
G54D13*
X167768Y764400D02*
X167768Y803173D01*
X175104Y810510D01*
X175105Y830594D01*
X174266Y831432D01*
X56568Y831391D02*
G54D15*
D03*
X84568Y831391D02*
G54D15*
D03*
X193214Y863727D02*
G54D18*
D03*
X174214Y863727D02*
G54D18*
D03*
G54D17*
X174266Y831432D02*
X174266Y863675D01*
X174214Y863727D01*
G54D13*
X172768Y764400D02*
X172768Y793886D01*
X193361Y814479D01*
X193361Y863580D01*
X193214Y863727D01*
X248666Y847239D02*
G54D15*
D03*
X220666Y847239D02*
G54D15*
D03*
X248666Y879783D02*
G54D15*
D03*
X220666Y879783D02*
G54D15*
D03*
X248670Y847238D02*
G54D15*
D03*
X248670Y879788D02*
G54D15*
D03*
G54D19*
X194801Y863727D02*
X221106Y863727D01*
G36*
X194801Y876727D02*
X194801Y850727D01*
X181801Y850727D01*
X181801Y876727D01*
X194801Y876727D01*
G37*
G36*
X221106Y850727D02*
X221106Y876727D01*
X234106Y876727D01*
X234106Y850727D01*
X221106Y850727D01*
G37*
G54D13*
X177768Y708150D02*
X177768Y686403D01*
X188598Y675572D01*
X202887Y675572D01*
X218761Y659698D01*
G54D13*
X182768Y708150D02*
X182768Y694896D01*
X191773Y685891D01*
X206061Y685891D01*
X214792Y677160D01*
X234636Y677160D01*
X250511Y661285D01*
G54D20*
X133036Y657316D02*
X133036Y653347D01*
X142561Y643822D01*
X260036Y643822D01*
X266386Y650172D01*
X266386Y671603D01*
X252098Y685891D01*
X237017Y685891D01*
X220636Y703641D01*
G54D20*
X200774Y717981D02*
X200774Y706259D01*
X206061Y700972D01*
X221142Y700972D01*
X223017Y702847D01*
X222241Y809532D02*
G54D14*
D03*
X222242Y781532D02*
G54D14*
D03*
G54D17*
X184719Y755414D02*
X184718Y767320D01*
G36*
X175719Y755414D02*
X193719Y755414D01*
X193719Y746414D01*
X175719Y746414D01*
X175719Y755414D01*
G37*
G36*
X193718Y767320D02*
X175718Y767320D01*
X175718Y776320D01*
X193718Y776320D01*
X193718Y767320D01*
G37*
X224318Y657316D02*
G54D14*
D03*
X224318Y629317D02*
G54D14*
D03*
X222250Y809528D02*
G54D14*
D03*
X248640Y703638D02*
G54D15*
D03*
G54D13*
X198393Y723775D02*
X263427Y723775D01*
X289405Y697797D01*
G36*
X165904Y841390D02*
X165904Y877108D01*
X207180Y877108D01*
X207180Y894968D01*
X262345Y894968D01*
X285761Y941005D01*
X-12292Y940608D01*
X-12292Y841390D01*
X165904Y841390D01*
G37*
G54D21*
X165904Y841390D02*
X165904Y877108D01*
X207180Y877108D01*
X207180Y894968D01*
X262345Y894968D01*
X285761Y941005D01*
X-12292Y940608D01*
X-12292Y841390D01*
X165904Y841390D01*
X491095Y729077D02*
G54D22*
D03*
X484745Y729077D02*
G54D22*
D03*
X478396Y729077D02*
G54D22*
D03*
X472045Y729077D02*
G54D22*
D03*
X465695Y729077D02*
G54D22*
D03*
X459346Y729077D02*
G54D22*
D03*
X452995Y729077D02*
G54D22*
D03*
X446645Y729077D02*
G54D22*
D03*
X440295Y729077D02*
G54D22*
D03*
X433945Y729077D02*
G54D22*
D03*
X427595Y729077D02*
G54D22*
D03*
X421246Y729077D02*
G54D22*
D03*
X414895Y729077D02*
G54D22*
D03*
X408546Y729077D02*
G54D22*
D03*
X491096Y798927D02*
G54D22*
D03*
X484745Y798927D02*
G54D22*
D03*
X478396Y798927D02*
G54D22*
D03*
X472046Y798927D02*
G54D22*
D03*
X465695Y798927D02*
G54D22*
D03*
X459345Y798927D02*
G54D22*
D03*
X452995Y798927D02*
G54D22*
D03*
X446645Y798927D02*
G54D22*
D03*
X440296Y798927D02*
G54D22*
D03*
X433945Y798927D02*
G54D22*
D03*
X427595Y798927D02*
G54D22*
D03*
X421246Y798927D02*
G54D22*
D03*
X414895Y798927D02*
G54D22*
D03*
X408546Y798927D02*
G54D22*
D03*
X616893Y824558D02*
G54D23*
D03*
X616894Y798364D02*
G54D23*
D03*
G36*
X595890Y786462D02*
X637890Y786462D01*
X637890Y759462D01*
X595890Y759462D01*
X595890Y786462D01*
G37*
X616894Y747564D02*
G54D23*
D03*
X616894Y722164D02*
G54D23*
D03*
G36*
X595893Y710264D02*
X637893Y710264D01*
X637893Y683264D01*
X595893Y683264D01*
X595893Y710264D01*
G37*
X616460Y823988D02*
G54D24*
D03*
X616460Y798588D02*
G54D24*
D03*
X616460Y773188D02*
G54D24*
D03*
X616460Y747788D02*
G54D24*
D03*
X616460Y722388D02*
G54D24*
D03*
X616460Y696988D02*
G54D24*
D03*
G36*
X286490Y888814D02*
X338490Y888814D01*
X338490Y866814D01*
X286490Y866814D01*
X286490Y888814D01*
G37*
G36*
X396028Y888720D02*
X448028Y888720D01*
X448028Y866720D01*
X396028Y866720D01*
X396028Y888720D01*
G37*
X576488Y790827D02*
G54D25*
D03*
X576588Y823327D02*
G54D25*
D03*
G36*
X580667Y865076D02*
X605667Y865076D01*
X605667Y835076D01*
X580667Y835076D01*
X580667Y865076D01*
G37*
G36*
X613167Y864976D02*
X638167Y864976D01*
X638167Y834976D01*
X613167Y834976D01*
X613167Y864976D01*
G37*
X541946Y786867D02*
G54D25*
D03*
X541846Y754367D02*
G54D25*
D03*
G54D20*
X433560Y729372D02*
X433560Y750804D01*
X447054Y764297D01*
X447054Y807160D01*
G54D17*
X411038Y914710D02*
X411038Y879785D01*
G54D17*
X324519Y914710D02*
X324519Y876610D01*
X429924Y634852D02*
G54D26*
D03*
X455324Y634852D02*
G54D26*
D03*
X464056Y871390D02*
G54D26*
D03*
X489456Y871390D02*
G54D26*
D03*
X514856Y871390D02*
G54D26*
D03*
X540256Y871390D02*
G54D26*
D03*
X565656Y871390D02*
G54D26*
D03*
G54D20*
X452879Y803944D02*
X452879Y851569D01*
X461610Y860300D01*
G54D20*
X459229Y803944D02*
X459229Y834900D01*
X483835Y859506D01*
G54D20*
X465579Y803944D02*
X465579Y828550D01*
X488598Y851569D01*
X507648Y851569D01*
X515585Y859506D01*
G54D20*
X471929Y803944D02*
X471929Y822994D01*
X493360Y844425D01*
X526698Y844425D01*
X542573Y860300D01*
G54D20*
X478279Y803944D02*
X478279Y817438D01*
X497329Y836488D01*
X544160Y836488D01*
X565592Y857919D01*
G54D20*
X484629Y803944D02*
X484629Y811881D01*
X500504Y827756D01*
X547335Y827756D01*
X558448Y838869D01*
X583804Y838887D01*
X593167Y848488D01*
G54D20*
X490979Y791244D02*
X490979Y799181D01*
X506854Y815056D01*
X571942Y815056D01*
X583054Y826169D01*
X615598Y826169D01*
G54D20*
X447323Y780925D02*
X547732Y780925D01*
G54D20*
X539398Y753938D02*
X557654Y753938D01*
X578292Y774575D01*
X614010Y774575D01*
X584809Y753529D02*
G54D25*
D03*
X584709Y721029D02*
G54D25*
D03*
G54D20*
X484629Y730919D02*
X484629Y744412D01*
X487804Y747588D01*
X500504Y747588D01*
X508442Y739650D01*
X557654Y739650D01*
X570354Y752350D01*
X582260Y752350D01*
G54D20*
X587817Y722188D02*
X610042Y722188D01*
G54D20*
X491773Y730919D02*
X566385Y730919D01*
X572735Y737269D01*
X598135Y737269D01*
X608454Y747588D01*
X480724Y634852D02*
G54D26*
D03*
X506124Y634852D02*
G54D26*
D03*
X530731Y634852D02*
G54D26*
D03*
X556131Y634852D02*
G54D26*
D03*
X581531Y634852D02*
G54D26*
D03*
X606931Y634852D02*
G54D26*
D03*
X531525Y634852D02*
G54D26*
D03*
X556925Y634852D02*
G54D26*
D03*
X582325Y634852D02*
G54D26*
D03*
X607725Y634852D02*
G54D26*
D03*
X633125Y634852D02*
G54D26*
D03*
X658525Y634852D02*
G54D26*
D03*
G54D20*
X623535Y749969D02*
X639410Y749969D01*
X658460Y730919D01*
X658460Y644400D01*
G54D20*
X621948Y722981D02*
X634648Y722981D01*
X643379Y714250D01*
X643379Y674562D01*
X633060Y664244D01*
X633060Y642812D01*
X633854Y642019D01*
G54D20*
X478279Y730919D02*
X478279Y716631D01*
X484629Y710281D01*
X567179Y710281D01*
X607660Y669800D01*
X607660Y639638D01*
X609248Y638050D01*
G54D20*
X471929Y730919D02*
X471929Y711075D01*
X481454Y701550D01*
X559242Y701550D01*
X582260Y678531D01*
X582260Y638050D01*
X583054Y637256D01*
G54D20*
X465579Y730919D02*
X465579Y705519D01*
X476692Y694406D01*
X542573Y694406D01*
X556860Y680119D01*
X556860Y644400D01*
G54D20*
X459229Y730919D02*
X459229Y699962D01*
X473517Y685675D01*
X521142Y685675D01*
X530667Y676150D01*
X530667Y639638D01*
X531460Y638844D01*
G54D20*
X452879Y730919D02*
X452879Y695200D01*
X470342Y677738D01*
X489392Y677738D01*
X505267Y661862D01*
X505267Y643606D01*
X506060Y642812D01*
G54D20*
X446529Y730919D02*
X446529Y689644D01*
X478279Y657894D01*
X478279Y645988D01*
X479867Y644400D01*
G54D20*
X440179Y730919D02*
X440179Y740444D01*
X468754Y769019D01*
X551304Y769019D01*
X576704Y794419D01*
X608454Y794419D01*
X516212Y754663D02*
G54D25*
D03*
X516312Y787163D02*
G54D25*
D03*
G54D20*
X517173Y769019D02*
X517173Y755525D01*
G54D20*
X427479Y730919D02*
X427479Y695994D01*
X452879Y670594D01*
X452879Y642019D01*
X453673Y641225D01*
G54D20*
X421129Y730919D02*
X421129Y671388D01*
X427479Y665038D01*
X427479Y641225D01*
G54D27*
X-53180Y575362D02*
X1036638Y575362D01*
X1039020Y572980D01*
G54D27*
X-51593Y940884D02*
X1038226Y940884D01*
X1040607Y938502D01*
G54D20*
X427595Y803689D02*
X427595Y841902D01*
X421085Y848412D01*
X378223Y848412D01*
G54D20*
X433945Y804483D02*
X433945Y848252D01*
X421879Y860318D01*
X343986Y860318D01*
X323725Y880579D01*
G54D20*
X440296Y804483D02*
X440296Y866508D01*
X429023Y877780D01*
G54D20*
X187768Y764399D02*
X205109Y764399D01*
X222242Y781532D01*
G54D13*
X177768Y764400D02*
X177768Y781307D01*
X191692Y795230D01*
X255192Y795230D01*
X308373Y848412D01*
X421085Y848412D01*
X427595Y841902D01*
X427595Y803689D01*
X352620Y915568D02*
G54D15*
D03*
G36*
X310619Y931572D02*
X338619Y931572D01*
X338619Y899572D01*
X310619Y899572D01*
X310619Y931572D01*
G37*
X352619Y915572D02*
G54D15*
D03*
G36*
X368561Y931572D02*
X396561Y931573D01*
X396561Y899573D01*
X368561Y899572D01*
X368561Y931572D01*
G37*
X410561Y915573D02*
G54D15*
D03*
X382560Y915568D02*
G54D15*
D03*
G54D20*
X375048Y802374D02*
X407479Y802374D01*
G54D20*
X625667Y848388D02*
X625667Y873481D01*
X623933Y875214D01*
X596080Y876678D02*
G54D15*
D03*
X624080Y876678D02*
G54D15*
D03*
X596080Y876682D02*
G54D15*
D03*
X711420Y680930D02*
G54D15*
D03*
X683420Y680930D02*
G54D15*
D03*
X711415Y680928D02*
G54D15*
D03*
X683415Y680928D02*
G54D15*
D03*
G54D27*
X-12699Y980968D02*
X-12699Y554724D01*
X-13493Y553930D01*
G54D27*
X804864Y981762D02*
X804864Y555518D01*
X804070Y554724D01*
G54D28*
X753223Y588781D02*
X753223Y633226D01*
X736556Y633226D01*
X729890Y630448D01*
X726556Y624892D01*
X726556Y597115D01*
X729890Y591559D01*
X736556Y588781D01*
X753223Y588781D01*
G54D28*
X748560Y588731D02*
X748560Y633176D01*
X731894Y633176D01*
X725227Y630398D01*
X721894Y624842D01*
X721894Y619287D01*
X725227Y613731D01*
X731894Y610953D01*
X748560Y610953D01*
G54D28*
X761548Y588781D02*
X761548Y633226D01*
X778215Y633226D01*
X784881Y630448D01*
X788215Y624892D01*
X788215Y619337D01*
X784881Y613781D01*
X778215Y611004D01*
X761548Y611004D01*
G54D28*
X757419Y592750D02*
X757419Y637194D01*
G54D28*
X744085Y637194D02*
X770752Y637194D01*
G54D29*
X440679Y922533D02*
X440679Y933200D01*
X446013Y933200D01*
X448146Y932533D01*
X449213Y931200D01*
X449213Y924533D01*
X448146Y923200D01*
X446013Y922533D01*
X440679Y922533D01*
G54D29*
X452945Y922533D02*
X452945Y933200D01*
X458279Y933200D01*
X460412Y932533D01*
X461479Y931200D01*
X461479Y929866D01*
X460412Y928533D01*
X458279Y927866D01*
X452945Y927866D01*
G54D29*
X469478Y922533D02*
X469478Y933200D01*
G54D29*
X465211Y933200D02*
X473745Y933200D01*
G54D29*
X477477Y922533D02*
X477477Y933200D01*
X482811Y933200D01*
X484944Y932533D01*
X486011Y931200D01*
X486011Y929866D01*
X484944Y928533D01*
X482811Y927866D01*
X477477Y927866D01*
G54D29*
X493689Y924533D02*
X494756Y923200D01*
X496889Y922533D01*
X499023Y922533D01*
X501156Y923200D01*
X502223Y924533D01*
X502223Y925866D01*
X501156Y927200D01*
X499023Y927866D01*
X496889Y927866D01*
X494756Y928533D01*
X493689Y929866D01*
X493689Y931200D01*
X494756Y932533D01*
X496889Y933200D01*
X499023Y933200D01*
X501156Y932533D01*
X502223Y931200D01*
G54D29*
X505955Y933200D02*
X511289Y927866D01*
X511289Y922533D01*
G54D29*
X511289Y927866D02*
X516622Y933200D01*
G54D29*
X520355Y924533D02*
X521422Y923200D01*
X523555Y922533D01*
X525689Y922533D01*
X527822Y923200D01*
X528889Y924533D01*
X528889Y925866D01*
X527822Y927200D01*
X525689Y927866D01*
X523555Y927866D01*
X521422Y928533D01*
X520355Y929866D01*
X520355Y931200D01*
X521422Y932533D01*
X523555Y933200D01*
X525689Y933200D01*
X527822Y932533D01*
X528889Y931200D01*
G54D29*
X536888Y922533D02*
X536888Y933200D01*
G54D29*
X532621Y933200D02*
X541155Y933200D01*
G54D29*
X552354Y922533D02*
X544887Y922533D01*
X544887Y933200D01*
X552354Y933200D01*
G54D29*
X544887Y927866D02*
X552354Y927866D01*
G54D29*
X556087Y922533D02*
X556087Y933200D01*
X561421Y926533D01*
X566754Y933200D01*
X566754Y922533D01*
G54D29*
X574433Y927200D02*
X582967Y927200D01*
G54D29*
X590645Y922533D02*
X590645Y928533D01*
G54D29*
X590645Y927200D02*
X591712Y928133D01*
X593845Y928533D01*
X595979Y928133D01*
X597045Y927200D01*
X597045Y922533D01*
G54D29*
X605045Y927866D02*
X608245Y926533D01*
X609312Y925200D01*
X609312Y922533D01*
G54D29*
X600778Y922533D02*
X600778Y933200D01*
X606112Y933200D01*
X608245Y932533D01*
X609312Y931200D01*
X609312Y929866D01*
X608245Y928533D01*
X606112Y927866D01*
X600778Y927866D01*
G54D29*
X613044Y922533D02*
X613044Y933200D01*
X620511Y933200D01*
G54D29*
X613044Y927866D02*
X620511Y927866D01*
G54D29*
X629578Y927866D02*
X627444Y927866D01*
X625311Y928533D01*
X624244Y929866D01*
X624244Y931200D01*
X625311Y932533D01*
X627444Y933200D01*
X629578Y933200D01*
X631711Y932533D01*
X632778Y931200D01*
X632778Y929866D01*
X631711Y928533D01*
X629578Y927866D01*
X631711Y927200D01*
X632778Y925866D01*
X632778Y924533D01*
X631711Y923200D01*
X629578Y922533D01*
X627444Y922533D01*
X625311Y923200D01*
X624244Y924533D01*
X624244Y925866D01*
X625311Y927200D01*
X627444Y927866D01*
G54D29*
X645044Y931200D02*
X645044Y924533D01*
X643977Y923200D01*
X641844Y922533D01*
X639710Y922533D01*
X637577Y923200D01*
X636510Y924533D01*
X636510Y931200D01*
X637577Y932533D01*
X639710Y933200D01*
X641844Y933200D01*
X643977Y932533D01*
X645044Y931200D01*
G54D29*
X657310Y931200D02*
X657310Y924533D01*
X656243Y923200D01*
X654110Y922533D01*
X651976Y922533D01*
X649843Y923200D01*
X648776Y924533D01*
X648776Y931200D01*
X649843Y932533D01*
X651976Y933200D01*
X654110Y933200D01*
X656243Y932533D01*
X657310Y931200D01*
G54D29*
X661042Y929200D02*
X666376Y933200D01*
X666376Y922533D01*
G54D29*
X674054Y927200D02*
X682588Y927200D01*
G54D29*
X690266Y922533D02*
X690266Y933200D01*
X695600Y933200D01*
X697733Y932533D01*
X698800Y931200D01*
X698800Y929866D01*
X697733Y928533D01*
X695600Y927866D01*
X690266Y927866D01*
G54D29*
X702532Y929200D02*
X707866Y933200D01*
X707866Y922533D01*
G54D29*
X716932Y927866D02*
X714798Y927866D01*
X712665Y928533D01*
X711598Y929866D01*
X711598Y931200D01*
X712665Y932533D01*
X714798Y933200D01*
X716932Y933200D01*
X719065Y932533D01*
X720132Y931200D01*
X720132Y929866D01*
X719065Y928533D01*
X716932Y927866D01*
X719065Y927200D01*
X720132Y925866D01*
X720132Y924533D01*
X719065Y923200D01*
X716932Y922533D01*
X714798Y922533D01*
X712665Y923200D01*
X711598Y924533D01*
X711598Y925866D01*
X712665Y927200D01*
X714798Y927866D01*
G54D29*
X723864Y922533D02*
X723864Y933200D01*
X731331Y933200D01*
G54D29*
X723864Y927866D02*
X731331Y927866D01*
G54D29*
X743598Y922533D02*
X735064Y922533D01*
X735064Y923200D01*
X736131Y924533D01*
X742531Y928533D01*
X743598Y929866D01*
X743598Y931200D01*
X742531Y932533D01*
X740398Y933200D01*
X738264Y933200D01*
X736131Y932533D01*
X735064Y931200D01*
G54D29*
X753730Y922533D02*
X753730Y933200D01*
X747330Y926533D01*
X747330Y925200D01*
X755864Y925200D01*
G54D29*
X759596Y922533D02*
X759596Y933200D01*
G54D29*
X759596Y925866D02*
X768130Y933200D01*
G54D29*
X762796Y927866D02*
X768130Y922533D01*
G54D29*
X780396Y922533D02*
X771862Y922533D01*
X771862Y923200D01*
X772929Y924533D01*
X779329Y928533D01*
X780396Y929866D01*
X780396Y931200D01*
X779329Y932533D01*
X777196Y933200D01*
X775062Y933200D01*
X772929Y932533D01*
X771862Y931200D01*
G54D29*
X792662Y931200D02*
X792662Y924533D01*
X791595Y923200D01*
X789462Y922533D01*
X787328Y922533D01*
X785195Y923200D01*
X784128Y924533D01*
X784128Y931200D01*
X785195Y932533D01*
X787328Y933200D01*
X789462Y933200D01*
X791595Y932533D01*
X792662Y931200D01*
G54D29*
X449334Y900308D02*
X440801Y900308D01*
X440801Y900975D01*
X441867Y902308D01*
X448267Y906308D01*
X449334Y907641D01*
X449334Y908975D01*
X448267Y910308D01*
X446134Y910975D01*
X444001Y910975D01*
X441867Y910308D01*
X440801Y908975D01*
G54D29*
X461600Y908975D02*
X461600Y902308D01*
X460533Y900975D01*
X458400Y900308D01*
X456267Y900308D01*
X454133Y900975D01*
X453067Y902308D01*
X453067Y908975D01*
X454133Y910308D01*
X456267Y910975D01*
X458400Y910975D01*
X460533Y910308D01*
X461600Y908975D01*
G54D29*
X465333Y906975D02*
X470666Y910975D01*
X470666Y900308D01*
G54D29*
X482932Y910975D02*
X474399Y910975D01*
X474399Y906308D01*
X475465Y906308D01*
X477599Y906975D01*
X479732Y906975D01*
X481865Y906308D01*
X482932Y904975D01*
X482932Y902308D01*
X481865Y900975D01*
X479732Y900308D01*
X477599Y900308D01*
X475465Y900975D01*
X474399Y902308D01*
G54D29*
X490611Y904975D02*
X499144Y904975D01*
G54D29*
X515356Y908975D02*
X515356Y902308D01*
X514289Y900975D01*
X512156Y900308D01*
X510023Y900308D01*
X507889Y900975D01*
X506823Y902308D01*
X506823Y908975D01*
X507889Y910308D01*
X510023Y910975D01*
X512156Y910975D01*
X514289Y910308D01*
X515356Y908975D01*
G54D29*
X519089Y906975D02*
X524422Y910975D01*
X524422Y900308D01*
G54D29*
X532101Y904975D02*
X540634Y904975D01*
G54D29*
X548313Y906975D02*
X553646Y910975D01*
X553646Y900308D01*
G54D29*
X565912Y908975D02*
X564845Y910308D01*
X562712Y910975D01*
X560579Y910975D01*
X558445Y910308D01*
X557379Y908975D01*
X557379Y905641D01*
X557379Y904975D01*
X560579Y906308D01*
X562712Y906308D01*
X564845Y905641D01*
X565912Y904308D01*
X565912Y902308D01*
X564845Y900975D01*
X562712Y900308D01*
X560579Y900308D01*
X558445Y900975D01*
X557379Y902308D01*
X557379Y905641D01*
X480724Y634852D02*
G54D24*
D03*
X506124Y634852D02*
G54D24*
D03*
X531524Y634852D02*
G54D24*
D03*
X556924Y634852D02*
G54D24*
D03*
X582324Y634852D02*
G54D24*
D03*
X607725Y634852D02*
G54D24*
D03*
X633125Y634852D02*
G54D24*
D03*
X658525Y634852D02*
G54D24*
D03*
X429924Y634852D02*
G54D24*
D03*
X455324Y634852D02*
G54D24*
D03*
X480724Y634852D02*
G54D24*
D03*
X464056Y872183D02*
G54D30*
D03*
X489456Y872183D02*
G54D30*
D03*
X514856Y872183D02*
G54D30*
D03*
X540256Y872183D02*
G54D30*
D03*
X565656Y872183D02*
G54D30*
D03*
G36*
X291272Y715603D02*
X320970Y685904D01*
X301878Y666813D01*
X272180Y696511D01*
X291272Y715603D01*
G37*
X296575Y691208D02*
G54D24*
D03*
X250511Y661285D02*
G54D24*
D03*
G36*
X291323Y740988D02*
X273646Y758666D01*
X294859Y779879D01*
X312536Y762201D01*
X291323Y740988D01*
G37*
G36*
X268413Y764040D02*
X250735Y781717D01*
X271948Y802930D01*
X289626Y785253D01*
X268413Y764040D01*
G37*
G36*
X336844Y823511D02*
X307146Y793813D01*
X288054Y812905D01*
X317753Y842603D01*
X336844Y823511D01*
G37*
X312449Y818208D02*
G54D24*
D03*
G54D13*
X198393Y753775D02*
X239676Y753775D01*
X269387Y783485D01*
X345186Y802496D02*
G54D25*
D03*
X345086Y769996D02*
G54D25*
D03*
X372173Y802496D02*
G54D25*
D03*
X372073Y769996D02*
G54D25*
D03*
G54D20*
X415529Y803168D02*
X415529Y817456D01*
X406798Y826187D01*
X355998Y826187D01*
X344885Y815074D01*
X344885Y802796D01*
X345186Y802496D01*
G54D13*
X198393Y743774D02*
X248186Y743774D01*
X295673Y791262D01*
X388542Y791262D01*
X408385Y771418D01*
X408385Y729237D01*
X408546Y729077D01*
G54D13*
X198393Y738775D02*
X253504Y738775D01*
X298054Y783324D01*
X382985Y783324D01*
X394892Y771418D01*
X394892Y711093D01*
X402035Y703949D01*
X411560Y703949D01*
X414735Y707124D01*
X414735Y728917D01*
X414895Y729077D01*
G36*
X327041Y705269D02*
X309364Y722946D01*
X330577Y744160D01*
X348255Y726482D01*
X327041Y705269D01*
G37*
G36*
X304131Y728320D02*
X286453Y745998D01*
X307667Y767211D01*
X325344Y749533D01*
X304131Y728320D01*
G37*
G54D13*
X198393Y733775D02*
X310451Y733775D01*
X340123Y763480D01*
X345086Y769996D01*
G54D13*
X198393Y728775D02*
X315736Y728775D01*
X340123Y753162D01*
X362348Y753162D01*
X371873Y762687D01*
X371873Y769796D01*
X372073Y769996D01*
G54D31*
X293091Y760433D02*
X293231Y760433D01*
X305899Y747766D01*
G54D32*
X328809Y722730D02*
X350314Y722730D01*
X396479Y676565D01*
X396479Y621796D01*
X408385Y609890D01*
X471092Y609890D01*
X480617Y619415D01*
X480724Y632868D01*
X308168Y629029D02*
G54D33*
D03*
X280168Y629029D02*
G54D33*
D03*
X308168Y629029D02*
G54D33*
D03*
G54D34*
X224318Y629316D02*
X279880Y629316D01*
X280168Y629029D01*
G54D20*
X421246Y803689D02*
X421246Y831583D01*
X412354Y840474D01*
X334715Y840474D01*
X312449Y818208D01*
X362717Y656810D02*
G54D15*
D03*
X390717Y656810D02*
G54D15*
D03*
X362720Y656818D02*
G54D15*
D03*
G54D35*
X13495Y865874D02*
X13495Y911118D01*
G36*
X2995Y865874D02*
X23995Y865874D01*
X23995Y855374D01*
X2995Y855374D01*
X2995Y865874D01*
G37*
G36*
X23995Y911118D02*
X2995Y911118D01*
X2995Y921618D01*
X23995Y921618D01*
X23995Y911118D01*
G37*
G54D34*
X34529Y863890D02*
X34529Y913102D01*
G36*
X26029Y863890D02*
X43029Y863890D01*
X43029Y855390D01*
X26029Y855390D01*
X26029Y863890D01*
G37*
G36*
X43029Y913102D02*
X26029Y913102D01*
X26029Y921602D01*
X43029Y921602D01*
X43029Y913102D01*
G37*
G54D34*
X150417Y873415D02*
X150417Y913102D01*
X128588Y913102D01*
X128588Y886512D01*
X103585Y886512D01*
X103585Y913102D01*
X81360Y913102D01*
X81360Y886512D01*
X56357Y886512D01*
X56357Y913102D01*
X12304Y913102D01*
G36*
X141917Y873415D02*
X158917Y873415D01*
X158917Y864915D01*
X141917Y864915D01*
X141917Y873415D01*
G37*
G36*
X12304Y921602D02*
X12304Y904602D01*
X3804Y904602D01*
X3804Y921602D01*
X12304Y921602D01*
G37*
X30300Y831606D02*
G54D18*
D03*
X11300Y831607D02*
G54D18*
D03*
X11460Y831778D02*
G54D18*
D03*
G54D17*
X111639Y831402D02*
X80202Y831391D01*
G54D17*
X52202Y831391D02*
X20990Y831391D01*
X20775Y831606D01*
G54D34*
X34529Y863890D02*
X34529Y833851D01*
X32284Y831606D01*
G54D35*
X13495Y865874D02*
X13495Y831828D01*
X13445Y831778D01*
X28941Y668687D02*
G54D36*
D03*
X29035Y778225D02*
G54D36*
D03*
X44534Y600746D02*
G54D14*
D03*
X44534Y628740D02*
G54D14*
D03*
X44534Y600741D02*
G54D14*
D03*
X12387Y600746D02*
G54D14*
D03*
X12388Y628741D02*
G54D14*
D03*
X12388Y600741D02*
G54D14*
D03*
G54D37*
X669653Y803578D02*
X688976Y778165D01*
X688976Y708712D01*
X696914Y700774D01*
X696914Y609890D01*
X679451Y592030D01*
X118270Y591237D01*
X109538Y599968D01*
X109538Y633819D01*
X133036Y657316D01*
G54D17*
X99684Y659280D02*
X99684Y644521D01*
X89578Y634415D01*
G54D17*
X70634Y660882D02*
X70634Y621013D01*
X76598Y615049D01*
X89212Y615049D01*
X89578Y615415D01*
G54D13*
X141449Y733775D02*
X130120Y733775D01*
X106048Y709704D01*
X57746Y709704D01*
X50007Y701965D01*
X50007Y670612D01*
X60723Y659896D01*
X69648Y659896D01*
X70634Y660882D01*
G54D13*
X141449Y743774D02*
X51854Y743774D01*
X28576Y767052D01*
G54D13*
X141449Y738775D02*
X121742Y738775D01*
X107157Y724190D01*
X54770Y724190D01*
X28576Y697996D01*
X28576Y680534D01*
X27782Y679740D01*
G54D17*
X44534Y628740D02*
X44534Y653094D01*
X28941Y668687D01*
G54D17*
X28576Y767052D02*
X28576Y730540D01*
X11114Y713077D01*
X11114Y630014D01*
X12388Y628740D01*
G36*
X692555Y846952D02*
X716555Y846952D01*
X716555Y820952D01*
X692555Y820952D01*
X692555Y846952D01*
G37*
G36*
X715555Y846952D02*
X739555Y846952D01*
X739555Y820952D01*
X715555Y820952D01*
X715555Y846952D01*
G37*
G36*
X738555Y846952D02*
X762555Y846952D01*
X762555Y820952D01*
X738555Y820952D01*
X738555Y846952D01*
G37*
X727555Y771952D02*
G54D38*
D03*
X727555Y771952D02*
G54D38*
D03*
X746330Y858723D02*
G54D39*
D03*
X708730Y858823D02*
G54D39*
D03*
G54D17*
X704555Y833952D02*
X704555Y854649D01*
X708730Y858823D01*
G54D17*
X750555Y833952D02*
X750555Y854498D01*
X746330Y858723D01*
X780266Y850132D02*
G54D14*
D03*
X780266Y822132D02*
G54D14*
D03*
X780267Y850125D02*
G54D14*
D03*
X681879Y862036D02*
G54D40*
D03*
X681979Y899636D02*
G54D40*
D03*
X681978Y899636D02*
G54D40*
D03*
X669653Y803578D02*
G54D26*
D03*
X669662Y763788D02*
G54D41*
D03*
G54D17*
X708730Y858823D02*
X685092Y858823D01*
X681879Y862036D01*
G54D17*
X681879Y862036D02*
X681879Y815804D01*
X669653Y803578D01*
X748585Y723557D02*
G54D42*
D03*
X723185Y723559D02*
G54D42*
D03*
X723185Y721971D02*
G54D24*
D03*
X748585Y721971D02*
G54D24*
D03*
G54D17*
X750555Y833952D02*
X768446Y833952D01*
X780266Y822132D01*
G54D17*
X669653Y799212D02*
X621450Y799212D01*
G54D17*
X780266Y822132D02*
X780266Y755238D01*
X748585Y723557D01*
G54D13*
X141449Y748774D02*
X108759Y748774D01*
X86182Y771351D01*
G54D13*
X152798Y761893D02*
X152798Y778842D01*
X146530Y785110D01*
X99941Y785110D01*
X86182Y771351D01*
%LPD*%
G54D43*
G36*
X133040Y625344D02*
X116540Y625345D01*
X116540Y633292D01*
X133040Y633292D01*
X133040Y625344D01*
G37*
G36*
X133040Y633292D02*
X149540Y633291D01*
X149540Y625344D01*
X133040Y625344D01*
X133040Y633292D01*
G37*
G36*
X137014Y629318D02*
X137014Y614818D01*
X129067Y614818D01*
X129067Y629318D01*
X137014Y629318D01*
G37*
G54D44*
G36*
X162404Y625503D02*
X145904Y625503D01*
X145904Y633130D01*
X162404Y633130D01*
X162404Y625503D01*
G37*
G36*
X162404Y633130D02*
X178904Y633130D01*
X178904Y625503D01*
X162404Y625503D01*
X162404Y633130D01*
G37*
G36*
X166218Y629316D02*
X166218Y614816D01*
X158591Y614816D01*
X158591Y629316D01*
X166218Y629316D01*
G37*
G54D44*
G36*
X193358Y625501D02*
X176858Y625501D01*
X176858Y633128D01*
X193358Y633128D01*
X193358Y625501D01*
G37*
G36*
X197172Y629315D02*
X197172Y614815D01*
X189545Y614815D01*
X189545Y629315D01*
X197172Y629315D01*
G37*
G54D20*
G36*
X66924Y783166D02*
X45212Y781718D01*
X44148Y797683D01*
X65860Y799130D01*
X66924Y783166D01*
G37*
G36*
X58410Y791680D02*
X59857Y813392D01*
X75822Y812328D01*
X74374Y790616D01*
X58410Y791680D01*
G37*
G54D20*
G36*
X240670Y847238D02*
X240670Y863738D01*
X256670Y863738D01*
X256670Y847238D01*
X240670Y847238D01*
G37*
G36*
X248670Y855238D02*
X263170Y855238D01*
X263170Y839238D01*
X248670Y839238D01*
X248670Y855238D01*
G37*
G36*
X256670Y847238D02*
X256670Y830738D01*
X240670Y830738D01*
X240670Y847238D01*
X256670Y847238D01*
G37*
G54D20*
G36*
X248670Y887788D02*
X263170Y887788D01*
X263170Y871788D01*
X248670Y871788D01*
X248670Y887788D01*
G37*
G36*
X256670Y879788D02*
X256670Y863288D01*
X240670Y863288D01*
X240670Y879788D01*
X256670Y879788D01*
G37*
G54D45*
G36*
X222250Y802754D02*
X205750Y802755D01*
X205750Y816302D01*
X222250Y816302D01*
X222250Y802754D01*
G37*
G36*
X215477Y809528D02*
X215477Y824028D01*
X229024Y824028D01*
X229024Y809528D01*
X215477Y809528D01*
G37*
G36*
X222250Y816302D02*
X238750Y816301D01*
X238750Y802754D01*
X222250Y802754D01*
X222250Y816302D01*
G37*
G54D20*
G36*
X248640Y711638D02*
X263140Y711638D01*
X263140Y695638D01*
X248640Y695638D01*
X248640Y711638D01*
G37*
G54D46*
G36*
X616890Y777962D02*
X638390Y777962D01*
X638390Y767962D01*
X616890Y767962D01*
X616890Y777962D01*
G37*
G54D20*
G36*
X344620Y915568D02*
X344621Y932068D01*
X360621Y932068D01*
X360620Y915568D01*
X344620Y915568D01*
G37*
G36*
X352620Y923568D02*
X367120Y923568D01*
X367120Y907568D01*
X352620Y907568D01*
X352620Y923568D01*
G37*
G54D20*
G36*
X382560Y907568D02*
X368060Y907568D01*
X368060Y923568D01*
X382560Y923568D01*
X382560Y907568D01*
G37*
G36*
X374560Y915568D02*
X374561Y932068D01*
X390561Y932068D01*
X390560Y915568D01*
X374560Y915568D01*
G37*
G54D47*
G36*
X591040Y876682D02*
X591041Y893182D01*
X601121Y893182D01*
X601120Y876682D01*
X591040Y876682D01*
G37*
G54D20*
G36*
X703415Y680928D02*
X703415Y697428D01*
X719415Y697428D01*
X719415Y680928D01*
X703415Y680928D01*
G37*
G36*
X711415Y688928D02*
X725915Y688928D01*
X725915Y672928D01*
X711415Y672928D01*
X711415Y688928D01*
G37*
G36*
X719415Y680928D02*
X719415Y664428D01*
X703415Y664428D01*
X703415Y680928D01*
X719415Y680928D01*
G37*
G54D48*
G36*
X690348Y680928D02*
X690348Y664428D01*
X676481Y664428D01*
X676481Y680928D01*
X690348Y680928D01*
G37*
G36*
X683415Y673994D02*
X668915Y673995D01*
X668915Y687862D01*
X683415Y687862D01*
X683415Y673994D01*
G37*
G36*
X676481Y680928D02*
X676482Y697428D01*
X690349Y697428D01*
X690348Y680928D01*
X676481Y680928D01*
G37*
G54D47*
G36*
X303128Y629029D02*
X303128Y643529D01*
X313208Y643529D01*
X313208Y629029D01*
X303128Y629029D01*
G37*
G36*
X308168Y634069D02*
X322668Y634069D01*
X322668Y623989D01*
X308168Y623989D01*
X308168Y634069D01*
G37*
G36*
X313208Y629029D02*
X313208Y614529D01*
X303128Y614529D01*
X303128Y629029D01*
X313208Y629029D01*
G37*
G54D20*
G36*
X354720Y656818D02*
X354721Y673318D01*
X370721Y673318D01*
X370720Y656818D01*
X354720Y656818D01*
G37*
G36*
X370720Y656818D02*
X370720Y640318D01*
X354720Y640318D01*
X354720Y656818D01*
X370720Y656818D01*
G37*
G36*
X362720Y648818D02*
X348220Y648818D01*
X348220Y664818D01*
X362720Y664818D01*
X362720Y648818D01*
G37*
G54D37*
G36*
X17960Y831778D02*
X17960Y817278D01*
X4960Y817278D01*
X4960Y831778D01*
X17960Y831778D01*
G37*
G36*
X11460Y825278D02*
X-1540Y825278D01*
X-1540Y838278D01*
X11460Y838278D01*
X11460Y825278D01*
G37*
G54D20*
G36*
X44534Y608746D02*
X61034Y608745D01*
X61033Y592745D01*
X44533Y592746D01*
X44534Y608746D01*
G37*
G36*
X52534Y600745D02*
X52533Y586245D01*
X36533Y586246D01*
X36534Y600746D01*
X52534Y600745D01*
G37*
G36*
X44533Y592746D02*
X28033Y592746D01*
X28034Y608746D01*
X44534Y608746D01*
X44533Y592746D01*
G37*
G54D20*
G36*
X12387Y608746D02*
X28887Y608745D01*
X28887Y592745D01*
X12387Y592746D01*
X12387Y608746D01*
G37*
G36*
X20387Y600745D02*
X20387Y586245D01*
X4387Y586246D01*
X4387Y600746D01*
X20387Y600745D01*
G37*
G36*
X12387Y592746D02*
X-4113Y592746D01*
X-4113Y608746D01*
X12387Y608746D01*
X12387Y592746D01*
G37*
G54D49*
G36*
X727555Y764952D02*
X703555Y764953D01*
X703555Y778953D01*
X727555Y778952D01*
X727555Y764952D01*
G37*
G36*
X720555Y771952D02*
X720555Y785452D01*
X734555Y785452D01*
X734555Y771952D01*
X720555Y771952D01*
G37*
G36*
X727555Y778952D02*
X751555Y778952D01*
X751555Y764952D01*
X727555Y764952D01*
X727555Y778952D01*
G37*
G36*
X734555Y771952D02*
X734555Y758452D01*
X720555Y758452D01*
X720555Y771952D01*
X734555Y771952D01*
G37*
G54D20*
G36*
X780267Y842125D02*
X763767Y842125D01*
X763767Y858125D01*
X780267Y858125D01*
X780267Y842125D01*
G37*
G36*
X772267Y850125D02*
X772267Y864625D01*
X788267Y864625D01*
X788267Y850125D01*
X772267Y850125D01*
G37*
G36*
X780267Y858125D02*
X796767Y858125D01*
X796767Y842125D01*
X780267Y842125D01*
X780267Y858125D01*
G37*
G54D50*
G36*
X681978Y895541D02*
X665478Y895541D01*
X665479Y903731D01*
X681979Y903731D01*
X681978Y895541D01*
G37*
G36*
X677884Y899636D02*
X677884Y912636D01*
X686074Y912636D01*
X686074Y899636D01*
X677884Y899636D01*
G37*
G36*
X681979Y903731D02*
X698479Y903731D01*
X698478Y895541D01*
X681978Y895541D01*
X681979Y903731D01*
G37*
G54D49*
G36*
X676662Y763788D02*
X676662Y742288D01*
X662662Y742288D01*
X662662Y763788D01*
X676662Y763788D01*
G37*
G36*
X675614Y760103D02*
X662350Y738679D01*
X650447Y746048D01*
X663710Y767473D01*
X675614Y760103D01*
G37*
G36*
X669662Y756788D02*
X656162Y756788D01*
X656162Y770788D01*
X669662Y770788D01*
X669662Y756788D01*
G37*
G54D51*
G36*
X723185Y713559D02*
X706685Y713559D01*
X706685Y733559D01*
X723185Y733559D01*
X723185Y713559D01*
G37*
G36*
X713185Y723559D02*
X713185Y750059D01*
X733185Y750059D01*
X733185Y723559D01*
X713185Y723559D01*
G37*
G36*
X733185Y723559D02*
X733185Y697059D01*
X713185Y697059D01*
X713185Y723559D01*
X733185Y723559D01*
G37*
X170612Y735714D02*
G54D52*
D03*
X141449Y718775D02*
G54D53*
D03*
X141449Y723775D02*
G54D53*
D03*
X141449Y728775D02*
G54D53*
D03*
X141449Y733775D02*
G54D53*
D03*
X141449Y738775D02*
G54D53*
D03*
X141449Y743775D02*
G54D53*
D03*
X141449Y748775D02*
G54D53*
D03*
X141449Y753775D02*
G54D53*
D03*
X152768Y764400D02*
G54D54*
D03*
X157768Y764400D02*
G54D54*
D03*
X162768Y764400D02*
G54D54*
D03*
X167768Y764400D02*
G54D54*
D03*
X172768Y764400D02*
G54D54*
D03*
X177768Y764400D02*
G54D54*
D03*
X182768Y764400D02*
G54D54*
D03*
X187768Y764399D02*
G54D54*
D03*
X198393Y753775D02*
G54D53*
D03*
X198393Y748775D02*
G54D53*
D03*
X198393Y743775D02*
G54D53*
D03*
X198393Y738775D02*
G54D53*
D03*
X198393Y733775D02*
G54D53*
D03*
X198393Y728775D02*
G54D53*
D03*
X198393Y723774D02*
G54D53*
D03*
X198393Y718774D02*
G54D53*
D03*
X187768Y708150D02*
G54D54*
D03*
X182768Y708150D02*
G54D54*
D03*
X177768Y708150D02*
G54D54*
D03*
X172768Y708150D02*
G54D54*
D03*
X167768Y708150D02*
G54D54*
D03*
X162768Y708150D02*
G54D54*
D03*
X157768Y708150D02*
G54D54*
D03*
X152768Y708150D02*
G54D54*
D03*
G54D27*
X187893Y709376D02*
X187893Y718108D01*
X183131Y722870D01*
G54D27*
X187893Y760177D02*
X187893Y754620D01*
X182337Y749064D01*
G54D27*
X183131Y760177D02*
X183131Y750652D01*
G54D27*
X145031Y723664D02*
X156937Y723664D01*
G54D27*
X145031Y728427D02*
X157731Y728426D01*
G54D27*
X157731Y761764D02*
X157731Y743508D01*
X133036Y657316D02*
G54D55*
D03*
X133036Y629316D02*
G54D55*
D03*
X133040Y629318D02*
G54D55*
D03*
X162405Y657316D02*
G54D55*
D03*
X162405Y629316D02*
G54D55*
D03*
X162404Y629316D02*
G54D55*
D03*
X193361Y657316D02*
G54D55*
D03*
X193361Y629316D02*
G54D55*
D03*
X193358Y629315D02*
G54D55*
D03*
G36*
X243011Y671285D02*
X258011Y671285D01*
X258011Y651285D01*
X243011Y651285D01*
X243011Y671285D01*
G37*
G54D27*
X152768Y708150D02*
X152768Y703242D01*
X133036Y683510D01*
X133036Y657316D01*
G54D27*
X157642Y705735D02*
X157642Y662078D01*
X162405Y657316D01*
G54D27*
X162768Y708150D02*
X162768Y687909D01*
X193361Y657316D01*
G36*
X212636Y713641D02*
X228636Y713641D01*
X228636Y693641D01*
X212636Y693641D01*
X212636Y713641D01*
G37*
X248636Y703641D02*
G54D56*
D03*
X99684Y659280D02*
G54D57*
D03*
X99684Y678280D02*
G54D57*
D03*
X89578Y615415D02*
G54D57*
D03*
X89578Y634415D02*
G54D57*
D03*
G54D27*
X141449Y718775D02*
X136551Y718775D01*
X99684Y678280D01*
X70634Y660882D02*
G54D55*
D03*
X70634Y688882D02*
G54D55*
D03*
G54D58*
X156054Y726372D02*
X138592Y726372D01*
G36*
X156054Y723372D02*
X156055Y729372D01*
X159055Y729372D01*
X159054Y723372D01*
X156054Y723372D01*
G37*
G36*
X138592Y729372D02*
X138592Y723372D01*
X135592Y723372D01*
X135592Y729372D01*
X138592Y729372D01*
G37*
G54D27*
X138592Y726372D02*
X134623Y726372D01*
X104461Y696210D01*
X78070Y696210D01*
X70634Y688882D01*
X125098Y798822D02*
G54D55*
D03*
X125098Y770822D02*
G54D55*
D03*
G54D27*
X141449Y753774D02*
X141449Y754472D01*
X125098Y770822D01*
G54D27*
X157768Y764400D02*
X157768Y790540D01*
X149486Y798822D01*
X125098Y798822D01*
G36*
X84768Y758623D02*
X73454Y769937D01*
X87597Y784079D01*
X98910Y772765D01*
X84768Y758623D01*
G37*
G36*
X64969Y778422D02*
X53655Y789736D01*
X67797Y803878D01*
X79111Y792564D01*
X64969Y778422D01*
G37*
G36*
X67806Y803876D02*
X79120Y792562D01*
X64978Y778420D01*
X53664Y789734D01*
X67806Y803876D01*
G37*
X174266Y831432D02*
G54D59*
D03*
X155266Y831432D02*
G54D59*
D03*
X130242Y831402D02*
G54D59*
D03*
X111242Y831402D02*
G54D59*
D03*
G54D58*
X155266Y831432D02*
X130669Y831432D01*
X130639Y831402D01*
G54D27*
X162768Y764400D02*
X162768Y803003D01*
X155261Y810510D01*
X155266Y831432D01*
G54D27*
X167768Y764400D02*
X167768Y803173D01*
X175104Y810510D01*
X175105Y830594D01*
X174266Y831432D01*
X56568Y831391D02*
G54D56*
D03*
X84568Y831391D02*
G54D56*
D03*
X193214Y863727D02*
G54D59*
D03*
X174214Y863727D02*
G54D59*
D03*
G54D58*
X174266Y831432D02*
X174266Y863675D01*
X174214Y863727D01*
G54D27*
X172768Y764400D02*
X172768Y793886D01*
X193361Y814479D01*
X193361Y863580D01*
X193214Y863727D01*
X248666Y847239D02*
G54D56*
D03*
X220666Y847239D02*
G54D56*
D03*
X248666Y879783D02*
G54D56*
D03*
X220666Y879783D02*
G54D56*
D03*
X248670Y847238D02*
G54D56*
D03*
X248670Y879788D02*
G54D56*
D03*
G54D49*
X194801Y863727D02*
X221106Y863727D01*
G36*
X194801Y870727D02*
X194801Y856727D01*
X187801Y856727D01*
X187801Y870727D01*
X194801Y870727D01*
G37*
G36*
X221106Y856727D02*
X221106Y870727D01*
X228106Y870727D01*
X228106Y856727D01*
X221106Y856727D01*
G37*
G54D27*
X177768Y708150D02*
X177768Y686403D01*
X188598Y675572D01*
X202887Y675572D01*
X218761Y659698D01*
G54D27*
X182768Y708150D02*
X182768Y694896D01*
X191773Y685891D01*
X206061Y685891D01*
X214792Y677160D01*
X234636Y677160D01*
X250511Y661285D01*
G54D60*
X133036Y657316D02*
X133036Y653347D01*
X142561Y643822D01*
X260036Y643822D01*
X266386Y650172D01*
X266386Y671603D01*
X252098Y685891D01*
X237017Y685891D01*
X220636Y703641D01*
G54D60*
X200774Y717981D02*
X200774Y706259D01*
X206061Y700972D01*
X221142Y700972D01*
X223017Y702847D01*
X222241Y809532D02*
G54D55*
D03*
X222242Y781532D02*
G54D55*
D03*
G54D58*
X184719Y755414D02*
X184718Y767320D01*
G36*
X181719Y755414D02*
X187719Y755414D01*
X187719Y752414D01*
X181719Y752414D01*
X181719Y755414D01*
G37*
G36*
X187718Y767320D02*
X181718Y767320D01*
X181718Y770320D01*
X187718Y770320D01*
X187718Y767320D01*
G37*
X224318Y657316D02*
G54D55*
D03*
X224318Y629317D02*
G54D55*
D03*
X222250Y809528D02*
G54D55*
D03*
X248640Y703638D02*
G54D56*
D03*
G54D27*
X198393Y723775D02*
X263427Y723775D01*
X289405Y697797D01*
X491095Y729077D02*
G54D61*
D03*
X484745Y729077D02*
G54D61*
D03*
X478396Y729077D02*
G54D61*
D03*
X472045Y729077D02*
G54D61*
D03*
X465695Y729077D02*
G54D61*
D03*
X459346Y729077D02*
G54D61*
D03*
X452995Y729077D02*
G54D61*
D03*
X446645Y729077D02*
G54D61*
D03*
X440295Y729077D02*
G54D61*
D03*
X433945Y729077D02*
G54D61*
D03*
X427595Y729077D02*
G54D61*
D03*
X421246Y729077D02*
G54D61*
D03*
X414895Y729077D02*
G54D61*
D03*
X408546Y729077D02*
G54D61*
D03*
X491096Y798927D02*
G54D61*
D03*
X484745Y798927D02*
G54D61*
D03*
X478396Y798927D02*
G54D61*
D03*
X472046Y798927D02*
G54D61*
D03*
X465695Y798927D02*
G54D61*
D03*
X459345Y798927D02*
G54D61*
D03*
X452995Y798927D02*
G54D61*
D03*
X446645Y798927D02*
G54D61*
D03*
X440296Y798927D02*
G54D61*
D03*
X433945Y798927D02*
G54D61*
D03*
X427595Y798927D02*
G54D61*
D03*
X421246Y798927D02*
G54D61*
D03*
X414895Y798927D02*
G54D61*
D03*
X408546Y798927D02*
G54D61*
D03*
X616893Y824558D02*
G54D62*
D03*
X616894Y798364D02*
G54D62*
D03*
G36*
X601890Y780462D02*
X631890Y780462D01*
X631890Y765462D01*
X601890Y765462D01*
X601890Y780462D01*
G37*
X616894Y747564D02*
G54D62*
D03*
X616894Y722164D02*
G54D62*
D03*
G36*
X601893Y704264D02*
X631893Y704264D01*
X631893Y689264D01*
X601893Y689264D01*
X601893Y704264D01*
G37*
X616460Y823988D02*
G54D63*
D03*
X616460Y798588D02*
G54D63*
D03*
X616460Y773188D02*
G54D63*
D03*
X616460Y747788D02*
G54D63*
D03*
X616460Y722388D02*
G54D63*
D03*
X616460Y696988D02*
G54D63*
D03*
G36*
X292490Y882814D02*
X332490Y882814D01*
X332490Y872814D01*
X292490Y872814D01*
X292490Y882814D01*
G37*
G36*
X402028Y882720D02*
X442028Y882720D01*
X442028Y872720D01*
X402028Y872720D01*
X402028Y882720D01*
G37*
X576488Y790827D02*
G54D64*
D03*
X576588Y823327D02*
G54D64*
D03*
G36*
X586667Y859076D02*
X599667Y859076D01*
X599667Y841076D01*
X586667Y841076D01*
X586667Y859076D01*
G37*
G36*
X619167Y858976D02*
X632167Y858976D01*
X632167Y840976D01*
X619167Y840976D01*
X619167Y858976D01*
G37*
X541946Y786867D02*
G54D64*
D03*
X541846Y754367D02*
G54D64*
D03*
G54D60*
X433560Y729372D02*
X433560Y750804D01*
X447054Y764297D01*
X447054Y807160D01*
G54D58*
X411038Y914710D02*
X411038Y879785D01*
G54D58*
X324519Y914710D02*
X324519Y876610D01*
X429924Y634852D02*
G54D65*
D03*
X455324Y634852D02*
G54D65*
D03*
X464056Y871390D02*
G54D65*
D03*
X489456Y871390D02*
G54D65*
D03*
X514856Y871390D02*
G54D65*
D03*
X540256Y871390D02*
G54D65*
D03*
X565656Y871390D02*
G54D65*
D03*
G54D60*
X452879Y803944D02*
X452879Y851569D01*
X461610Y860300D01*
G54D60*
X459229Y803944D02*
X459229Y834900D01*
X483835Y859506D01*
G54D60*
X465579Y803944D02*
X465579Y828550D01*
X488598Y851569D01*
X507648Y851569D01*
X515585Y859506D01*
G54D60*
X471929Y803944D02*
X471929Y822994D01*
X493360Y844425D01*
X526698Y844425D01*
X542573Y860300D01*
G54D60*
X478279Y803944D02*
X478279Y817438D01*
X497329Y836488D01*
X544160Y836488D01*
X565592Y857919D01*
G54D60*
X484629Y803944D02*
X484629Y811881D01*
X500504Y827756D01*
X547335Y827756D01*
X558448Y838869D01*
X583804Y838887D01*
X593167Y848488D01*
G54D60*
X490979Y791244D02*
X490979Y799181D01*
X506854Y815056D01*
X571942Y815056D01*
X583054Y826169D01*
X615598Y826169D01*
G54D60*
X447323Y780925D02*
X547732Y780925D01*
G54D60*
X539398Y753938D02*
X557654Y753938D01*
X578292Y774575D01*
X614010Y774575D01*
X584809Y753529D02*
G54D64*
D03*
X584709Y721029D02*
G54D64*
D03*
G54D60*
X484629Y730919D02*
X484629Y744412D01*
X487804Y747588D01*
X500504Y747588D01*
X508442Y739650D01*
X557654Y739650D01*
X570354Y752350D01*
X582260Y752350D01*
G54D60*
X587817Y722188D02*
X610042Y722188D01*
G54D60*
X491773Y730919D02*
X566385Y730919D01*
X572735Y737269D01*
X598135Y737269D01*
X608454Y747588D01*
X480724Y634852D02*
G54D65*
D03*
X506124Y634852D02*
G54D65*
D03*
X530731Y634852D02*
G54D65*
D03*
X556131Y634852D02*
G54D65*
D03*
X581531Y634852D02*
G54D65*
D03*
X606931Y634852D02*
G54D65*
D03*
X531525Y634852D02*
G54D65*
D03*
X556925Y634852D02*
G54D65*
D03*
X582325Y634852D02*
G54D65*
D03*
X607725Y634852D02*
G54D65*
D03*
X633125Y634852D02*
G54D65*
D03*
X658525Y634852D02*
G54D65*
D03*
G54D60*
X623535Y749969D02*
X639410Y749969D01*
X658460Y730919D01*
X658460Y644400D01*
G54D60*
X621948Y722981D02*
X634648Y722981D01*
X643379Y714250D01*
X643379Y674562D01*
X633060Y664244D01*
X633060Y642812D01*
X633854Y642019D01*
G54D60*
X478279Y730919D02*
X478279Y716631D01*
X484629Y710281D01*
X567179Y710281D01*
X607660Y669800D01*
X607660Y639638D01*
X609248Y638050D01*
G54D60*
X471929Y730919D02*
X471929Y711075D01*
X481454Y701550D01*
X559242Y701550D01*
X582260Y678531D01*
X582260Y638050D01*
X583054Y637256D01*
G54D60*
X465579Y730919D02*
X465579Y705519D01*
X476692Y694406D01*
X542573Y694406D01*
X556860Y680119D01*
X556860Y644400D01*
G54D60*
X459229Y730919D02*
X459229Y699962D01*
X473517Y685675D01*
X521142Y685675D01*
X530667Y676150D01*
X530667Y639638D01*
X531460Y638844D01*
G54D60*
X452879Y730919D02*
X452879Y695200D01*
X470342Y677738D01*
X489392Y677738D01*
X505267Y661862D01*
X505267Y643606D01*
X506060Y642812D01*
G54D60*
X446529Y730919D02*
X446529Y689644D01*
X478279Y657894D01*
X478279Y645988D01*
X479867Y644400D01*
G54D60*
X440179Y730919D02*
X440179Y740444D01*
X468754Y769019D01*
X551304Y769019D01*
X576704Y794419D01*
X608454Y794419D01*
X516212Y754663D02*
G54D64*
D03*
X516312Y787163D02*
G54D64*
D03*
G54D60*
X517173Y769019D02*
X517173Y755525D01*
G54D60*
X427479Y730919D02*
X427479Y695994D01*
X452879Y670594D01*
X452879Y642019D01*
X453673Y641225D01*
G54D60*
X421129Y730919D02*
X421129Y671388D01*
X427479Y665038D01*
X427479Y641225D01*
G54D21*
X-53180Y575362D02*
X1036638Y575362D01*
X1039020Y572980D01*
G54D21*
X-51593Y940884D02*
X1038226Y940884D01*
X1040607Y938502D01*
G54D60*
X427595Y803689D02*
X427595Y841902D01*
X421085Y848412D01*
X378223Y848412D01*
G54D60*
X433945Y804483D02*
X433945Y848252D01*
X421879Y860318D01*
X343986Y860318D01*
X323725Y880579D01*
G54D60*
X440296Y804483D02*
X440296Y866508D01*
X429023Y877780D01*
G54D60*
X187768Y764399D02*
X205109Y764399D01*
X222242Y781532D01*
G54D27*
X177768Y764400D02*
X177768Y781307D01*
X191692Y795230D01*
X255192Y795230D01*
X308373Y848412D01*
X421085Y848412D01*
X427595Y841902D01*
X427595Y803689D01*
X352620Y915568D02*
G54D56*
D03*
G36*
X316619Y925572D02*
X332619Y925572D01*
X332619Y905572D01*
X316619Y905572D01*
X316619Y925572D01*
G37*
X352619Y915572D02*
G54D56*
D03*
G36*
X374561Y925572D02*
X390561Y925573D01*
X390561Y905573D01*
X374561Y905572D01*
X374561Y925572D01*
G37*
X410561Y915573D02*
G54D56*
D03*
X382560Y915568D02*
G54D56*
D03*
G54D60*
X375048Y802374D02*
X407479Y802374D01*
G54D60*
X625667Y848388D02*
X625667Y873481D01*
X623933Y875214D01*
X596080Y876678D02*
G54D56*
D03*
X624080Y876678D02*
G54D56*
D03*
X596080Y876682D02*
G54D56*
D03*
X711420Y680930D02*
G54D56*
D03*
X683420Y680930D02*
G54D56*
D03*
X711415Y680928D02*
G54D56*
D03*
X683415Y680928D02*
G54D56*
D03*
G54D21*
X-12699Y980968D02*
X-12699Y554724D01*
X-13493Y553930D01*
G54D21*
X804864Y981762D02*
X804864Y555518D01*
X804070Y554724D01*
G54D66*
X753223Y588781D02*
X753223Y633226D01*
X736556Y633226D01*
X729890Y630448D01*
X726556Y624892D01*
X726556Y597115D01*
X729890Y591559D01*
X736556Y588781D01*
X753223Y588781D01*
G54D66*
X748560Y588731D02*
X748560Y633176D01*
X731894Y633176D01*
X725227Y630398D01*
X721894Y624842D01*
X721894Y619287D01*
X725227Y613731D01*
X731894Y610953D01*
X748560Y610953D01*
G54D66*
X761548Y588781D02*
X761548Y633226D01*
X778215Y633226D01*
X784881Y630448D01*
X788215Y624892D01*
X788215Y619337D01*
X784881Y613781D01*
X778215Y611004D01*
X761548Y611004D01*
G54D66*
X757419Y592750D02*
X757419Y637194D01*
G54D66*
X744085Y637194D02*
X770752Y637194D01*
G54D67*
X440679Y922533D02*
X440679Y933200D01*
X446013Y933200D01*
X448146Y932533D01*
X449213Y931200D01*
X449213Y924533D01*
X448146Y923200D01*
X446013Y922533D01*
X440679Y922533D01*
G54D67*
X452945Y922533D02*
X452945Y933200D01*
X458279Y933200D01*
X460412Y932533D01*
X461479Y931200D01*
X461479Y929866D01*
X460412Y928533D01*
X458279Y927866D01*
X452945Y927866D01*
G54D67*
X469478Y922533D02*
X469478Y933200D01*
G54D67*
X465211Y933200D02*
X473745Y933200D01*
G54D67*
X477477Y922533D02*
X477477Y933200D01*
X482811Y933200D01*
X484944Y932533D01*
X486011Y931200D01*
X486011Y929866D01*
X484944Y928533D01*
X482811Y927866D01*
X477477Y927866D01*
G54D67*
X493689Y924533D02*
X494756Y923200D01*
X496889Y922533D01*
X499023Y922533D01*
X501156Y923200D01*
X502223Y924533D01*
X502223Y925866D01*
X501156Y927200D01*
X499023Y927866D01*
X496889Y927866D01*
X494756Y928533D01*
X493689Y929866D01*
X493689Y931200D01*
X494756Y932533D01*
X496889Y933200D01*
X499023Y933200D01*
X501156Y932533D01*
X502223Y931200D01*
G54D67*
X505955Y933200D02*
X511289Y927866D01*
X511289Y922533D01*
G54D67*
X511289Y927866D02*
X516622Y933200D01*
G54D67*
X520355Y924533D02*
X521422Y923200D01*
X523555Y922533D01*
X525689Y922533D01*
X527822Y923200D01*
X528889Y924533D01*
X528889Y925866D01*
X527822Y927200D01*
X525689Y927866D01*
X523555Y927866D01*
X521422Y928533D01*
X520355Y929866D01*
X520355Y931200D01*
X521422Y932533D01*
X523555Y933200D01*
X525689Y933200D01*
X527822Y932533D01*
X528889Y931200D01*
G54D67*
X536888Y922533D02*
X536888Y933200D01*
G54D67*
X532621Y933200D02*
X541155Y933200D01*
G54D67*
X552354Y922533D02*
X544887Y922533D01*
X544887Y933200D01*
X552354Y933200D01*
G54D67*
X544887Y927866D02*
X552354Y927866D01*
G54D67*
X556087Y922533D02*
X556087Y933200D01*
X561421Y926533D01*
X566754Y933200D01*
X566754Y922533D01*
G54D67*
X574433Y927200D02*
X582967Y927200D01*
G54D67*
X590645Y922533D02*
X590645Y928533D01*
G54D67*
X590645Y927200D02*
X591712Y928133D01*
X593845Y928533D01*
X595979Y928133D01*
X597045Y927200D01*
X597045Y922533D01*
G54D67*
X605045Y927866D02*
X608245Y926533D01*
X609312Y925200D01*
X609312Y922533D01*
G54D67*
X600778Y922533D02*
X600778Y933200D01*
X606112Y933200D01*
X608245Y932533D01*
X609312Y931200D01*
X609312Y929866D01*
X608245Y928533D01*
X606112Y927866D01*
X600778Y927866D01*
G54D67*
X613044Y922533D02*
X613044Y933200D01*
X620511Y933200D01*
G54D67*
X613044Y927866D02*
X620511Y927866D01*
G54D67*
X629578Y927866D02*
X627444Y927866D01*
X625311Y928533D01*
X624244Y929866D01*
X624244Y931200D01*
X625311Y932533D01*
X627444Y933200D01*
X629578Y933200D01*
X631711Y932533D01*
X632778Y931200D01*
X632778Y929866D01*
X631711Y928533D01*
X629578Y927866D01*
X631711Y927200D01*
X632778Y925866D01*
X632778Y924533D01*
X631711Y923200D01*
X629578Y922533D01*
X627444Y922533D01*
X625311Y923200D01*
X624244Y924533D01*
X624244Y925866D01*
X625311Y927200D01*
X627444Y927866D01*
G54D67*
X645044Y931200D02*
X645044Y924533D01*
X643977Y923200D01*
X641844Y922533D01*
X639710Y922533D01*
X637577Y923200D01*
X636510Y924533D01*
X636510Y931200D01*
X637577Y932533D01*
X639710Y933200D01*
X641844Y933200D01*
X643977Y932533D01*
X645044Y931200D01*
G54D67*
X657310Y931200D02*
X657310Y924533D01*
X656243Y923200D01*
X654110Y922533D01*
X651976Y922533D01*
X649843Y923200D01*
X648776Y924533D01*
X648776Y931200D01*
X649843Y932533D01*
X651976Y933200D01*
X654110Y933200D01*
X656243Y932533D01*
X657310Y931200D01*
G54D67*
X661042Y929200D02*
X666376Y933200D01*
X666376Y922533D01*
G54D67*
X674054Y927200D02*
X682588Y927200D01*
G54D67*
X690266Y922533D02*
X690266Y933200D01*
X695600Y933200D01*
X697733Y932533D01*
X698800Y931200D01*
X698800Y929866D01*
X697733Y928533D01*
X695600Y927866D01*
X690266Y927866D01*
G54D67*
X702532Y929200D02*
X707866Y933200D01*
X707866Y922533D01*
G54D67*
X716932Y927866D02*
X714798Y927866D01*
X712665Y928533D01*
X711598Y929866D01*
X711598Y931200D01*
X712665Y932533D01*
X714798Y933200D01*
X716932Y933200D01*
X719065Y932533D01*
X720132Y931200D01*
X720132Y929866D01*
X719065Y928533D01*
X716932Y927866D01*
X719065Y927200D01*
X720132Y925866D01*
X720132Y924533D01*
X719065Y923200D01*
X716932Y922533D01*
X714798Y922533D01*
X712665Y923200D01*
X711598Y924533D01*
X711598Y925866D01*
X712665Y927200D01*
X714798Y927866D01*
G54D67*
X723864Y922533D02*
X723864Y933200D01*
X731331Y933200D01*
G54D67*
X723864Y927866D02*
X731331Y927866D01*
G54D67*
X743598Y922533D02*
X735064Y922533D01*
X735064Y923200D01*
X736131Y924533D01*
X742531Y928533D01*
X743598Y929866D01*
X743598Y931200D01*
X742531Y932533D01*
X740398Y933200D01*
X738264Y933200D01*
X736131Y932533D01*
X735064Y931200D01*
G54D67*
X753730Y922533D02*
X753730Y933200D01*
X747330Y926533D01*
X747330Y925200D01*
X755864Y925200D01*
G54D67*
X759596Y922533D02*
X759596Y933200D01*
G54D67*
X759596Y925866D02*
X768130Y933200D01*
G54D67*
X762796Y927866D02*
X768130Y922533D01*
G54D67*
X780396Y922533D02*
X771862Y922533D01*
X771862Y923200D01*
X772929Y924533D01*
X779329Y928533D01*
X780396Y929866D01*
X780396Y931200D01*
X779329Y932533D01*
X777196Y933200D01*
X775062Y933200D01*
X772929Y932533D01*
X771862Y931200D01*
G54D67*
X792662Y931200D02*
X792662Y924533D01*
X791595Y923200D01*
X789462Y922533D01*
X787328Y922533D01*
X785195Y923200D01*
X784128Y924533D01*
X784128Y931200D01*
X785195Y932533D01*
X787328Y933200D01*
X789462Y933200D01*
X791595Y932533D01*
X792662Y931200D01*
G54D67*
X449334Y900308D02*
X440801Y900308D01*
X440801Y900975D01*
X441867Y902308D01*
X448267Y906308D01*
X449334Y907641D01*
X449334Y908975D01*
X448267Y910308D01*
X446134Y910975D01*
X444001Y910975D01*
X441867Y910308D01*
X440801Y908975D01*
G54D67*
X461600Y908975D02*
X461600Y902308D01*
X460533Y900975D01*
X458400Y900308D01*
X456267Y900308D01*
X454133Y900975D01*
X453067Y902308D01*
X453067Y908975D01*
X454133Y910308D01*
X456267Y910975D01*
X458400Y910975D01*
X460533Y910308D01*
X461600Y908975D01*
G54D67*
X465333Y906975D02*
X470666Y910975D01*
X470666Y900308D01*
G54D67*
X482932Y910975D02*
X474399Y910975D01*
X474399Y906308D01*
X475465Y906308D01*
X477599Y906975D01*
X479732Y906975D01*
X481865Y906308D01*
X482932Y904975D01*
X482932Y902308D01*
X481865Y900975D01*
X479732Y900308D01*
X477599Y900308D01*
X475465Y900975D01*
X474399Y902308D01*
G54D67*
X490611Y904975D02*
X499144Y904975D01*
G54D67*
X515356Y908975D02*
X515356Y902308D01*
X514289Y900975D01*
X512156Y900308D01*
X510023Y900308D01*
X507889Y900975D01*
X506823Y902308D01*
X506823Y908975D01*
X507889Y910308D01*
X510023Y910975D01*
X512156Y910975D01*
X514289Y910308D01*
X515356Y908975D01*
G54D67*
X519089Y906975D02*
X524422Y910975D01*
X524422Y900308D01*
G54D67*
X532101Y904975D02*
X540634Y904975D01*
G54D67*
X548313Y906975D02*
X553646Y910975D01*
X553646Y900308D01*
G54D67*
X565912Y908975D02*
X564845Y910308D01*
X562712Y910975D01*
X560579Y910975D01*
X558445Y910308D01*
X557379Y908975D01*
X557379Y905641D01*
X557379Y904975D01*
X560579Y906308D01*
X562712Y906308D01*
X564845Y905641D01*
X565912Y904308D01*
X565912Y902308D01*
X564845Y900975D01*
X562712Y900308D01*
X560579Y900308D01*
X558445Y900975D01*
X557379Y902308D01*
X557379Y905641D01*
X480724Y634852D02*
G54D63*
D03*
X506124Y634852D02*
G54D63*
D03*
X531524Y634852D02*
G54D63*
D03*
X556924Y634852D02*
G54D63*
D03*
X582324Y634852D02*
G54D63*
D03*
X607725Y634852D02*
G54D63*
D03*
X633125Y634852D02*
G54D63*
D03*
X658525Y634852D02*
G54D63*
D03*
X429924Y634852D02*
G54D63*
D03*
X455324Y634852D02*
G54D63*
D03*
X480724Y634852D02*
G54D63*
D03*
X464056Y872183D02*
G54D68*
D03*
X489456Y872183D02*
G54D68*
D03*
X514856Y872183D02*
G54D68*
D03*
X540256Y872183D02*
G54D68*
D03*
X565656Y872183D02*
G54D68*
D03*
G36*
X291272Y707118D02*
X312485Y685904D01*
X301878Y675298D01*
X280665Y696511D01*
X291272Y707118D01*
G37*
X296575Y691208D02*
G54D63*
D03*
X250511Y661285D02*
G54D63*
D03*
G36*
X291323Y749473D02*
X282131Y758666D01*
X294859Y771393D01*
X304051Y762201D01*
X291323Y749473D01*
G37*
G36*
X268413Y772525D02*
X259220Y781717D01*
X271948Y794445D01*
X281141Y785253D01*
X268413Y772525D01*
G37*
G36*
X328359Y823511D02*
X307146Y802298D01*
X296539Y812905D01*
X317753Y834118D01*
X328359Y823511D01*
G37*
X312449Y818208D02*
G54D63*
D03*
G54D27*
X198393Y753775D02*
X239676Y753775D01*
X269387Y783485D01*
X345186Y802496D02*
G54D64*
D03*
X345086Y769996D02*
G54D64*
D03*
X372173Y802496D02*
G54D64*
D03*
X372073Y769996D02*
G54D64*
D03*
G54D60*
X415529Y803168D02*
X415529Y817456D01*
X406798Y826187D01*
X355998Y826187D01*
X344885Y815074D01*
X344885Y802796D01*
X345186Y802496D01*
G54D27*
X198393Y743774D02*
X248186Y743774D01*
X295673Y791262D01*
X388542Y791262D01*
X408385Y771418D01*
X408385Y729237D01*
X408546Y729077D01*
G54D27*
X198393Y738775D02*
X253504Y738775D01*
X298054Y783324D01*
X382985Y783324D01*
X394892Y771418D01*
X394892Y711093D01*
X402035Y703949D01*
X411560Y703949D01*
X414735Y707124D01*
X414735Y728917D01*
X414895Y729077D01*
G36*
X327041Y713754D02*
X317849Y722946D01*
X330577Y735674D01*
X339769Y726482D01*
X327041Y713754D01*
G37*
G36*
X304131Y736806D02*
X294939Y745998D01*
X307667Y758726D01*
X316859Y749533D01*
X304131Y736806D01*
G37*
G54D27*
X198393Y733775D02*
X310451Y733775D01*
X340123Y763480D01*
X345086Y769996D01*
G54D27*
X198393Y728775D02*
X315736Y728775D01*
X340123Y753162D01*
X362348Y753162D01*
X371873Y762687D01*
X371873Y769796D01*
X372073Y769996D01*
G54D46*
X293091Y760433D02*
X293231Y760433D01*
X305899Y747766D01*
G54D60*
X328809Y722730D02*
X350314Y722730D01*
X396479Y676565D01*
X396479Y621796D01*
X408385Y609890D01*
X471092Y609890D01*
X480617Y619415D01*
X480724Y632868D01*
X308168Y629029D02*
G54D69*
D03*
X280168Y629029D02*
G54D69*
D03*
X308168Y629029D02*
G54D69*
D03*
G54D70*
X224318Y629316D02*
X279880Y629316D01*
X280168Y629029D01*
G54D60*
X421246Y803689D02*
X421246Y831583D01*
X412354Y840474D01*
X334715Y840474D01*
X312449Y818208D01*
X362717Y656810D02*
G54D56*
D03*
X390717Y656810D02*
G54D56*
D03*
X362720Y656818D02*
G54D56*
D03*
G54D71*
X13495Y865874D02*
X13495Y911118D01*
G36*
X8995Y865874D02*
X17995Y865874D01*
X17995Y861374D01*
X8995Y861374D01*
X8995Y865874D01*
G37*
G36*
X17995Y911118D02*
X8995Y911118D01*
X8995Y915618D01*
X17995Y915618D01*
X17995Y911118D01*
G37*
G54D70*
X34529Y863890D02*
X34529Y913102D01*
G36*
X32029Y863890D02*
X37029Y863890D01*
X37029Y861390D01*
X32029Y861390D01*
X32029Y863890D01*
G37*
G36*
X37029Y913102D02*
X32029Y913102D01*
X32029Y915602D01*
X37029Y915602D01*
X37029Y913102D01*
G37*
G54D70*
X150417Y873415D02*
X150417Y913102D01*
X128588Y913102D01*
X128588Y886512D01*
X103585Y886512D01*
X103585Y913102D01*
X81360Y913102D01*
X81360Y886512D01*
X56357Y886512D01*
X56357Y913102D01*
X12304Y913102D01*
G36*
X147917Y873415D02*
X152917Y873415D01*
X152917Y870915D01*
X147917Y870915D01*
X147917Y873415D01*
G37*
G36*
X12304Y915602D02*
X12304Y910602D01*
X9804Y910602D01*
X9804Y915602D01*
X12304Y915602D01*
G37*
X30300Y831606D02*
G54D59*
D03*
X11300Y831607D02*
G54D59*
D03*
X11460Y831778D02*
G54D59*
D03*
G54D58*
X111639Y831402D02*
X80202Y831391D01*
G54D58*
X52202Y831391D02*
X20990Y831391D01*
X20775Y831606D01*
G54D70*
X34529Y863890D02*
X34529Y833851D01*
X32284Y831606D01*
G54D71*
X13495Y865874D02*
X13495Y831828D01*
X13445Y831778D01*
X28941Y668687D02*
G54D72*
D03*
X29035Y778225D02*
G54D72*
D03*
X44534Y600746D02*
G54D55*
D03*
X44534Y628740D02*
G54D55*
D03*
X44534Y600741D02*
G54D55*
D03*
X12387Y600746D02*
G54D55*
D03*
X12388Y628741D02*
G54D55*
D03*
X12388Y600741D02*
G54D55*
D03*
G54D70*
X669653Y803578D02*
X688976Y778165D01*
X688976Y708712D01*
X696914Y700774D01*
X696914Y609890D01*
X679451Y592030D01*
X118270Y591237D01*
X109538Y599968D01*
X109538Y633819D01*
X133036Y657316D01*
G54D58*
X99684Y659280D02*
X99684Y644521D01*
X89578Y634415D01*
G54D58*
X70634Y660882D02*
X70634Y621013D01*
X76598Y615049D01*
X89212Y615049D01*
X89578Y615415D01*
G54D27*
X141449Y733775D02*
X130120Y733775D01*
X106048Y709704D01*
X57746Y709704D01*
X50007Y701965D01*
X50007Y670612D01*
X60723Y659896D01*
X69648Y659896D01*
X70634Y660882D01*
G54D27*
X141449Y743774D02*
X51854Y743774D01*
X28576Y767052D01*
G54D27*
X141449Y738775D02*
X121742Y738775D01*
X107157Y724190D01*
X54770Y724190D01*
X28576Y697996D01*
X28576Y680534D01*
X27782Y679740D01*
G54D58*
X44534Y628740D02*
X44534Y653094D01*
X28941Y668687D01*
G54D58*
X28576Y767052D02*
X28576Y730540D01*
X11114Y713077D01*
X11114Y630014D01*
X12388Y628740D01*
G36*
X698555Y840952D02*
X710555Y840952D01*
X710555Y826952D01*
X698555Y826952D01*
X698555Y840952D01*
G37*
G36*
X721555Y840952D02*
X733555Y840952D01*
X733555Y826952D01*
X721555Y826952D01*
X721555Y840952D01*
G37*
G36*
X744555Y840952D02*
X756555Y840952D01*
X756555Y826952D01*
X744555Y826952D01*
X744555Y840952D01*
G37*
X727555Y771952D02*
G54D73*
D03*
X727555Y771952D02*
G54D73*
D03*
X746330Y858723D02*
G54D74*
D03*
X708730Y858823D02*
G54D74*
D03*
G54D58*
X704555Y833952D02*
X704555Y854649D01*
X708730Y858823D01*
G54D58*
X750555Y833952D02*
X750555Y854498D01*
X746330Y858723D01*
X780266Y850132D02*
G54D55*
D03*
X780266Y822132D02*
G54D55*
D03*
X780267Y850125D02*
G54D55*
D03*
X681879Y862036D02*
G54D75*
D03*
X681979Y899636D02*
G54D75*
D03*
X681978Y899636D02*
G54D75*
D03*
X669653Y803578D02*
G54D65*
D03*
X669662Y763788D02*
G54D76*
D03*
G54D58*
X708730Y858823D02*
X685092Y858823D01*
X681879Y862036D01*
G54D58*
X681879Y862036D02*
X681879Y815804D01*
X669653Y803578D01*
X748585Y723557D02*
G54D77*
D03*
X723185Y723559D02*
G54D77*
D03*
X723185Y721971D02*
G54D63*
D03*
X748585Y721971D02*
G54D63*
D03*
G54D58*
X750555Y833952D02*
X768446Y833952D01*
X780266Y822132D01*
G54D58*
X669653Y799212D02*
X621450Y799212D01*
G54D58*
X780266Y822132D02*
X780266Y755238D01*
X748585Y723557D01*
G54D27*
X141449Y748774D02*
X108759Y748774D01*
X86182Y771351D01*
G54D27*
X152798Y761893D02*
X152798Y778842D01*
X146530Y785110D01*
X99941Y785110D01*
X86182Y771351D01*
M02*
