%FSLAX34Y34*%
%MOMM*%
%LNOUTLINE*%
G71*
G01*
%ADD10C, 0.16*%
%ADD11C, 0.24*%
%ADD12C, 0.16*%
%LPD*%
G54D10*
X607622Y691681D02*
X607623Y700570D01*
X609845Y700570D01*
X610734Y700014D01*
X611178Y698903D01*
X611178Y697792D01*
X610734Y696681D01*
X609845Y696125D01*
X607622Y696125D01*
G54D10*
X616100Y696125D02*
X617878Y696125D01*
X617878Y693348D01*
X617434Y692236D01*
X616545Y691681D01*
X615656Y691681D01*
X614767Y692236D01*
X614322Y693347D01*
X614322Y698903D01*
X614767Y700014D01*
X615656Y700570D01*
X616545Y700570D01*
X617434Y700014D01*
X617878Y698903D01*
G54D10*
X621022Y691681D02*
X621022Y700570D01*
X623245Y695014D01*
X625467Y700570D01*
X625467Y691681D01*
G54D10*
X608635Y717675D02*
X608635Y726564D01*
X610857Y726563D01*
X611746Y726008D01*
X612191Y724897D01*
X612191Y723786D01*
X611746Y722675D01*
X610857Y722119D01*
X608635Y722119D01*
G54D10*
X617113Y722119D02*
X618891Y722119D01*
X618891Y719341D01*
X618446Y718230D01*
X617557Y717675D01*
X616669Y717675D01*
X615780Y718230D01*
X615335Y719342D01*
X615335Y724897D01*
X615780Y726008D01*
X616668Y726564D01*
X617557Y726564D01*
X618446Y726008D01*
X618891Y724897D01*
G54D10*
X625591Y719341D02*
X625146Y718230D01*
X624257Y717675D01*
X623368Y717675D01*
X622480Y718230D01*
X622035Y719341D01*
X622035Y724897D01*
X622480Y726008D01*
X623368Y726564D01*
X624257Y726563D01*
X625146Y726008D01*
X625591Y724897D01*
G54D10*
X608824Y744675D02*
X608824Y753564D01*
X611047Y753564D01*
X611935Y753008D01*
X612380Y751897D01*
X612380Y750786D01*
X611935Y749675D01*
X611047Y749119D01*
X608824Y749120D01*
G54D10*
X617302Y749119D02*
X619080Y749119D01*
X619080Y746342D01*
X618635Y745231D01*
X617747Y744675D01*
X616858Y744675D01*
X615969Y745230D01*
X615524Y746342D01*
X615524Y751897D01*
X615969Y753008D01*
X616858Y753564D01*
X617747Y753564D01*
X618635Y753008D01*
X619080Y751897D01*
G54D10*
X622224Y744675D02*
X622224Y753564D01*
X624446Y753564D01*
X625335Y753008D01*
X625780Y751897D01*
X625780Y746342D01*
X625335Y745230D01*
X624446Y744675D01*
X622224Y744675D01*
G54D10*
X610613Y773713D02*
X612391Y773713D01*
X612391Y770935D01*
X611946Y769824D01*
X611057Y769268D01*
X610168Y769268D01*
X609279Y769824D01*
X608835Y770935D01*
X608835Y776491D01*
X609279Y777602D01*
X610168Y778157D01*
X611057Y778157D01*
X611946Y777602D01*
X612391Y776491D01*
G54D10*
X615535Y769268D02*
X615535Y778157D01*
X619091Y769268D01*
X619091Y778157D01*
G54D10*
X622235Y769268D02*
X622235Y778157D01*
X624457Y778157D01*
X625346Y777602D01*
X625791Y776490D01*
X625791Y770935D01*
X625346Y769824D01*
X624457Y769268D01*
X622235Y769268D01*
G54D10*
X607523Y803757D02*
X609745Y794868D01*
X611967Y803757D01*
G54D10*
X615023Y794868D02*
X615023Y803757D01*
X617245Y803757D01*
X618134Y803202D01*
X618578Y802091D01*
X618578Y796535D01*
X618134Y795424D01*
X617245Y794868D01*
X615023Y794868D01*
G54D10*
X621723Y794868D02*
X621723Y803757D01*
X623945Y803757D01*
X624834Y803202D01*
X625278Y802091D01*
X625278Y796535D01*
X624834Y795424D01*
X623945Y794868D01*
X621723Y794868D01*
G54D10*
X604431Y819462D02*
X604431Y828351D01*
X606653Y822796D01*
X608875Y828351D01*
X608875Y819462D01*
G54D10*
X615486Y821129D02*
X615042Y820018D01*
X614153Y819462D01*
X613264Y819462D01*
X612375Y820018D01*
X611931Y821129D01*
X611931Y826684D01*
X612375Y827796D01*
X613264Y828351D01*
X614153Y828351D01*
X615042Y827796D01*
X615486Y826685D01*
G54D10*
X618631Y828351D02*
X618631Y819462D01*
X621742Y819462D01*
G54D10*
X626609Y823907D02*
X627942Y822796D01*
X628386Y821685D01*
X628386Y819462D01*
G54D10*
X624831Y819462D02*
X624831Y828351D01*
X627053Y828351D01*
X627942Y827796D01*
X628386Y826685D01*
X628386Y825574D01*
X627942Y824462D01*
X627053Y823907D01*
X624831Y823907D01*
G54D11*
X333159Y879178D02*
X339826Y884178D01*
X339826Y870845D01*
G54D11*
X355226Y881678D02*
X353892Y883345D01*
X351226Y884178D01*
X348559Y884178D01*
X345892Y883345D01*
X344559Y881678D01*
X344559Y877512D01*
X344559Y876678D01*
X348559Y878345D01*
X351226Y878345D01*
X353892Y877512D01*
X355226Y875845D01*
X355226Y873345D01*
X353892Y871678D01*
X351226Y870845D01*
X348559Y870845D01*
X345892Y871678D01*
X344559Y873345D01*
X344559Y877512D01*
G54D11*
X359959Y870845D02*
X359959Y884178D01*
X366626Y875845D01*
X373292Y884178D01*
X373292Y870845D01*
G54D11*
X377959Y870845D02*
X377959Y884178D01*
G54D11*
X388626Y870845D02*
X388626Y884178D01*
G54D11*
X377959Y877512D02*
X388626Y877512D01*
G54D11*
X393359Y878345D02*
X401359Y878345D01*
X393359Y870845D01*
X401359Y870845D01*
G54D10*
X519627Y785501D02*
X522960Y783279D01*
X514072Y783279D01*
G54D10*
X521294Y776645D02*
X515738Y776645D01*
X514627Y777090D01*
X514072Y777979D01*
X514072Y778868D01*
X514627Y779757D01*
X515738Y780201D01*
X521294Y780201D01*
X522405Y779757D01*
X522960Y778868D01*
X522960Y777979D01*
X522405Y777090D01*
X521294Y776645D01*
G54D10*
X521294Y769946D02*
X515738Y769946D01*
X514627Y770390D01*
X514072Y771279D01*
X514072Y772168D01*
X514627Y773057D01*
X515738Y773501D01*
X521294Y773501D01*
X522405Y773057D01*
X522960Y772168D01*
X522960Y771279D01*
X522405Y770390D01*
X521294Y769946D01*
G54D10*
X514072Y766801D02*
X519072Y766801D01*
G54D10*
X517960Y766801D02*
X518738Y766357D01*
X519072Y765468D01*
X518738Y764579D01*
X517960Y764134D01*
X514072Y764134D01*
G54D10*
X514072Y761001D02*
X522960Y761001D01*
X522960Y757890D01*
G54D10*
X518516Y761001D02*
X518516Y757890D01*
G54D10*
X359314Y910944D02*
X355758Y910944D01*
X355758Y911500D01*
X356203Y912611D01*
X358870Y915944D01*
X359314Y917055D01*
X359314Y918166D01*
X358870Y919277D01*
X357981Y919833D01*
X357092Y919833D01*
X356203Y919277D01*
X355758Y918166D01*
G54D10*
X366014Y910944D02*
X362458Y910944D01*
X362458Y911500D01*
X362903Y912611D01*
X365570Y915944D01*
X366014Y917055D01*
X366014Y918166D01*
X365570Y919278D01*
X364681Y919833D01*
X363792Y919833D01*
X362903Y919278D01*
X362458Y918166D01*
G54D10*
X369158Y915944D02*
X369158Y908722D01*
G54D10*
X369158Y912611D02*
X369603Y911166D01*
X370492Y910944D01*
X371381Y911166D01*
X371825Y912277D01*
X371825Y914500D01*
X371381Y915611D01*
X370492Y915944D01*
X369603Y915611D01*
X369158Y914278D01*
G54D10*
X374958Y910944D02*
X374958Y919833D01*
X378070Y919833D01*
G54D10*
X374958Y915388D02*
X378070Y915388D01*
G54D10*
X569444Y808763D02*
X571666Y812096D01*
X571666Y803207D01*
G54D10*
X578299Y810429D02*
X578299Y804874D01*
X577855Y803763D01*
X576966Y803207D01*
X576077Y803207D01*
X575188Y803763D01*
X574744Y804874D01*
X574744Y810429D01*
X575188Y811541D01*
X576077Y812096D01*
X576966Y812096D01*
X577855Y811541D01*
X578299Y810429D01*
G54D10*
X581444Y803207D02*
X581444Y812096D01*
G54D10*
X581444Y805985D02*
X584999Y812096D01*
G54D10*
X582777Y807652D02*
X584999Y803207D01*
G54D10*
X423488Y626072D02*
X423488Y634960D01*
G54D10*
X421711Y634960D02*
X425266Y634960D01*
G54D10*
X428411Y634960D02*
X432855Y626072D01*
G54D10*
X428411Y626072D02*
X432855Y634960D01*
G54D10*
X449719Y630473D02*
X451052Y629362D01*
X451497Y628251D01*
X451497Y626028D01*
G54D10*
X447941Y626028D02*
X447941Y634917D01*
X450164Y634917D01*
X451052Y634362D01*
X451497Y633251D01*
X451497Y632140D01*
X451052Y631028D01*
X450164Y630473D01*
X447941Y630473D01*
G54D10*
X454641Y634917D02*
X459086Y626028D01*
G54D10*
X454641Y626028D02*
X459086Y634917D01*
G54D11*
X27576Y689356D02*
X22576Y696023D01*
X35910Y696023D01*
G54D11*
X25076Y711423D02*
X23410Y710089D01*
X22576Y707423D01*
X22576Y704756D01*
X23410Y702089D01*
X25076Y700756D01*
X29243Y700756D01*
X30076Y700756D01*
X28410Y704756D01*
X28410Y707423D01*
X29243Y710089D01*
X30910Y711423D01*
X33410Y711423D01*
X35076Y710089D01*
X35910Y707423D01*
X35910Y704756D01*
X35076Y702089D01*
X33410Y700756D01*
X29243Y700756D01*
G54D11*
X35910Y716156D02*
X22576Y716156D01*
X30910Y722823D01*
X22576Y729489D01*
X35910Y729489D01*
G54D11*
X35910Y734156D02*
X22576Y734156D01*
G54D11*
X35910Y744823D02*
X22576Y744823D01*
G54D11*
X29243Y734156D02*
X29243Y744823D01*
G54D11*
X28410Y749556D02*
X28410Y757556D01*
X35910Y749556D01*
X35910Y757556D01*
G54D10*
X21176Y609319D02*
X17621Y609319D01*
X17621Y609875D01*
X18065Y610986D01*
X20732Y614319D01*
X21176Y615430D01*
X21176Y616541D01*
X20732Y617652D01*
X19843Y618208D01*
X18954Y618208D01*
X18065Y617652D01*
X17621Y616541D01*
G54D10*
X27876Y609319D02*
X24321Y609319D01*
X24321Y609875D01*
X24765Y610986D01*
X27432Y614319D01*
X27876Y615430D01*
X27876Y616541D01*
X27432Y617653D01*
X26543Y618208D01*
X25654Y618208D01*
X24765Y617653D01*
X24321Y616541D01*
G54D10*
X31021Y614319D02*
X31021Y607097D01*
G54D10*
X31021Y610986D02*
X31465Y609541D01*
X32354Y609319D01*
X33243Y609541D01*
X33688Y610652D01*
X33688Y612875D01*
X33243Y613986D01*
X32354Y614319D01*
X31465Y613986D01*
X31021Y612653D01*
G54D10*
X36821Y609319D02*
X36821Y618208D01*
X39932Y618208D01*
G54D10*
X36821Y613764D02*
X39932Y613764D01*
G54D10*
X679562Y782944D02*
X683117Y782944D01*
X683117Y782388D01*
X682673Y781277D01*
X680006Y777944D01*
X679561Y776833D01*
X679562Y775722D01*
X680006Y774611D01*
X680895Y774055D01*
X681784Y774055D01*
X682673Y774611D01*
X683117Y775722D01*
G54D10*
X676417Y782944D02*
X676417Y782944D01*
G54D10*
X669762Y782944D02*
X673317Y782944D01*
X673317Y782388D01*
X672873Y781277D01*
X670206Y777944D01*
X669762Y776833D01*
X669762Y775722D01*
X670206Y774611D01*
X671095Y774055D01*
X671984Y774055D01*
X672873Y774611D01*
X673317Y775722D01*
G54D10*
X663951Y777944D02*
X663951Y782944D01*
G54D10*
X663951Y781833D02*
X664395Y782722D01*
X665284Y782944D01*
X666173Y782722D01*
X666617Y781833D01*
X666617Y777944D01*
G54D10*
X660817Y782944D02*
X660817Y774055D01*
X657706Y774055D01*
G54D10*
X660817Y778500D02*
X657706Y778500D01*
G54D12*
X706373Y720766D02*
X709929Y720766D01*
X709929Y717988D01*
X709040Y716877D01*
X707262Y716321D01*
X705484Y716321D01*
X703707Y716877D01*
X702818Y717988D01*
X702818Y723543D01*
X703707Y724654D01*
X705484Y725210D01*
X707262Y725210D01*
X709040Y724654D01*
X709929Y723543D01*
G54D12*
X713040Y716321D02*
X713040Y725210D01*
X720151Y716321D01*
X720151Y725210D01*
G54D12*
X723262Y716321D02*
X723262Y725210D01*
X727706Y725210D01*
X729484Y724654D01*
X730373Y723543D01*
X730373Y717988D01*
X729484Y716877D01*
X727706Y716321D01*
X723262Y716321D01*
G54D12*
X756951Y724416D02*
X749840Y724416D01*
X749840Y720527D01*
X750729Y720527D01*
X752507Y721082D01*
X754285Y721082D01*
X756063Y720527D01*
X756951Y719416D01*
X756951Y717193D01*
X756063Y716082D01*
X754285Y715527D01*
X752507Y715527D01*
X750729Y716082D01*
X749840Y717193D01*
G54D12*
X760062Y720527D02*
X763618Y715527D01*
X767173Y720527D01*
M02*
