%FSLAX34Y34*%
%MOMM*%
%LNSMDMASK_TOP*%
G71*
G01*
%ADD10R, 3.20X3.20*%
%ADD11R, 1.40X0.52*%
%ADD12R, 0.52X1.40*%
%ADD13R, 2.20X1.80*%
%ADD14R, 1.80X2.20*%
%ADD15R, 1.80X1.50*%
%ADD16R, 1.50X1.80*%
%ADD17R, 0.42X2.20*%
%ADD18R, 3.20X1.70*%
%ADD19R, 2.00X1.50*%
%ADD20R, 1.70X3.20*%
%ADD21R, 1.80X1.80*%
%ADD22R, 1.20X4.20*%
%ADD23R, 3.70X1.60*%
%ADD24R, 1.50X2.20*%
%ADD25R, 2.20X1.50*%
%ADD26R, 1.60X3.20*%
%ADD27R, 2.20X4.20*%
%LPD*%
X170612Y735714D02*
G54D10*
D03*
X141449Y718775D02*
G54D11*
D03*
X141449Y723775D02*
G54D11*
D03*
X141449Y728775D02*
G54D11*
D03*
X141449Y733775D02*
G54D11*
D03*
X141449Y738775D02*
G54D11*
D03*
X141449Y743775D02*
G54D11*
D03*
X141449Y748775D02*
G54D11*
D03*
X141449Y753775D02*
G54D11*
D03*
X152768Y764400D02*
G54D12*
D03*
X157768Y764400D02*
G54D12*
D03*
X162768Y764400D02*
G54D12*
D03*
X167768Y764400D02*
G54D12*
D03*
X172768Y764400D02*
G54D12*
D03*
X177768Y764400D02*
G54D12*
D03*
X182768Y764400D02*
G54D12*
D03*
X187768Y764399D02*
G54D12*
D03*
X198393Y753775D02*
G54D11*
D03*
X198393Y748775D02*
G54D11*
D03*
X198393Y743775D02*
G54D11*
D03*
X198393Y738775D02*
G54D11*
D03*
X198393Y733775D02*
G54D11*
D03*
X198393Y728775D02*
G54D11*
D03*
X198393Y723774D02*
G54D11*
D03*
X198393Y718774D02*
G54D11*
D03*
X187768Y708150D02*
G54D12*
D03*
X182768Y708150D02*
G54D12*
D03*
X177768Y708150D02*
G54D12*
D03*
X172768Y708150D02*
G54D12*
D03*
X167768Y708150D02*
G54D12*
D03*
X162768Y708150D02*
G54D12*
D03*
X157768Y708150D02*
G54D12*
D03*
X152768Y708150D02*
G54D12*
D03*
X133036Y657316D02*
G54D13*
D03*
X133036Y629316D02*
G54D13*
D03*
X133040Y629318D02*
G54D13*
D03*
X162405Y657316D02*
G54D13*
D03*
X162405Y629316D02*
G54D13*
D03*
X162404Y629316D02*
G54D13*
D03*
X193361Y657316D02*
G54D13*
D03*
X193361Y629316D02*
G54D13*
D03*
X193358Y629315D02*
G54D13*
D03*
G36*
X242011Y672285D02*
X259011Y672285D01*
X259011Y650285D01*
X242011Y650285D01*
X242011Y672285D01*
G37*
G36*
X211636Y714641D02*
X229636Y714641D01*
X229636Y692641D01*
X211636Y692641D01*
X211636Y714641D01*
G37*
X248636Y703641D02*
G54D14*
D03*
X99684Y659280D02*
G54D15*
D03*
X99684Y678280D02*
G54D15*
D03*
X89578Y615415D02*
G54D15*
D03*
X89578Y634415D02*
G54D15*
D03*
X70634Y660882D02*
G54D13*
D03*
X70634Y688882D02*
G54D13*
D03*
X125098Y798822D02*
G54D13*
D03*
X125098Y770822D02*
G54D13*
D03*
G36*
X84768Y757209D02*
X72040Y769937D01*
X87597Y785493D01*
X100324Y772765D01*
X84768Y757209D01*
G37*
G36*
X64969Y777008D02*
X52241Y789736D01*
X67797Y805292D01*
X80525Y792564D01*
X64969Y777008D01*
G37*
G36*
X67806Y805290D02*
X80534Y792562D01*
X64978Y777006D01*
X52250Y789734D01*
X67806Y805290D01*
G37*
X174266Y831432D02*
G54D16*
D03*
X155266Y831432D02*
G54D16*
D03*
X130242Y831402D02*
G54D16*
D03*
X111242Y831402D02*
G54D16*
D03*
X56568Y831391D02*
G54D14*
D03*
X84568Y831391D02*
G54D14*
D03*
X193214Y863727D02*
G54D16*
D03*
X174214Y863727D02*
G54D16*
D03*
X248666Y847239D02*
G54D14*
D03*
X220666Y847239D02*
G54D14*
D03*
X248666Y879783D02*
G54D14*
D03*
X220666Y879783D02*
G54D14*
D03*
X248670Y847238D02*
G54D14*
D03*
X248670Y879788D02*
G54D14*
D03*
X222241Y809532D02*
G54D13*
D03*
X222242Y781532D02*
G54D13*
D03*
X224318Y657316D02*
G54D13*
D03*
X224318Y629317D02*
G54D13*
D03*
X222250Y809528D02*
G54D13*
D03*
X248640Y703638D02*
G54D14*
D03*
X491095Y729077D02*
G54D17*
D03*
X484745Y729077D02*
G54D17*
D03*
X478396Y729077D02*
G54D17*
D03*
X472045Y729077D02*
G54D17*
D03*
X465695Y729077D02*
G54D17*
D03*
X459346Y729077D02*
G54D17*
D03*
X452995Y729077D02*
G54D17*
D03*
X446645Y729077D02*
G54D17*
D03*
X440295Y729077D02*
G54D17*
D03*
X433945Y729077D02*
G54D17*
D03*
X427595Y729077D02*
G54D17*
D03*
X421246Y729077D02*
G54D17*
D03*
X414895Y729077D02*
G54D17*
D03*
X408546Y729077D02*
G54D17*
D03*
X491096Y798927D02*
G54D17*
D03*
X484745Y798927D02*
G54D17*
D03*
X478396Y798927D02*
G54D17*
D03*
X472046Y798927D02*
G54D17*
D03*
X465695Y798927D02*
G54D17*
D03*
X459345Y798927D02*
G54D17*
D03*
X452995Y798927D02*
G54D17*
D03*
X446645Y798927D02*
G54D17*
D03*
X440296Y798927D02*
G54D17*
D03*
X433945Y798927D02*
G54D17*
D03*
X427595Y798927D02*
G54D17*
D03*
X421246Y798927D02*
G54D17*
D03*
X414895Y798927D02*
G54D17*
D03*
X408546Y798927D02*
G54D17*
D03*
X616893Y824558D02*
G54D18*
D03*
X616894Y798364D02*
G54D18*
D03*
G36*
X600890Y781462D02*
X632890Y781462D01*
X632890Y764462D01*
X600890Y764462D01*
X600890Y781462D01*
G37*
X616894Y747564D02*
G54D18*
D03*
X616894Y722164D02*
G54D18*
D03*
G36*
X600893Y705264D02*
X632893Y705264D01*
X632893Y688264D01*
X600893Y688264D01*
X600893Y705264D01*
G37*
G36*
X291490Y883814D02*
X333490Y883814D01*
X333490Y871814D01*
X291490Y871814D01*
X291490Y883814D01*
G37*
G36*
X401028Y883720D02*
X443028Y883720D01*
X443028Y871720D01*
X401028Y871720D01*
X401028Y883720D01*
G37*
X576488Y790827D02*
G54D19*
D03*
X576588Y823327D02*
G54D19*
D03*
G36*
X585667Y860076D02*
X600667Y860076D01*
X600667Y840076D01*
X585667Y840076D01*
X585667Y860076D01*
G37*
G36*
X618167Y859976D02*
X633167Y859976D01*
X633167Y839976D01*
X618167Y839976D01*
X618167Y859976D01*
G37*
X541946Y786867D02*
G54D19*
D03*
X541846Y754367D02*
G54D19*
D03*
X429924Y634852D02*
G54D20*
D03*
X455324Y634852D02*
G54D20*
D03*
X464056Y871390D02*
G54D20*
D03*
X489456Y871390D02*
G54D20*
D03*
X514856Y871390D02*
G54D20*
D03*
X540256Y871390D02*
G54D20*
D03*
X565656Y871390D02*
G54D20*
D03*
X584809Y753529D02*
G54D19*
D03*
X584709Y721029D02*
G54D19*
D03*
X480724Y634852D02*
G54D20*
D03*
X506124Y634852D02*
G54D20*
D03*
X530731Y634852D02*
G54D20*
D03*
X556131Y634852D02*
G54D20*
D03*
X581531Y634852D02*
G54D20*
D03*
X606931Y634852D02*
G54D20*
D03*
X531525Y634852D02*
G54D20*
D03*
X556925Y634852D02*
G54D20*
D03*
X582325Y634852D02*
G54D20*
D03*
X607725Y634852D02*
G54D20*
D03*
X633125Y634852D02*
G54D20*
D03*
X658525Y634852D02*
G54D20*
D03*
X516212Y754663D02*
G54D19*
D03*
X516312Y787163D02*
G54D19*
D03*
X352620Y915568D02*
G54D14*
D03*
G36*
X315619Y926572D02*
X333619Y926572D01*
X333619Y904572D01*
X315619Y904572D01*
X315619Y926572D01*
G37*
X352619Y915572D02*
G54D14*
D03*
G36*
X373561Y926572D02*
X391561Y926573D01*
X391561Y904573D01*
X373561Y904572D01*
X373561Y926572D01*
G37*
X410561Y915573D02*
G54D14*
D03*
X382560Y915568D02*
G54D14*
D03*
X596080Y876678D02*
G54D14*
D03*
X624080Y876678D02*
G54D14*
D03*
X596080Y876682D02*
G54D14*
D03*
X711420Y680930D02*
G54D14*
D03*
X683420Y680930D02*
G54D14*
D03*
X711415Y680928D02*
G54D14*
D03*
X683415Y680928D02*
G54D14*
D03*
G36*
X291272Y708532D02*
X313899Y685904D01*
X301878Y673884D01*
X279251Y696511D01*
X291272Y708532D01*
G37*
G36*
X291323Y748059D02*
X280717Y758666D01*
X294859Y772808D01*
X305465Y762201D01*
X291323Y748059D01*
G37*
G36*
X268413Y771111D02*
X257806Y781717D01*
X271948Y795859D01*
X282555Y785253D01*
X268413Y771111D01*
G37*
G36*
X329773Y823511D02*
X307146Y800884D01*
X295125Y812905D01*
X317753Y835532D01*
X329773Y823511D01*
G37*
X345186Y802496D02*
G54D19*
D03*
X345086Y769996D02*
G54D19*
D03*
X372173Y802496D02*
G54D19*
D03*
X372073Y769996D02*
G54D19*
D03*
G36*
X327041Y712340D02*
X316435Y722946D01*
X330577Y737089D01*
X341183Y726482D01*
X327041Y712340D01*
G37*
G36*
X304131Y735391D02*
X293524Y745998D01*
X307667Y760140D01*
X318273Y749533D01*
X304131Y735391D01*
G37*
X308168Y629029D02*
G54D21*
D03*
X280168Y629029D02*
G54D21*
D03*
X308168Y629029D02*
G54D21*
D03*
X362717Y656810D02*
G54D14*
D03*
X390717Y656810D02*
G54D14*
D03*
X362720Y656818D02*
G54D14*
D03*
X30300Y831606D02*
G54D16*
D03*
X11300Y831607D02*
G54D16*
D03*
X11460Y831778D02*
G54D16*
D03*
X28941Y668687D02*
G54D22*
D03*
X29035Y778225D02*
G54D22*
D03*
X44534Y600746D02*
G54D13*
D03*
X44534Y628740D02*
G54D13*
D03*
X44534Y600741D02*
G54D13*
D03*
X12387Y600746D02*
G54D13*
D03*
X12388Y628741D02*
G54D13*
D03*
X12388Y600741D02*
G54D13*
D03*
G36*
X697555Y841952D02*
X711555Y841952D01*
X711555Y825952D01*
X697555Y825952D01*
X697555Y841952D01*
G37*
G36*
X720555Y841952D02*
X734555Y841952D01*
X734555Y825952D01*
X720555Y825952D01*
X720555Y841952D01*
G37*
G36*
X743555Y841952D02*
X757555Y841952D01*
X757555Y825952D01*
X743555Y825952D01*
X743555Y841952D01*
G37*
X727555Y771952D02*
G54D23*
D03*
X727555Y771952D02*
G54D23*
D03*
X746330Y858723D02*
G54D24*
D03*
X708730Y858823D02*
G54D24*
D03*
X780266Y850132D02*
G54D13*
D03*
X780266Y822132D02*
G54D13*
D03*
X780267Y850125D02*
G54D13*
D03*
X681879Y862036D02*
G54D25*
D03*
X681979Y899636D02*
G54D25*
D03*
X681978Y899636D02*
G54D25*
D03*
X669653Y803578D02*
G54D20*
D03*
X669662Y763788D02*
G54D26*
D03*
X748585Y723557D02*
G54D27*
D03*
X723185Y723559D02*
G54D27*
D03*
M02*
